# Blender v2.79 (sub 0) OBJ File: 'lowPolyTrees.blend'
# www.blender.org
g Bush
v 0.087712 2.709143 -1.031140
v 0.132329 -1.089893 0.419180
v 0.308617 2.754216 0.233644
v 0.585016 2.643333 -1.002639
v 1.278282 2.105546 -1.490680
v 1.769794 1.813859 -1.548200
v 2.017213 0.604619 -1.872950
v 2.033691 0.085898 -1.715500
v 1.696734 -0.354744 -1.202932
v 0.864715 -1.021316 -0.775881
v 1.370161 2.628239 0.444809
v 2.300195 2.202663 0.003518
v 2.939259 1.594049 -0.015918
v 3.260227 0.845113 0.045660
v 2.854026 0.001235 -0.188374
v 2.298653 -0.802015 0.232190
v 1.254581 -1.149757 0.287756
v 1.096880 2.723897 0.768010
v 1.327518 2.319761 1.175858
v 1.830477 1.638044 1.888435
v 2.442174 0.890166 1.623997
v 1.681933 -0.189313 1.547351
v 1.545007 -0.445344 1.214085
v 1.017502 -1.118285 0.716594
v 0.422275 2.734637 1.340405
v -0.021502 2.293679 1.834377
v 0.026810 1.624139 2.355671
v -0.346365 1.031831 2.685222
v -0.049555 0.185724 2.379100
v 0.248840 -0.605177 1.898684
v 0.007761 -0.986104 0.981177
v -1.083077 2.640478 0.915215
v -1.352079 1.989475 1.205331
v -1.741424 1.726174 1.411208
v -2.276550 0.739005 1.873897
v -1.996481 0.148431 1.505023
v -1.543691 -0.603484 1.319586
v -1.171194 -1.072213 0.727845
v -1.235301 2.576770 0.170593
v -2.238828 2.245088 -0.009644
v -2.573596 1.796688 -0.303879
v -3.163996 0.841510 -0.003289
v -2.731944 -0.194752 0.185847
v -1.836192 -0.512820 -0.242720
v -0.822446 -0.829697 0.190886
v -0.647829 2.831617 -0.661828
v -1.892027 2.233251 -1.431307
v -2.297218 1.797379 -1.568950
v -2.234073 0.929724 -1.822519
v -1.663531 0.193245 -1.651811
v -1.360651 -0.482220 -1.026323
v -0.922481 -0.737750 -0.804856
v 0.253620 2.028619 -1.590822
v 0.386120 1.562767 -2.336354
v 0.021278 0.816701 -3.009673
v -0.022725 0.312123 -2.058953
v 0.028326 -0.564409 -1.751658
v -0.283909 -0.965044 -1.074848
vt 0.049035 0.340326
vt 0.053360 0.340326
vt 0.053360 0.344652
vt 0.049035 0.340326
vt 0.053360 0.340326
vt 0.053360 0.344652
vt 0.049035 0.340326
vt 0.053360 0.340326
vt 0.053360 0.344652
vt 0.049035 0.340326
vt 0.053360 0.340326
vt 0.053360 0.340326
vt 0.053360 0.344652
vt 0.049035 0.340326
vt 0.053360 0.340326
vt 0.053360 0.344652
vt 0.049035 0.340326
vt 0.053360 0.340326
vt 0.049035 0.340326
vt 0.053360 0.340326
vt 0.053360 0.344652
vt 0.049035 0.340326
vt 0.053360 0.340326
vt 0.053360 0.344652
vt 0.049035 0.340326
vt 0.053360 0.344652
vt 0.049035 0.340326
vt 0.053360 0.340326
vt 0.053360 0.344652
vt 0.049035 0.340326
vt 0.053360 0.344652
vt 0.053360 0.340326
vt 0.053360 0.340326
vt 0.053360 0.344652
vt 0.049035 0.340326
vt 0.053360 0.340326
vt 0.053360 0.344652
vt 0.049035 0.344652
vt 0.049035 0.340326
vt 0.053360 0.340326
vt 0.049035 0.340326
vt 0.053360 0.340326
vt 0.053360 0.344652
vt 0.049035 0.340326
vt 0.053360 0.344652
vt 0.053360 0.340326
vt 0.053360 0.344652
vt 0.049035 0.340326
vt 0.053360 0.340326
vt 0.053360 0.344652
vt 0.049035 0.340326
vt 0.053360 0.340326
vt 0.053360 0.344652
vt 0.053360 0.340326
vt 0.049035 0.340326
vt 0.053360 0.340326
vt 0.053360 0.344652
vt 0.049035 0.344652
vt 0.053360 0.340326
vt 0.053360 0.344652
vt 0.049035 0.340326
vt 0.053360 0.340326
vt 0.053360 0.344652
vt 0.049035 0.340326
vt 0.053360 0.340326
vt 0.053360 0.344652
vt 0.049035 0.340326
vt 0.053360 0.340326
vt 0.053360 0.344652
vt 0.049035 0.340326
vt 0.053360 0.340326
vt 0.053360 0.340326
vt 0.053360 0.344652
vt 0.049035 0.344652
vt 0.049035 0.340326
vt 0.053360 0.340326
vt 0.053360 0.344652
vt 0.049035 0.340326
vt 0.053360 0.340326
vt 0.053360 0.344652
vt 0.049035 0.340326
vt 0.053360 0.340326
vt 0.053360 0.344652
vt 0.049035 0.340326
vt 0.053360 0.340326
vt 0.053360 0.344652
vt 0.049035 0.340326
vt 0.053360 0.344652
vt 0.053360 0.340326
vt 0.053360 0.340326
vt 0.053360 0.344652
vt 0.049035 0.340326
vt 0.053360 0.340326
vt 0.053360 0.344652
vt 0.049035 0.344652
vt 0.049035 0.340326
vt 0.053360 0.344652
vt 0.049035 0.340326
vt 0.053360 0.340326
vt 0.053360 0.344652
vt 0.049035 0.340326
vt 0.053360 0.340326
vt 0.053360 0.344652
vt 0.049035 0.340326
vt 0.053360 0.344652
vt 0.053360 0.340326
vt 0.053360 0.344652
vt 0.049035 0.340326
vt 0.053360 0.344652
vt 0.049035 0.340326
vt 0.053360 0.340326
vt 0.053360 0.344652
vt 0.049035 0.344652
vt 0.053360 0.340326
vt 0.049035 0.340326
vt 0.053360 0.344652
vt 0.053360 0.340326
vt 0.053360 0.344652
vt 0.049035 0.340326
vt 0.053360 0.340326
vt 0.053360 0.344652
vt 0.049035 0.340326
vt 0.053360 0.340326
vt 0.053360 0.344652
vt 0.049035 0.340326
vt 0.049035 0.340326
vt 0.053360 0.340326
vt 0.053360 0.344652
vt 0.053360 0.340326
vt 0.049035 0.340326
vt 0.053360 0.340326
vt 0.053360 0.344652
vt 0.049035 0.344652
vt 0.049035 0.340326
vt 0.053360 0.340326
vt 0.053360 0.344652
vt 0.049035 0.340326
vt 0.053360 0.344652
vt 0.049035 0.340326
vt 0.053360 0.344652
vt 0.053360 0.344652
vt 0.049035 0.340326
vt 0.053360 0.340326
vt 0.053360 0.344652
vt 0.053360 0.340326
vt 0.053360 0.340326
vt 0.049035 0.340326
vt 0.053360 0.340326
vt 0.049035 0.340326
vt 0.053360 0.340326
vt 0.049035 0.340326
vt 0.049035 0.340326
vt 0.049035 0.340326
vt 0.053360 0.340326
vt 0.049035 0.340326
vt 0.049035 0.340326
vt 0.049035 0.340326
vt 0.049035 0.340326
vt 0.053360 0.340326
vt 0.049035 0.340326
vt 0.053360 0.340326
vt 0.049035 0.340326
vt 0.053360 0.340326
vt 0.049035 0.340326
vt 0.049035 0.340326
vt 0.053360 0.340326
vt 0.053360 0.340326
vt 0.053360 0.340326
vn 0.0232 -0.7656 -0.6429
vn 0.3449 0.5303 -0.7745
vn 0.1288 0.6485 -0.7503
vn 0.2447 -0.8797 -0.4078
vn 0.4601 -0.2445 -0.8535
vn -0.0117 0.8471 -0.5314
vn 0.1343 0.9892 -0.0587
vn -0.0293 -0.9967 -0.0751
vn 0.2725 -0.8802 -0.3886
vn 0.8393 -0.1333 -0.5271
vn 0.4452 0.8208 -0.3578
vn 0.1294 0.9898 -0.0599
vn -0.0643 -0.9933 -0.0964
vn 0.6517 -0.6528 -0.3862
vn 0.7809 0.3003 -0.5477
vn 0.4773 0.8424 -0.2501
vn 0.6222 0.6389 0.4524
vn 0.1482 0.9754 -0.1633
vn -0.0477 -0.9978 0.0468
vn 0.5954 -0.7365 0.3212
vn 0.8026 0.3817 0.4585
vn 0.6358 0.6972 0.3313
vn 0.2950 -0.8029 0.5181
vn 0.7428 -0.5188 0.4233
vn -0.0861 -0.9830 0.1624
vn 0.3257 -0.3980 0.8576
vn 0.2494 -0.1350 0.9589
vn 0.6363 0.1956 0.7462
vn 0.2742 -0.9115 0.3064
vn 0.3471 -0.2625 0.9004
vn 0.3442 0.5921 0.7286
vn 0.0284 0.9995 0.0148
vn -0.2660 0.4819 0.8349
vn -0.1756 -0.8225 0.5410
vn -0.2982 -0.4155 0.8593
vn -0.4589 0.5250 0.7168
vn -0.0694 0.9973 0.0248
vn 0.0313 -0.9816 0.1882
vn -0.3642 -0.4238 0.8293
vn -0.3740 0.5786 0.7248
vn -0.7179 -0.6897 0.0944
vn -0.7580 -0.5641 0.3275
vn -0.3416 0.8379 0.4256
vn -0.1115 0.9918 -0.0621
vn -0.1241 -0.8716 -0.4743
vn -0.6731 -0.5320 0.5137
vn -0.7296 0.5708 0.3767
vn -0.3109 0.9503 -0.0177
vn -0.1201 0.9698 0.2121
vn -0.2480 -0.9666 -0.0643
vn -0.4799 -0.7594 -0.4393
vn -0.8608 0.4730 -0.1878
vn -0.3231 0.9444 0.0611
vn -0.2252 -0.9586 -0.1741
vn -0.6862 -0.6198 -0.3808
vn -0.7139 0.6797 -0.1684
vn -0.1228 -0.7034 -0.7001
vn -0.1391 0.7001 -0.7004
vn -0.2939 0.5634 -0.7722
vn -0.3519 -0.7253 -0.5917
vn -0.4224 -0.5021 -0.7546
vn -0.0383 0.3331 -0.9421
vn 0.1351 0.9891 -0.0589
vn -0.3304 -0.9438 0.0132
vn -0.0807 0.8388 -0.5385
vn -0.0528 -0.8811 -0.4701
vn -0.4075 -0.8870 -0.2171
vn 0.0258 0.7685 -0.6393
vn -0.4456 0.2211 -0.8675
vn -0.4536 -0.3183 -0.8325
vn -0.7494 -0.4077 -0.5218
vn -0.4918 -0.8702 -0.0309
vn -0.3801 0.9195 -0.1004
vn -0.8897 0.0672 -0.4515
vn -0.6301 -0.6605 -0.4082
vn -0.6355 0.5178 0.5727
vn -0.3315 -0.9434 0.0073
vn -0.8374 0.3491 0.4206
vn -0.8179 -0.2461 0.5200
vn -0.0829 -0.8869 -0.4544
vn -0.2530 -0.5702 0.7816
vn -0.2480 0.7972 0.5505
vn -0.3161 -0.6059 0.7300
vn -0.0158 -0.9220 0.3869
vn -0.3804 0.8330 0.4018
vn 0.1556 0.7663 0.6233
vn 0.1131 -0.6465 0.7545
vn 0.2752 0.7562 0.5937
vn 0.3542 0.2743 0.8940
vn 0.3507 -0.8067 0.4757
vn 0.5767 -0.7272 0.3722
vn 0.5234 0.7737 0.3570
vn 0.7759 0.4975 0.3880
vn 0.7471 -0.1817 0.6394
vn 0.5742 0.7549 0.3169
vn 0.2959 0.9185 -0.2621
vn 0.4108 -0.8072 -0.4239
vn 0.6305 0.6743 -0.3845
vn 0.8405 -0.2751 -0.4668
vn 0.5065 -0.8141 -0.2840
vn 0.2926 0.6342 -0.7157
vn -0.0187 -0.8828 -0.4694
vn 0.1576 -0.6646 -0.7304
vn 0.0196 0.6857 -0.7277
vn 0.4945 0.3184 -0.8088
vn 0.3318 -0.2948 -0.8961
s off
f 56/1/1 8/2/1 9/3/1
f 55/4/2 54/5/2 6/6/2
f 53/7/3 1/8/3 4/9/3
f 58/10/4 57/11/4 9/3/4
f 55/4/5 7/12/5 8/13/5
f 54/14/6 53/15/6 5/16/6
f 1/17/7 3/18/7 4/9/7
f 2/19/8 58/20/8 10/21/8
f 9/22/9 16/23/9 17/24/9
f 8/25/10 7/12/10 14/26/10
f 6/27/11 5/28/11 12/29/11
f 4/30/12 3/18/12 11/31/12
f 2/19/13 10/32/13 17/24/13
f 8/25/14 15/33/14 16/34/14
f 7/35/15 6/36/15 13/37/15 14/38/15
f 5/39/16 4/40/16 11/31/16
f 13/41/17 12/42/17 19/43/17
f 11/44/18 3/18/18 18/45/18
f 2/19/19 17/46/19 24/47/19
f 15/48/20 22/49/20 23/50/20
f 14/51/21 13/52/21 20/53/21
f 11/44/22 18/54/22 19/43/22
f 17/55/23 16/23/23 23/50/23
f 15/48/24 14/56/24 21/57/24 22/58/24
f 2/19/25 24/59/25 31/60/25
f 22/61/26 29/62/26 30/63/26
f 21/64/27 20/65/27 27/66/27
f 18/67/28 25/68/28 26/69/28
f 23/70/29 30/71/29 31/60/29
f 22/61/30 21/72/30 28/73/30 29/74/30
f 19/75/31 26/76/31 27/66/31
f 18/67/32 3/18/32 25/77/32
f 25/78/33 32/79/33 33/80/33
f 30/81/34 37/82/34 38/83/34
f 29/84/35 28/85/35 35/86/35
f 27/87/36 26/76/36 33/80/36
f 25/78/37 3/18/37 32/88/37
f 2/19/38 31/89/38 38/83/38
f 29/84/39 36/90/39 37/91/39
f 28/92/40 27/93/40 34/94/40 35/95/40
f 38/96/41 37/82/41 44/97/41
f 36/98/42 35/99/42 42/100/42
f 34/101/43 33/102/43 40/103/43
f 32/104/44 3/18/44 39/105/44
f 2/19/45 38/106/45 45/107/45
f 37/108/46 36/90/46 43/109/46
f 35/110/47 34/111/47 41/112/47 42/113/47
f 32/104/48 39/114/48 40/103/48
f 39/115/49 3/18/49 46/116/49
f 2/19/50 45/117/50 52/118/50
f 44/119/51 43/120/51 50/121/51
f 42/122/52 41/123/52 48/124/52
f 40/125/53 39/114/53 46/116/53
f 45/126/54 44/127/54 51/128/54
f 42/122/55 49/129/55 50/121/55
f 41/130/56 40/131/56 47/132/56 48/133/56
f 51/134/57 50/135/57 56/136/57
f 48/137/58 54/5/58 55/138/58
f 46/139/59 1/8/59 53/140/59
f 51/134/60 57/11/60 58/141/60
f 50/142/61 49/129/61 55/138/61
f 48/137/62 47/143/62 53/140/62
f 46/139/63 3/18/63 1/144/63
f 2/19/64 52/145/64 58/141/64
f 54/14/65 48/146/65 53/140/65
f 56/1/66 50/135/66 55/138/66
f 52/147/67 51/148/67 58/141/67
f 47/149/68 46/150/68 53/140/68
f 49/151/69 48/146/69 55/138/69
f 57/152/70 51/148/70 56/136/70
f 43/153/71 42/154/71 50/121/71
f 52/147/72 45/117/72 51/128/72
f 47/149/73 40/131/73 46/116/73
f 49/151/74 42/154/74 48/124/74
f 51/134/75 44/127/75 50/121/75
f 33/155/76 32/79/76 40/103/76
f 44/119/77 37/82/77 43/109/77
f 41/130/78 34/111/78 40/103/78
f 43/153/79 36/90/79 42/100/79
f 45/126/80 38/106/80 44/97/80
f 30/81/81 29/62/81 37/91/81
f 34/101/82 27/93/82 33/80/82
f 36/98/83 29/62/83 35/86/83
f 31/156/84 30/71/84 38/83/84
f 26/157/85 25/68/85 33/80/85
f 20/158/86 19/159/86 27/66/86
f 24/160/87 23/161/87 31/60/87
f 19/75/88 18/54/88 26/69/88
f 28/92/89 21/72/89 27/66/89
f 23/70/90 22/49/90 30/63/90
f 24/160/91 17/46/91 23/50/91
f 12/162/92 11/163/92 19/43/92
f 21/64/93 14/56/93 20/53/93
f 16/164/94 15/33/94 23/50/94
f 20/158/95 13/52/95 19/43/95
f 12/162/96 5/28/96 11/31/96
f 9/22/97 8/2/97 16/34/97
f 13/41/98 6/36/98 12/29/98
f 15/48/99 8/2/99 14/26/99
f 10/165/100 9/166/100 17/24/100
f 6/27/101 54/5/101 5/16/101
f 56/1/102 55/167/102 8/13/102
f 10/165/103 58/20/103 9/3/103
f 5/39/104 53/15/104 4/9/104
f 7/35/105 55/167/105 6/6/105
f 57/152/106 56/168/106 9/3/106
