# Blender v2.79 (sub 0) OBJ File: 'lowPolyTrees.blend'
# www.blender.org
g Button
v -1.000000 0.000000 1.000000
v -1.000000 2.000000 1.000000
v -1.000000 0.000000 -1.000000
v -1.000000 2.000000 -1.000000
v 1.000000 0.000000 1.000000
v 1.000000 2.000000 1.000000
v 1.000000 0.000000 -1.000000
v 1.000000 2.000000 -1.000000
v -0.379077 1.684411 0.379077
v -0.379077 2.442566 0.379077
v -0.379077 1.684411 -0.379077
v -0.379077 2.442566 -0.379077
v 0.379077 1.684411 0.379077
v 0.379077 2.442566 0.379077
v 0.379077 1.684411 -0.379077
v 0.379077 2.442566 -0.379077
v 0.000000 3.056642 -0.707107
v 0.000000 2.349535 -1.000000
v 0.612373 3.056642 -0.353553
v 0.866026 2.349535 -0.500000
v 0.612373 3.056642 0.353554
v 0.866026 2.349535 0.500000
v 0.000000 3.349535 0.000000
v -0.000000 3.056642 0.707107
v -0.000000 2.349535 1.000000
v -0.612373 3.056642 0.353553
v -0.866026 2.349535 0.500000
v -0.612372 3.056642 -0.353554
v -0.866025 2.349535 -0.500000
vt 0.494092 0.454785
vt 0.498584 0.454785
vt 0.498584 0.459277
vt 0.494092 0.459277
vt 0.494092 0.454785
vt 0.498584 0.454785
vt 0.498584 0.459277
vt 0.494092 0.459277
vt 0.494092 0.454785
vt 0.498584 0.454785
vt 0.498584 0.459277
vt 0.494092 0.459277
vt 0.494092 0.454785
vt 0.498584 0.454785
vt 0.498584 0.459277
vt 0.494092 0.459277
vt 0.498584 0.454785
vt 0.498584 0.459277
vt 0.494092 0.454785
vt 0.494092 0.459277
vt 0.494092 0.454785
vt 0.498584 0.454785
vt 0.498584 0.459277
vt 0.494092 0.459277
vt 0.494092 0.454785
vt 0.498584 0.454785
vt 0.498584 0.459277
vt 0.494092 0.459277
vt 0.494092 0.454785
vt 0.498584 0.454785
vt 0.498584 0.459277
vt 0.494092 0.459277
vt 0.494092 0.454785
vt 0.498584 0.454785
vt 0.498584 0.459277
vt 0.494092 0.459277
vt 0.498584 0.454785
vt 0.498584 0.459277
vt 0.494092 0.454785
vt 0.494092 0.459277
vt 0.151598 0.511455
vt 0.151598 0.511455
vt 0.151598 0.511455
vt 0.151598 0.511455
vt 0.151598 0.511455
vt 0.151598 0.511455
vt 0.151598 0.511455
vt 0.151598 0.511455
vt 0.151598 0.511455
vt 0.151598 0.511455
vt 0.151598 0.511455
vt 0.151598 0.511455
vt 0.151598 0.511455
vn -1.0000 0.0000 0.0000
vn 0.0000 0.0000 -1.0000
vn 1.0000 0.0000 0.0000
vn 0.0000 0.0000 1.0000
vn 0.0000 -1.0000 0.0000
vn 0.0000 1.0000 0.0000
vn 0.2157 0.9021 -0.3737
vn 0.4706 0.3377 -0.8152
vn 0.9413 0.3377 0.0000
vn 0.4315 0.9021 0.0000
vn 0.2157 0.9021 0.3737
vn 0.4706 0.3377 0.8152
vn -0.2157 0.9021 0.3737
vn -0.4706 0.3377 0.8152
vn -0.4315 0.9021 0.0000
vn -0.9413 0.3377 -0.0000
vn -0.2157 0.9021 -0.3737
vn -0.4706 0.3377 -0.8152
s off
f 1/1/1 2/2/1 4/3/1 3/4/1
f 3/5/2 4/6/2 8/7/2 7/8/2
f 7/9/3 8/10/3 6/11/3 5/12/3
f 5/13/4 6/14/4 2/15/4 1/16/4
f 3/5/5 7/17/5 5/18/5 1/16/5
f 8/19/6 4/6/6 2/15/6 6/20/6
f 9/21/1 10/22/1 12/23/1 11/24/1
f 11/25/2 12/26/2 16/27/2 15/28/2
f 15/29/3 16/30/3 14/31/3 13/32/3
f 13/33/4 14/34/4 10/35/4 9/36/4
f 11/25/5 15/37/5 13/38/5 9/36/5
f 16/39/6 12/26/6 10/35/6 14/40/6
f 17/41/7 23/42/7 19/43/7
f 18/44/8 17/41/8 19/43/8 20/45/8
f 20/45/9 19/43/9 21/46/9 22/47/9
f 19/43/10 23/42/10 21/46/10
f 21/46/11 23/42/11 24/48/11
f 22/47/12 21/46/12 24/48/12 25/49/12
f 24/48/13 23/42/13 26/50/13
f 25/49/14 24/48/14 26/50/14 27/51/14
f 18/44/5 20/45/5 22/47/5 25/49/5 27/51/5 29/52/5
f 26/50/15 23/42/15 28/53/15
f 27/51/16 26/50/16 28/53/16 29/52/16
f 28/53/17 23/42/17 17/41/17
f 29/52/18 28/53/18 17/41/18 18/44/18
