# Blender v2.79 (sub 0) OBJ File: 'lowPolyTrees.blend'
# www.blender.org
g Cloud2
v 4.494951 2.221679 -1.203431
v 4.494951 1.232585 -2.026725
v 4.494951 0.243493 -1.203431
v 4.494951 -0.166203 0.784175
v 6.698138 2.221679 -0.209628
v 7.610727 1.232585 -0.621275
v 6.698138 0.243493 -0.209628
v 6.698138 2.221679 1.777978
v 7.610727 1.232585 2.189625
v 6.698138 0.243493 1.777978
v 4.494951 2.631374 0.784175
v 4.494951 2.221679 2.771781
v 4.494950 1.232585 3.595074
v 4.494951 0.243493 2.771781
v 2.291764 2.221679 1.777977
v 1.379175 1.232585 2.189624
v 2.291764 0.243493 1.777977
v 2.291766 2.221679 -0.209629
v 1.379176 1.232585 -0.621276
v 2.291766 0.243493 -0.209629
v -0.009870 1.496001 -1.742046
v -0.009870 0.161465 -2.412623
v -0.009870 -1.173071 -1.742046
v -0.009870 -1.725854 -0.123128
v 2.527193 1.496001 -0.932587
v 3.578078 0.161465 -1.267876
v 2.527193 -1.173071 -0.932587
v 2.527192 1.496001 0.686331
v 3.578078 0.161465 1.021620
v 2.527192 -1.173071 0.686331
v -0.009870 2.048784 -0.123128
v -0.009871 1.496001 1.495789
v -0.009871 0.161465 2.166367
v -0.009871 -1.173071 1.495789
v -2.546933 1.496001 0.686330
v -3.597819 0.161465 1.021619
v -2.546933 -1.173071 0.686330
v -2.546933 1.496001 -0.932588
v -3.597818 0.161465 -1.267877
v -2.546933 -1.173071 -0.932588
vt 0.495064 0.541324
vt 0.497664 0.541324
vt 0.497664 0.543924
vt 0.495064 0.543924
vt 0.495064 0.541324
vt 0.497664 0.541324
vt 0.497664 0.543924
vt 0.495064 0.541324
vt 0.497664 0.541324
vt 0.497664 0.543924
vt 0.495064 0.541324
vt 0.497664 0.541324
vt 0.495064 0.543924
vt 0.497664 0.541324
vt 0.497664 0.543924
vt 0.495064 0.541324
vt 0.497664 0.541324
vt 0.497664 0.543924
vt 0.495064 0.543924
vt 0.495064 0.541324
vt 0.497664 0.541324
vt 0.497664 0.543924
vt 0.495064 0.543924
vt 0.495064 0.541324
vt 0.495064 0.541324
vt 0.497664 0.543924
vt 0.497664 0.541324
vt 0.497664 0.543924
vt 0.495064 0.541324
vt 0.497664 0.541324
vt 0.495064 0.543924
vt 0.495064 0.541324
vt 0.497664 0.541324
vt 0.497664 0.543924
vt 0.495064 0.543924
vt 0.495064 0.541324
vt 0.497664 0.541324
vt 0.497664 0.543924
vt 0.495064 0.543924
vt 0.495064 0.541324
vt 0.497664 0.543924
vt 0.497664 0.541324
vt 0.497664 0.543924
vt 0.495064 0.541324
vt 0.497664 0.541324
vt 0.495064 0.543924
vt 0.495064 0.541324
vt 0.497664 0.541324
vt 0.497664 0.543924
vt 0.495064 0.543924
vt 0.495064 0.541324
vt 0.497664 0.543924
vt 0.497664 0.541324
vt 0.497664 0.543924
vt 0.495064 0.541324
vt 0.497664 0.541324
vt 0.495064 0.543924
vt 0.495064 0.541324
vt 0.497664 0.541324
vt 0.497664 0.543924
vt 0.495064 0.543924
vt 0.495064 0.541324
vt 0.497664 0.543924
vt 0.497664 0.541324
vt 0.497664 0.543924
vt 0.495064 0.541324
vt 0.497664 0.541324
vt 0.495064 0.543924
vt 0.495064 0.541324
vt 0.497664 0.541324
vt 0.497664 0.543924
vt 0.495064 0.543924
vt 0.495064 0.541324
vt 0.497664 0.541324
vt 0.497664 0.543924
vt 0.495064 0.541324
vt 0.497664 0.541324
vt 0.497664 0.543924
vt 0.495064 0.541324
vt 0.497664 0.541324
vt 0.495064 0.543924
vt 0.497664 0.541324
vt 0.497664 0.543924
vt 0.495064 0.541324
vt 0.497664 0.541324
vt 0.497664 0.543924
vt 0.495064 0.543924
vt 0.495064 0.541324
vt 0.497664 0.541324
vt 0.497664 0.543924
vt 0.495064 0.543924
vt 0.495064 0.541324
vt 0.495064 0.541324
vt 0.497664 0.543924
vt 0.497664 0.541324
vt 0.497664 0.543924
vt 0.495064 0.541324
vt 0.497664 0.541324
vt 0.495064 0.543924
vt 0.495064 0.541324
vt 0.497664 0.541324
vt 0.497664 0.543924
vt 0.495064 0.543924
vt 0.495064 0.541324
vt 0.497664 0.541324
vt 0.497664 0.543924
vt 0.495064 0.543924
vt 0.495064 0.541324
vt 0.497664 0.543924
vt 0.497664 0.541324
vt 0.497664 0.543924
vt 0.495064 0.541324
vt 0.497664 0.541324
vt 0.495064 0.543924
vt 0.495064 0.541324
vt 0.497664 0.541324
vt 0.497664 0.543924
vt 0.495064 0.543924
vt 0.495064 0.541324
vt 0.497664 0.543924
vt 0.497664 0.541324
vt 0.497664 0.543924
vt 0.495064 0.541324
vt 0.497664 0.541324
vt 0.495064 0.543924
vt 0.495064 0.541324
vt 0.497664 0.541324
vt 0.497664 0.543924
vt 0.495064 0.543924
vt 0.495064 0.541324
vt 0.497664 0.543924
vt 0.497664 0.541324
vt 0.497664 0.543924
vt 0.495064 0.541324
vt 0.497664 0.541324
vt 0.495064 0.543924
vn 0.3276 -0.6045 -0.7262
vn 0.0907 0.9754 -0.2010
vn 0.0907 -0.9754 -0.2010
vn 0.3276 0.6045 -0.7262
vn 0.1828 -0.9831 0.0000
vn 0.7350 0.6781 0.0000
vn 0.7350 -0.6781 0.0000
vn 0.1828 0.9831 0.0000
vn 0.0907 0.9754 0.2010
vn 0.0907 -0.9754 0.2010
vn 0.3276 0.6045 0.7262
vn 0.3276 -0.6045 0.7262
vn -0.3276 -0.6045 0.7262
vn -0.0907 0.9754 0.2010
vn -0.0907 -0.9754 0.2010
vn -0.3276 0.6045 0.7262
vn -0.7350 -0.6781 -0.0000
vn -0.1828 0.9831 0.0000
vn -0.1828 -0.9831 -0.0000
vn -0.7350 0.6781 -0.0000
vn -0.3276 -0.6045 -0.7262
vn -0.0907 0.9754 -0.2010
vn -0.0907 -0.9754 -0.2010
vn -0.3276 0.6045 -0.7262
vn 0.2742 -0.4318 -0.8593
vn 0.1026 0.9414 -0.3214
vn 0.1026 -0.9414 -0.3214
vn 0.2742 0.4318 -0.8593
vn 0.2129 -0.9771 0.0000
vn 0.7857 0.6187 0.0000
vn 0.7857 -0.6187 0.0000
vn 0.2129 0.9771 0.0000
vn 0.1026 0.9414 0.3214
vn 0.1026 -0.9414 0.3214
vn 0.2742 0.4318 0.8593
vn 0.2742 -0.4318 0.8593
vn -0.2742 -0.4318 0.8593
vn -0.1026 0.9414 0.3214
vn -0.1026 -0.9414 0.3214
vn -0.2742 0.4318 0.8593
vn -0.7857 -0.6187 -0.0000
vn -0.2129 0.9771 -0.0000
vn -0.2129 -0.9771 -0.0000
vn -0.7857 0.6187 -0.0000
vn -0.2742 -0.4318 -0.8593
vn -0.1026 0.9414 -0.3214
vn -0.1026 -0.9414 -0.3214
vn -0.2742 0.4318 -0.8593
s off
f 3/1/1 2/2/1 6/3/1 7/4/1
f 1/5/2 11/6/2 5/7/2
f 4/8/3 3/9/3 7/10/3
f 2/11/4 1/12/4 5/7/4 6/13/4
f 4/8/5 7/14/5 10/15/5
f 6/16/6 5/17/6 8/18/6 9/19/6
f 7/20/7 6/21/7 9/22/7 10/23/7
f 5/24/8 11/6/8 8/18/8
f 8/25/9 11/6/9 12/26/9
f 4/8/10 10/27/10 14/28/10
f 9/29/11 8/30/11 12/26/11 13/31/11
f 10/32/12 9/33/12 13/34/12 14/35/12
f 14/36/13 13/37/13 16/38/13 17/39/13
f 12/40/14 11/6/14 15/41/14
f 4/8/15 14/42/15 17/43/15
f 13/44/16 12/45/16 15/41/16 16/46/16
f 17/47/17 16/48/17 19/49/17 20/50/17
f 15/51/18 11/6/18 18/52/18
f 4/8/19 17/53/19 20/54/19
f 16/55/20 15/56/20 18/52/20 19/57/20
f 20/58/21 19/59/21 2/60/21 3/61/21
f 18/62/22 11/6/22 1/63/22
f 4/8/23 20/64/23 3/65/23
f 19/66/24 18/67/24 1/63/24 2/68/24
f 23/69/25 22/70/25 26/71/25 27/72/25
f 21/73/26 31/74/26 25/75/26
f 24/76/27 23/77/27 27/78/27
f 22/79/28 21/80/28 25/75/28 26/81/28
f 24/76/29 27/82/29 30/83/29
f 26/84/30 25/85/30 28/86/30 29/87/30
f 27/88/31 26/89/31 29/90/31 30/91/31
f 25/92/32 31/74/32 28/86/32
f 28/93/33 31/74/33 32/94/33
f 24/76/34 30/95/34 34/96/34
f 29/97/35 28/98/35 32/94/35 33/99/35
f 30/100/36 29/101/36 33/102/36 34/103/36
f 34/104/37 33/105/37 36/106/37 37/107/37
f 32/108/38 31/74/38 35/109/38
f 24/76/39 34/110/39 37/111/39
f 33/112/40 32/113/40 35/109/40 36/114/40
f 37/115/41 36/116/41 39/117/41 40/118/41
f 35/119/42 31/74/42 38/120/42
f 24/76/43 37/121/43 40/122/43
f 36/123/44 35/124/44 38/120/44 39/125/44
f 40/126/45 39/127/45 22/128/45 23/129/45
f 38/130/46 31/74/46 21/131/46
f 24/76/47 40/132/47 23/133/47
f 39/134/48 38/135/48 21/131/48 22/136/48
