# Blender v2.79 (sub 0) OBJ File: 'lowPolyTrees.blend'
# www.blender.org
g Cloud4
v 3.254979 1.006457 1.252070
v 3.254979 0.017364 0.428777
v 3.254979 -0.971729 1.252070
v 3.254979 -1.381425 3.239676
v 5.458165 1.006457 2.245873
v 6.370755 0.017364 1.834227
v 5.458165 -0.971729 2.245873
v 5.458165 1.006457 4.233479
v 6.370755 0.017364 4.645126
v 5.458165 -0.971729 4.233479
v 3.254979 1.416153 3.239676
v 3.254979 1.006457 5.227283
v 3.254978 0.017364 6.050575
v 3.254979 -0.971729 5.227283
v 1.051792 1.006457 4.233479
v 0.139203 0.017364 4.645125
v 1.051792 -0.971729 4.233479
v 1.051794 1.006457 2.245872
v 0.139204 0.017364 1.834226
v 1.051794 -0.971729 2.245872
v -0.009870 1.964147 -3.322038
v -0.009870 0.161465 -4.647070
v -0.009870 -1.641218 -3.322038
v -0.009870 -2.387913 -0.123128
v 3.417177 1.964147 -1.722583
v 4.836707 0.161465 -2.385099
v 3.417177 -1.641218 -1.722583
v 3.417177 1.964147 1.476328
v 4.836707 0.161465 2.138844
v 3.417177 -1.641218 1.476328
v -0.009870 2.710843 -0.123128
v -0.009871 1.964147 3.075782
v -0.009871 0.161465 4.400814
v -0.009871 -1.641218 3.075782
v -3.436919 1.964147 1.476326
v -4.856447 0.161465 2.138842
v -3.436919 -1.641218 1.476326
v -3.436917 1.964147 -1.722584
v -4.856446 0.161465 -2.385100
v -3.436917 -1.641218 -1.722584
v 9.311109 0.835090 4.957170
v 9.311109 0.161465 4.618686
v 9.311109 -0.512160 4.957170
v 9.311109 -0.791185 5.774339
v 10.591725 0.835090 5.365754
v 11.122173 0.161465 5.196513
v 10.591725 -0.512160 5.365754
v 10.591725 0.835090 6.182925
v 11.122173 0.161465 6.352166
v 10.591725 -0.512160 6.182925
v 9.311109 1.114114 5.774339
v 9.311109 0.835090 6.591510
v 9.311109 0.161465 6.929993
v 9.311109 -0.512160 6.591510
v 8.030493 0.835090 6.182924
v 7.500045 0.161465 6.352166
v 8.030493 -0.512160 6.182924
v 8.030494 0.835090 5.365754
v 7.500045 0.161465 5.196512
v 8.030494 -0.512160 5.365754
v -9.148211 1.307098 -3.907999
v -9.148211 0.633473 -4.246482
v -9.148211 -0.040151 -3.907999
v -9.148211 -0.319176 -3.090829
v -7.867594 1.307098 -3.499414
v -7.337144 0.633473 -3.668655
v -7.867594 -0.040151 -3.499414
v -7.867594 1.307098 -2.682244
v -7.337144 0.633473 -2.513002
v -7.867594 -0.040151 -2.682244
v -9.148211 1.586123 -3.090829
v -9.148211 1.307098 -2.273659
v -9.148211 0.633473 -1.935176
v -9.148211 -0.040151 -2.273659
v -10.428825 1.307098 -2.682244
v -10.959273 0.633473 -2.513002
v -10.428825 -0.040151 -2.682244
v -10.428825 1.307098 -3.499414
v -10.959273 0.633473 -3.668656
v -10.428825 -0.040151 -3.499414
v -3.010819 1.547779 -4.394652
v -3.010819 0.558686 -5.217946
v -3.010819 -0.430407 -4.394652
v -3.010819 -0.840102 -2.407046
v -0.807633 1.547779 -3.400850
v 0.104957 0.558686 -3.812496
v -0.807633 -0.430407 -3.400850
v -0.807633 1.547779 -1.413244
v 0.104957 0.558686 -1.001596
v -0.807633 -0.430407 -1.413244
v -3.010819 1.957475 -2.407046
v -3.010819 1.547779 -0.419440
v -3.010820 0.558686 0.403852
v -3.010819 -0.430407 -0.419440
v -5.214007 1.547779 -1.413244
v -6.126595 0.558686 -1.001598
v -5.214007 -0.430407 -1.413244
v -5.214005 1.547779 -3.400850
v -6.126595 0.558686 -3.812497
v -5.214005 -0.430407 -3.400850
vt 0.495064 0.541324
vt 0.497664 0.541324
vt 0.497664 0.543924
vt 0.495064 0.543924
vt 0.495064 0.541324
vt 0.497664 0.541324
vt 0.497664 0.543924
vt 0.495064 0.541324
vt 0.497664 0.541324
vt 0.497664 0.543924
vt 0.495064 0.541324
vt 0.497664 0.541324
vt 0.495064 0.543924
vt 0.497664 0.541324
vt 0.497664 0.543924
vt 0.495064 0.541324
vt 0.497664 0.541324
vt 0.497664 0.543924
vt 0.495064 0.543924
vt 0.495064 0.541324
vt 0.497664 0.541324
vt 0.497664 0.543924
vt 0.495064 0.543924
vt 0.495064 0.541324
vt 0.495064 0.541324
vt 0.497664 0.543924
vt 0.497664 0.541324
vt 0.497664 0.543924
vt 0.495064 0.541324
vt 0.497664 0.541324
vt 0.495064 0.543924
vt 0.495064 0.541324
vt 0.497664 0.541324
vt 0.497664 0.543924
vt 0.495064 0.543924
vt 0.495064 0.541324
vt 0.497664 0.541324
vt 0.497664 0.543924
vt 0.495064 0.543924
vt 0.495064 0.541324
vt 0.497664 0.543924
vt 0.497664 0.541324
vt 0.497664 0.543924
vt 0.495064 0.541324
vt 0.497664 0.541324
vt 0.495064 0.543924
vt 0.495064 0.541324
vt 0.497664 0.541324
vt 0.497664 0.543924
vt 0.495064 0.543924
vt 0.495064 0.541324
vt 0.497664 0.543924
vt 0.497664 0.541324
vt 0.497664 0.543924
vt 0.495064 0.541324
vt 0.497664 0.541324
vt 0.495064 0.543924
vt 0.495064 0.541324
vt 0.497664 0.541324
vt 0.497664 0.543924
vt 0.495064 0.543924
vt 0.495064 0.541324
vt 0.497664 0.543924
vt 0.497664 0.541324
vt 0.497664 0.543924
vt 0.495064 0.541324
vt 0.497664 0.541324
vt 0.495064 0.543924
vt 0.495064 0.541324
vt 0.497664 0.541324
vt 0.497664 0.543924
vt 0.495064 0.543924
vt 0.495064 0.541324
vt 0.497664 0.541324
vt 0.497664 0.543924
vt 0.495064 0.541324
vt 0.497664 0.541324
vt 0.497664 0.543924
vt 0.495064 0.541324
vt 0.497664 0.541324
vt 0.495064 0.543924
vt 0.497664 0.541324
vt 0.497664 0.543924
vt 0.495064 0.541324
vt 0.497664 0.541324
vt 0.497664 0.543924
vt 0.495064 0.543924
vt 0.495064 0.541324
vt 0.497664 0.541324
vt 0.497664 0.543924
vt 0.495064 0.543924
vt 0.495064 0.541324
vt 0.495064 0.541324
vt 0.497664 0.543924
vt 0.497664 0.541324
vt 0.497664 0.543924
vt 0.495064 0.541324
vt 0.497664 0.541324
vt 0.495064 0.543924
vt 0.495064 0.541324
vt 0.497664 0.541324
vt 0.497664 0.543924
vt 0.495064 0.543924
vt 0.495064 0.541324
vt 0.497664 0.541324
vt 0.497664 0.543924
vt 0.495064 0.543924
vt 0.495064 0.541324
vt 0.497664 0.543924
vt 0.497664 0.541324
vt 0.497664 0.543924
vt 0.495064 0.541324
vt 0.497664 0.541324
vt 0.495064 0.543924
vt 0.495064 0.541324
vt 0.497664 0.541324
vt 0.497664 0.543924
vt 0.495064 0.543924
vt 0.495064 0.541324
vt 0.497664 0.543924
vt 0.497664 0.541324
vt 0.497664 0.543924
vt 0.495064 0.541324
vt 0.497664 0.541324
vt 0.495064 0.543924
vt 0.495064 0.541324
vt 0.497664 0.541324
vt 0.497664 0.543924
vt 0.495064 0.543924
vt 0.495064 0.541324
vt 0.497664 0.543924
vt 0.497664 0.541324
vt 0.497664 0.543924
vt 0.495064 0.541324
vt 0.497664 0.541324
vt 0.495064 0.543924
vt 0.495064 0.541324
vt 0.497664 0.541324
vt 0.497664 0.543924
vt 0.495064 0.543924
vt 0.495064 0.541324
vt 0.497664 0.541324
vt 0.497664 0.543924
vt 0.495064 0.541324
vt 0.497664 0.541324
vt 0.497664 0.543924
vt 0.495064 0.541324
vt 0.497664 0.541324
vt 0.495064 0.543924
vt 0.497664 0.541324
vt 0.497664 0.543924
vt 0.495064 0.541324
vt 0.497664 0.541324
vt 0.497664 0.543924
vt 0.495064 0.543924
vt 0.495064 0.541324
vt 0.497664 0.541324
vt 0.497664 0.543924
vt 0.495064 0.543924
vt 0.495064 0.541324
vt 0.495064 0.541324
vt 0.497664 0.543924
vt 0.497664 0.541324
vt 0.497664 0.543924
vt 0.495064 0.541324
vt 0.497664 0.541324
vt 0.495064 0.543924
vt 0.495064 0.541324
vt 0.497664 0.541324
vt 0.497664 0.543924
vt 0.495064 0.543924
vt 0.495064 0.541324
vt 0.497664 0.541324
vt 0.497664 0.543924
vt 0.495064 0.543924
vt 0.495064 0.541324
vt 0.497664 0.543924
vt 0.497664 0.541324
vt 0.497664 0.543924
vt 0.495064 0.541324
vt 0.497664 0.541324
vt 0.495064 0.543924
vt 0.495064 0.541324
vt 0.497664 0.541324
vt 0.497664 0.543924
vt 0.495064 0.543924
vt 0.495064 0.541324
vt 0.497664 0.543924
vt 0.497664 0.541324
vt 0.497664 0.543924
vt 0.495064 0.541324
vt 0.497664 0.541324
vt 0.495064 0.543924
vt 0.495064 0.541324
vt 0.497664 0.541324
vt 0.497664 0.543924
vt 0.495064 0.543924
vt 0.495064 0.541324
vt 0.497664 0.543924
vt 0.497664 0.541324
vt 0.497664 0.543924
vt 0.495064 0.541324
vt 0.497664 0.541324
vt 0.495064 0.543924
vt 0.495064 0.541324
vt 0.497664 0.541324
vt 0.497664 0.543924
vt 0.495064 0.543924
vt 0.495064 0.541324
vt 0.497664 0.541324
vt 0.497664 0.543924
vt 0.495064 0.541324
vt 0.497664 0.541324
vt 0.497664 0.543924
vt 0.495064 0.541324
vt 0.497664 0.541324
vt 0.495064 0.543924
vt 0.497664 0.541324
vt 0.497664 0.543924
vt 0.495064 0.541324
vt 0.497664 0.541324
vt 0.497664 0.543924
vt 0.495064 0.543924
vt 0.495064 0.541324
vt 0.497664 0.541324
vt 0.497664 0.543924
vt 0.495064 0.543924
vt 0.495064 0.541324
vt 0.495064 0.541324
vt 0.497664 0.543924
vt 0.497664 0.541324
vt 0.497664 0.543924
vt 0.495064 0.541324
vt 0.497664 0.541324
vt 0.495064 0.543924
vt 0.495064 0.541324
vt 0.497664 0.541324
vt 0.497664 0.543924
vt 0.495064 0.543924
vt 0.495064 0.541324
vt 0.497664 0.541324
vt 0.497664 0.543924
vt 0.495064 0.543924
vt 0.495064 0.541324
vt 0.497664 0.543924
vt 0.497664 0.541324
vt 0.497664 0.543924
vt 0.495064 0.541324
vt 0.497664 0.541324
vt 0.495064 0.543924
vt 0.495064 0.541324
vt 0.497664 0.541324
vt 0.497664 0.543924
vt 0.495064 0.543924
vt 0.495064 0.541324
vt 0.497664 0.543924
vt 0.497664 0.541324
vt 0.497664 0.543924
vt 0.495064 0.541324
vt 0.497664 0.541324
vt 0.495064 0.543924
vt 0.495064 0.541324
vt 0.497664 0.541324
vt 0.497664 0.543924
vt 0.495064 0.543924
vt 0.495064 0.541324
vt 0.497664 0.543924
vt 0.497664 0.541324
vt 0.497664 0.543924
vt 0.495064 0.541324
vt 0.497664 0.541324
vt 0.495064 0.543924
vt 0.495064 0.541324
vt 0.497664 0.541324
vt 0.497664 0.543924
vt 0.495064 0.543924
vt 0.495064 0.541324
vt 0.497664 0.541324
vt 0.497664 0.543924
vt 0.495064 0.541324
vt 0.497664 0.541324
vt 0.497664 0.543924
vt 0.495064 0.541324
vt 0.497664 0.541324
vt 0.495064 0.543924
vt 0.497664 0.541324
vt 0.497664 0.543924
vt 0.495064 0.541324
vt 0.497664 0.541324
vt 0.497664 0.543924
vt 0.495064 0.543924
vt 0.495064 0.541324
vt 0.497664 0.541324
vt 0.497664 0.543924
vt 0.495064 0.543924
vt 0.495064 0.541324
vt 0.495064 0.541324
vt 0.497664 0.543924
vt 0.497664 0.541324
vt 0.497664 0.543924
vt 0.495064 0.541324
vt 0.497664 0.541324
vt 0.495064 0.543924
vt 0.495064 0.541324
vt 0.497664 0.541324
vt 0.497664 0.543924
vt 0.495064 0.543924
vt 0.495064 0.541324
vt 0.497664 0.541324
vt 0.497664 0.543924
vt 0.495064 0.543924
vt 0.495064 0.541324
vt 0.497664 0.543924
vt 0.497664 0.541324
vt 0.497664 0.543924
vt 0.495064 0.541324
vt 0.497664 0.541324
vt 0.495064 0.543924
vt 0.495064 0.541324
vt 0.497664 0.541324
vt 0.497664 0.543924
vt 0.495064 0.543924
vt 0.495064 0.541324
vt 0.497664 0.543924
vt 0.497664 0.541324
vt 0.497664 0.543924
vt 0.495064 0.541324
vt 0.497664 0.541324
vt 0.495064 0.543924
vt 0.495064 0.541324
vt 0.497664 0.541324
vt 0.497664 0.543924
vt 0.495064 0.543924
vt 0.495064 0.541324
vt 0.497664 0.543924
vt 0.497664 0.541324
vt 0.497664 0.543924
vt 0.495064 0.541324
vt 0.497664 0.541324
vt 0.495064 0.543924
vn 0.3276 -0.6045 -0.7262
vn 0.0907 0.9754 -0.2010
vn 0.0907 -0.9754 -0.2010
vn 0.3276 0.6045 -0.7262
vn 0.1828 -0.9831 0.0000
vn 0.7350 0.6781 0.0000
vn 0.7350 -0.6781 0.0000
vn 0.1828 0.9831 0.0000
vn 0.0907 0.9754 0.2010
vn 0.0907 -0.9754 0.2010
vn 0.3276 0.6045 0.7262
vn 0.3276 -0.6045 0.7262
vn -0.3276 -0.6045 0.7262
vn -0.0907 0.9754 0.2010
vn -0.0907 -0.9754 0.2010
vn -0.3276 0.6045 0.7262
vn -0.7350 -0.6781 -0.0000
vn -0.1828 0.9831 -0.0000
vn -0.1828 -0.9831 -0.0000
vn -0.7350 0.6781 -0.0000
vn -0.3276 -0.6045 -0.7262
vn -0.0907 0.9754 -0.2010
vn -0.0907 -0.9754 -0.2010
vn -0.3276 0.6045 -0.7262
vn 0.3520 -0.5544 -0.7542
vn 0.1055 0.9684 -0.2260
vn 0.1055 -0.9684 -0.2260
vn 0.3520 0.5544 -0.7542
vn 0.2129 -0.9771 0.0000
vn 0.7857 0.6187 0.0000
vn 0.7857 -0.6187 0.0000
vn 0.2129 0.9771 0.0000
vn 0.1055 0.9684 0.2260
vn 0.1055 -0.9684 0.2260
vn 0.3520 0.5544 0.7542
vn 0.3520 -0.5544 0.7542
vn -0.3520 -0.5544 0.7542
vn -0.1055 0.9684 0.2260
vn -0.1055 -0.9684 0.2260
vn -0.3520 0.5544 0.7542
vn -0.7857 -0.6187 -0.0000
vn -0.2129 0.9771 -0.0000
vn -0.2129 -0.9771 -0.0000
vn -0.7857 0.6187 -0.0000
vn -0.3520 -0.5544 -0.7542
vn -0.1055 0.9684 -0.2260
vn -0.1055 -0.9684 -0.2260
vn -0.3520 0.5544 -0.7542
vn 0.2742 -0.4318 -0.8593
vn 0.1026 0.9414 -0.3214
vn 0.1026 -0.9414 -0.3214
vn 0.2742 0.4318 -0.8593
vn 0.1026 0.9414 0.3214
vn 0.1026 -0.9414 0.3214
vn 0.2742 0.4318 0.8593
vn 0.2742 -0.4318 0.8593
vn -0.2742 -0.4318 0.8593
vn -0.1026 0.9414 0.3214
vn -0.1026 -0.9414 0.3214
vn -0.2742 0.4318 0.8593
vn -0.2742 -0.4318 -0.8593
vn -0.1026 0.9414 -0.3214
vn -0.1026 -0.9414 -0.3214
vn -0.2742 0.4318 -0.8593
s off
f 3/1/1 2/2/1 6/3/1 7/4/1
f 1/5/2 11/6/2 5/7/2
f 4/8/3 3/9/3 7/10/3
f 2/11/4 1/12/4 5/7/4 6/13/4
f 4/8/5 7/14/5 10/15/5
f 6/16/6 5/17/6 8/18/6 9/19/6
f 7/20/7 6/21/7 9/22/7 10/23/7
f 5/24/8 11/6/8 8/18/8
f 8/25/9 11/6/9 12/26/9
f 4/8/10 10/27/10 14/28/10
f 9/29/11 8/30/11 12/26/11 13/31/11
f 10/32/12 9/33/12 13/34/12 14/35/12
f 14/36/13 13/37/13 16/38/13 17/39/13
f 12/40/14 11/6/14 15/41/14
f 4/8/15 14/42/15 17/43/15
f 13/44/16 12/45/16 15/41/16 16/46/16
f 17/47/17 16/48/17 19/49/17 20/50/17
f 15/51/18 11/6/18 18/52/18
f 4/8/19 17/53/19 20/54/19
f 16/55/20 15/56/20 18/52/20 19/57/20
f 20/58/21 19/59/21 2/60/21 3/61/21
f 18/62/22 11/6/22 1/63/22
f 4/8/23 20/64/23 3/65/23
f 19/66/24 18/67/24 1/63/24 2/68/24
f 23/69/25 22/70/25 26/71/25 27/72/25
f 21/73/26 31/74/26 25/75/26
f 24/76/27 23/77/27 27/78/27
f 22/79/28 21/80/28 25/75/28 26/81/28
f 24/76/29 27/82/29 30/83/29
f 26/84/30 25/85/30 28/86/30 29/87/30
f 27/88/31 26/89/31 29/90/31 30/91/31
f 25/92/32 31/74/32 28/86/32
f 28/93/33 31/74/33 32/94/33
f 24/76/34 30/95/34 34/96/34
f 29/97/35 28/98/35 32/94/35 33/99/35
f 30/100/36 29/101/36 33/102/36 34/103/36
f 34/104/37 33/105/37 36/106/37 37/107/37
f 32/108/38 31/74/38 35/109/38
f 24/76/39 34/110/39 37/111/39
f 33/112/40 32/113/40 35/109/40 36/114/40
f 37/115/41 36/116/41 39/117/41 40/118/41
f 35/119/42 31/74/42 38/120/42
f 24/76/43 37/121/43 40/122/43
f 36/123/44 35/124/44 38/120/44 39/125/44
f 40/126/45 39/127/45 22/128/45 23/129/45
f 38/130/46 31/74/46 21/131/46
f 24/76/47 40/132/47 23/133/47
f 39/134/48 38/135/48 21/131/48 22/136/48
f 43/137/49 42/138/49 46/139/49 47/140/49
f 41/141/50 51/142/50 45/143/50
f 44/144/51 43/145/51 47/146/51
f 42/147/52 41/148/52 45/143/52 46/149/52
f 44/144/29 47/150/29 50/151/29
f 46/152/30 45/153/30 48/154/30 49/155/30
f 47/156/31 46/157/31 49/158/31 50/159/31
f 45/160/32 51/142/32 48/154/32
f 48/161/53 51/142/53 52/162/53
f 44/144/54 50/163/54 54/164/54
f 49/165/55 48/166/55 52/162/55 53/167/55
f 50/168/56 49/169/56 53/170/56 54/171/56
f 54/172/57 53/173/57 56/174/57 57/175/57
f 52/176/58 51/142/58 55/177/58
f 44/144/59 54/178/59 57/179/59
f 53/180/60 52/181/60 55/177/60 56/182/60
f 57/183/41 56/184/41 59/185/41 60/186/41
f 55/187/42 51/142/42 58/188/42
f 44/144/43 57/189/43 60/190/43
f 56/191/44 55/192/44 58/188/44 59/193/44
f 60/194/61 59/195/61 42/196/61 43/197/61
f 58/198/62 51/142/62 41/199/62
f 44/144/63 60/200/63 43/201/63
f 59/202/64 58/203/64 41/199/64 42/204/64
f 63/205/49 62/206/49 66/207/49 67/208/49
f 61/209/50 71/210/50 65/211/50
f 64/212/51 63/213/51 67/214/51
f 62/215/52 61/216/52 65/211/52 66/217/52
f 64/212/29 67/218/29 70/219/29
f 66/220/30 65/221/30 68/222/30 69/223/30
f 67/224/31 66/225/31 69/226/31 70/227/31
f 65/228/32 71/210/32 68/222/32
f 68/229/53 71/210/53 72/230/53
f 64/212/54 70/231/54 74/232/54
f 69/233/55 68/234/55 72/230/55 73/235/55
f 70/236/56 69/237/56 73/238/56 74/239/56
f 74/240/57 73/241/57 76/242/57 77/243/57
f 72/244/58 71/210/58 75/245/58
f 64/212/59 74/246/59 77/247/59
f 73/248/60 72/249/60 75/245/60 76/250/60
f 77/251/41 76/252/41 79/253/41 80/254/41
f 75/255/42 71/210/42 78/256/42
f 64/212/43 77/257/43 80/258/43
f 76/259/44 75/260/44 78/256/44 79/261/44
f 80/262/61 79/263/61 62/264/61 63/265/61
f 78/266/62 71/210/62 61/267/62
f 64/212/63 80/268/63 63/269/63
f 79/270/64 78/271/64 61/267/64 62/272/64
f 83/273/1 82/274/1 86/275/1 87/276/1
f 81/277/2 91/278/2 85/279/2
f 84/280/3 83/281/3 87/282/3
f 82/283/4 81/284/4 85/279/4 86/285/4
f 84/280/5 87/286/5 90/287/5
f 86/288/6 85/289/6 88/290/6 89/291/6
f 87/292/7 86/293/7 89/294/7 90/295/7
f 85/296/8 91/278/8 88/290/8
f 88/297/9 91/278/9 92/298/9
f 84/280/10 90/299/10 94/300/10
f 89/301/11 88/302/11 92/298/11 93/303/11
f 90/304/12 89/305/12 93/306/12 94/307/12
f 94/308/13 93/309/13 96/310/13 97/311/13
f 92/312/14 91/278/14 95/313/14
f 84/280/15 94/314/15 97/315/15
f 93/316/16 92/317/16 95/313/16 96/318/16
f 97/319/17 96/320/17 99/321/17 100/322/17
f 95/323/18 91/278/18 98/324/18
f 84/280/19 97/325/19 100/326/19
f 96/327/20 95/328/20 98/324/20 99/329/20
f 100/330/21 99/331/21 82/332/21 83/333/21
f 98/334/22 91/278/22 81/335/22
f 84/280/23 100/336/23 83/337/23
f 99/338/24 98/339/24 81/335/24 82/340/24
