# Blender v2.79 (sub 0) OBJ File: 'lowPolyTrees.blend'
# www.blender.org
g forest_hut4
v 0.406493 3.087483 -1.673915
v 0.406493 3.117483 -1.673915
v 0.406493 3.317483 -1.373915
v 0.406493 3.117483 -1.073915
v 0.406493 3.087483 -1.073915
v 0.406493 3.287483 -1.373915
v -2.473507 3.072845 -0.173914
v -2.473506 1.970931 -1.834254
v -2.473506 1.900963 -1.783267
v -2.473507 2.977483 -0.173914
v -2.473509 1.977483 1.326086
v -2.473509 1.977484 1.576086
v -2.473509 2.072445 1.576086
v -2.473509 2.072444 1.326086
v 2.066493 1.429860 0.067840
v 2.066493 1.429860 -0.173915
v 2.066493 1.429860 -0.415670
v 2.036493 1.429860 -0.415670
v 2.036493 1.429860 0.067840
v -0.073507 3.087483 -1.073915
v -0.073507 3.117483 -1.073915
v -0.073507 3.317483 -1.373915
v -0.073507 3.117483 -1.673915
v -0.073507 3.087483 -1.673915
v -0.073507 3.287483 -1.373915
v 2.166493 3.007483 -0.173914
v 2.166494 1.946466 -1.765440
v 2.166494 1.971427 -1.782081
v 2.166493 3.042846 -0.173914
v 2.166492 2.042444 1.326086
v 2.166491 2.042444 1.526085
v 2.166491 2.007483 1.526085
v 2.166492 2.007483 1.326086
v 0.030106 3.034137 -1.521068
v 0.300188 3.034137 -1.521068
v 0.429147 3.034137 -1.634195
v -0.098853 3.034137 -1.634195
v -0.098853 3.034137 -1.106195
v 0.030106 3.034137 -1.219323
v 1.211528 1.619940 -1.633916
v 0.414838 1.619940 -1.633916
v 0.414838 1.619940 -1.673916
v 1.211528 1.619940 -1.673916
v 2.066493 1.957229 0.067841
v 2.066493 2.137483 1.126086
v 2.066492 2.007483 1.326086
v 2.066493 0.007483 1.326084
v 2.066493 0.007483 -0.173916
v -1.478540 0.595026 -1.673916
v -0.681851 0.595026 -1.673916
v 0.414838 0.595026 -1.673916
v 1.211527 0.595026 -1.673916
v 1.899827 0.007483 -1.673916
v -2.166840 0.007483 -1.673916
v -0.681852 0.595026 1.286084
v -0.681853 1.619940 1.286085
v -1.478542 1.619940 1.286085
v -1.478541 0.595026 1.286084
v -1.478542 1.619940 1.326084
v -1.478541 0.595026 1.326084
v -0.681852 0.595026 1.326084
v -0.681853 1.619940 1.326084
v -0.681851 1.619940 -1.633916
v -0.681851 0.595026 -1.633916
v -1.478540 0.595026 -1.633916
v -1.478540 1.619940 -1.633916
v 1.211527 0.595026 -1.633916
v 0.414838 0.595026 -1.633916
v -2.333508 2.007483 1.326085
v -2.433508 2.007483 1.326084
v -2.433507 3.007483 -0.173915
v -2.333508 3.007483 -0.173915
v -2.333508 2.137483 1.126085
v -2.433507 1.971427 -1.782081
v -2.433507 3.042846 -0.173916
v -2.433508 2.007483 1.526083
v -2.433507 1.946466 -1.765441
v -2.433508 2.042444 1.526083
v 2.066493 3.007483 -0.173914
v -2.433508 2.042444 1.326084
v 0.300188 3.034137 -1.219323
v 0.429147 3.034137 -1.106195
v 2.166494 1.970931 -1.834254
v 2.166493 3.072845 -0.173914
v 2.206493 3.072845 -0.173914
v 2.206494 1.970931 -1.834254
v 2.166492 2.072444 1.326086
v 2.206492 2.072444 1.326086
v 2.166494 1.900963 -1.783267
v 2.206494 1.900963 -1.783267
v 2.166491 2.072445 1.576086
v 2.206491 2.072445 1.576086
v 2.166491 1.977484 1.576086
v 2.166492 1.977483 1.326086
v 2.206492 1.977483 1.326086
v 2.206491 1.977484 1.576086
v 2.166493 2.977483 -0.173914
v 2.206493 2.977483 -0.173914
v -2.433507 3.072845 -0.173914
v -2.433506 1.970931 -1.834254
v -2.433509 2.072444 1.326086
v -2.433506 1.900963 -1.783267
v -2.433509 2.072445 1.576086
v -2.433509 1.977483 1.326086
v -2.433509 1.977484 1.576086
v -2.433507 2.977483 -0.173914
v 2.036493 1.957229 0.067841
v 2.066493 1.957229 -0.415670
v 2.066493 0.007483 -1.673916
v 2.066494 2.007483 -1.673914
v 2.036493 1.957229 -0.415670
v -2.303507 2.163533 0.067840
v -2.303507 2.690902 0.067840
v -2.303507 2.690902 -0.415671
v -2.303507 2.163533 -0.415671
v -1.478540 1.619940 -1.673916
v -0.681851 1.619940 -1.673916
v -2.333507 2.163533 0.067840
v -2.333507 2.690902 0.067840
v -2.333507 2.690902 -0.415671
v -2.333507 2.163533 -0.415671
v -2.333507 0.007483 0.226084
v -2.333507 1.467483 0.226085
v -2.233507 1.467483 0.226085
v -2.233507 0.007483 0.226084
v -2.333507 0.007483 1.126084
v -2.333507 2.007483 -1.673915
v -2.333506 0.007483 -1.673916
v -2.333507 0.007483 -0.573916
v -2.333507 1.467483 -0.573916
v -0.098853 2.006137 -1.106195
v -0.098853 2.006137 -1.634195
v 0.429147 2.006137 -1.634195
v 0.429147 2.006137 -1.106195
v 0.030106 2.414137 -1.521068
v 0.300188 2.414137 -1.521068
v -2.233507 1.467483 -0.573916
v -2.233507 0.007483 -0.573916
v -2.333507 0.007483 1.326084
v 0.030106 2.414137 -1.219323
v 0.300188 2.414137 -1.219323
v 0.345147 3.020137 -1.150195
v 0.345147 3.160137 -1.150195
v 0.345147 3.160137 -1.190195
v 0.345147 3.020137 -1.190195
v 0.385147 3.160137 -1.190195
v 0.385147 3.020137 -1.190195
v 0.385147 3.160137 -1.150195
v 0.385147 3.020137 -1.150195
v -0.044853 3.020137 -1.150195
v -0.044853 3.160137 -1.150195
v -0.044853 3.160137 -1.190195
v -0.044853 3.020137 -1.190195
v -0.004853 3.160137 -1.190195
v -0.004853 3.020137 -1.190195
v -0.004853 3.160137 -1.150195
v -0.004853 3.020137 -1.150195
v 0.345147 3.020137 -1.560195
v 0.345147 3.160137 -1.560195
v 0.345147 3.160137 -1.600195
v 0.345147 3.020137 -1.600195
v 0.385147 3.160137 -1.600195
v 0.385147 3.020137 -1.600195
v 0.385147 3.160137 -1.560195
v 0.385147 3.020137 -1.560195
v -0.044853 3.020137 -1.560195
v -0.044853 3.160137 -1.560195
v -0.044853 3.160137 -1.600195
v -0.044853 3.020137 -1.600195
v -0.004853 3.160137 -1.600195
v -0.004853 3.020137 -1.600195
v -0.004853 3.160137 -1.560195
v -0.004853 3.020137 -1.560195
v 1.813535 1.247911 2.904659
v 1.813535 1.292340 2.917314
v -0.437615 1.292340 2.917314
v -0.437615 1.247911 2.904659
v 1.813536 1.672045 1.321772
v 1.813536 1.716474 1.334427
v 1.816546 1.731655 1.297084
v 1.816546 1.677568 1.281841
v -0.437615 1.672045 1.321772
v -0.437615 1.716474 1.334427
v 1.816546 1.286817 2.957244
v -0.440625 1.731655 1.297084
v -0.440625 1.677568 1.281841
v -0.470526 1.677568 1.281841
v -0.470526 1.731655 1.297084
v 1.816545 1.232728 2.942001
v 1.846447 1.677568 1.281841
v 1.846447 1.232728 2.942001
v -0.440625 1.286817 2.957244
v -0.440625 1.232728 2.942001
v -0.470527 1.232728 2.942001
v -0.470527 1.286817 2.957244
v 1.846447 1.731655 1.297084
v 1.846447 1.286817 2.957244
v -0.233507 -0.596974 2.626085
v -0.233507 1.307482 2.626085
v -0.233507 1.307482 2.726085
v -0.233507 -0.596974 2.726085
v -0.333507 -0.596974 2.726085
v -0.333507 1.307482 2.726085
v -0.333507 1.307482 2.626085
v -0.333507 -0.596974 2.626085
v 1.716493 -0.596974 2.626085
v 1.716493 1.307482 2.626085
v 1.716493 1.307482 2.726085
v 1.716493 -0.596974 2.726085
v 1.616493 -0.596974 2.726085
v 1.616493 1.307482 2.726085
v 1.616493 1.307482 2.626085
v 1.616493 -0.596974 2.626085
vt 0.497147 0.464127
vt 0.497147 0.464127
vt 0.497147 0.464127
vt 0.497147 0.464127
vt 0.497147 0.464127
vt 0.497147 0.464127
vt 0.559002 0.448805
vt 0.559793 0.448805
vt 0.559793 0.448764
vt 0.559002 0.448759
vt 0.558278 0.448761
vt 0.558157 0.448761
vt 0.558157 0.448807
vt 0.558278 0.448807
vt 0.605183 0.448627
vt 0.605166 0.448620
vt 0.605151 0.448612
vt 0.605153 0.448611
vt 0.605182 0.448624
vt 0.497147 0.464127
vt 0.497147 0.464127
vt 0.497147 0.464127
vt 0.497147 0.464127
vt 0.497147 0.464127
vt 0.497147 0.464127
vt 0.605430 0.448486
vt 0.605729 0.448451
vt 0.605719 0.448458
vt 0.605433 0.448492
vt 0.605271 0.448708
vt 0.605266 0.448721
vt 0.605263 0.448721
vt 0.605267 0.448707
vt 0.498003 0.324858
vt 0.498075 0.324858
vt 0.498109 0.324888
vt 0.497969 0.324888
vt 0.497969 0.324748
vt 0.498003 0.324778
vt 0.604713 0.449280
vt 0.604623 0.449261
vt 0.604597 0.449256
vt 0.604729 0.449311
vt 0.605220 0.448589
vt 0.605268 0.448685
vt 0.605256 0.448705
vt 0.605199 0.448731
vt 0.605137 0.448709
vt 0.604419 0.449278
vt 0.604515 0.449312
vt 0.604640 0.449313
vt 0.604773 0.449270
vt 0.604887 0.449227
vt 0.604296 0.449227
vt 0.528925 0.252848
vt 0.528954 0.252852
vt 0.528950 0.252878
vt 0.528923 0.252869
vt 0.605236 0.448819
vt 0.605206 0.448810
vt 0.605207 0.448809
vt 0.605235 0.448818
vt 0.605208 0.448786
vt 0.605239 0.448791
vt 0.605238 0.448792
vt 0.605209 0.448788
vt 0.528239 0.253335
vt 0.528218 0.253375
vt 0.528156 0.253348
vt 0.528202 0.253340
vt 0.528429 0.253340
vt 0.528462 0.253350
vt 0.528372 0.253380
vt 0.528338 0.253321
vt 0.604440 0.449288
vt 0.604502 0.449314
vt 0.604656 0.449319
vt 0.604747 0.449290
vt 0.567159 0.474253
vt 0.567171 0.474250
vt 0.567316 0.474469
vt 0.567302 0.474478
vt 0.567174 0.474275
vt 0.566983 0.473099
vt 0.567269 0.473066
vt 0.567229 0.473780
vt 0.566956 0.473681
vt 0.566796 0.473470
vt 0.566807 0.473313
vt 0.566817 0.473315
vt 0.566813 0.473328
vt 0.566803 0.473453
vt 0.566807 0.473467
vt 0.567280 0.473059
vt 0.567244 0.473791
vt 0.566816 0.473329
vt 0.566805 0.473452
vt 0.567170 0.474095
vt 0.567182 0.474075
vt 0.567330 0.473866
vt 0.567344 0.473877
vt 0.567181 0.474098
vt 0.566821 0.473316
vt 0.566812 0.473466
vt 0.498075 0.324778
vt 0.498109 0.324748
vt 0.605257 0.448859
vt 0.605252 0.448845
vt 0.605255 0.448844
vt 0.605261 0.448859
vt 0.605406 0.449073
vt 0.605679 0.449172
vt 0.605694 0.449184
vt 0.605402 0.449078
vt 0.558783 0.448621
vt 0.558747 0.448604
vt 0.558747 0.448603
vt 0.558783 0.448620
vt 0.558705 0.448612
vt 0.558705 0.448611
vt 0.558782 0.448623
vt 0.558782 0.448624
vt 0.558701 0.448617
vt 0.558701 0.448617
vt 0.558701 0.448620
vt 0.558705 0.448623
vt 0.558705 0.448624
vt 0.558700 0.448621
vt 0.558747 0.448607
vt 0.558747 0.448608
vt 0.558783 0.448641
vt 0.558747 0.448625
vt 0.558747 0.448624
vt 0.558783 0.448641
vt 0.558705 0.448632
vt 0.558705 0.448632
vt 0.558782 0.448644
vt 0.558782 0.448645
vt 0.558701 0.448638
vt 0.558701 0.448638
vt 0.558701 0.448641
vt 0.558705 0.448644
vt 0.558705 0.448645
vt 0.558700 0.448641
vt 0.558747 0.448627
vt 0.558747 0.448628
vt 0.605214 0.448592
vt 0.559002 0.448805
vt 0.559793 0.448805
vt 0.559793 0.448764
vt 0.559002 0.448759
vt 0.558278 0.448761
vt 0.558157 0.448761
vt 0.558157 0.448807
vt 0.558278 0.448807
vt 0.559002 0.448759
vt 0.559793 0.448764
vt 0.559793 0.448805
vt 0.559002 0.448805
vt 0.558278 0.448807
vt 0.558157 0.448807
vt 0.558157 0.448761
vt 0.558278 0.448761
vt 0.605161 0.448562
vt 0.605078 0.448692
vt 0.604936 0.448451
vt 0.605415 0.448475
vt 0.528869 0.252671
vt 0.528879 0.252627
vt 0.528930 0.252652
vt 0.528897 0.252684
vt 0.605163 0.448567
vt 0.528961 0.253045
vt 0.529028 0.253076
vt 0.528994 0.253140
vt 0.528932 0.253096
vt 0.604523 0.449275
vt 0.604486 0.449279
vt 0.604486 0.449298
vt 0.604531 0.449269
vt 0.605242 0.448979
vt 0.605318 0.449012
vt 0.605312 0.449015
vt 0.605245 0.448985
vt 0.605281 0.449087
vt 0.605211 0.449038
vt 0.605216 0.449036
vt 0.605278 0.449080
vt 0.605158 0.448848
vt 0.605196 0.448923
vt 0.605187 0.448919
vt 0.605152 0.448847
vt 0.605181 0.448828
vt 0.605259 0.448884
vt 0.605388 0.449087
vt 0.604939 0.449211
vt 0.605056 0.448881
vt 0.605114 0.448858
vt 0.605138 0.448962
vt 0.498277 0.324683
vt 0.498277 0.324900
vt 0.498183 0.324900
vt 0.498183 0.324683
vt 0.498119 0.324683
vt 0.498025 0.324900
vt 0.498025 0.324683
vt 0.497961 0.324900
vt 0.497961 0.324683
vt 0.496637 0.324023
vt 0.496637 0.324023
vt 0.496637 0.324023
vt 0.496637 0.324023
vt 0.496637 0.324023
vt 0.496637 0.324023
vt 0.496637 0.324023
vt 0.496637 0.324023
vt 0.551272 0.449339
vt 0.551254 0.449248
vt 0.551283 0.449234
vt 0.551318 0.449306
vt 0.605188 0.448824
vt 0.605245 0.448862
vt 0.496637 0.324023
vt 0.496637 0.324023
vt 0.496637 0.324023
vt 0.496637 0.324023
vt 0.497147 0.464127
vt 0.497147 0.464127
vt 0.497147 0.464127
vt 0.497147 0.464127
vt 0.497147 0.464127
vt 0.497147 0.464127
vt 0.497147 0.464127
vt 0.497147 0.464127
vt 0.497147 0.464127
vt 0.497147 0.464127
vt 0.497147 0.464127
vt 0.497147 0.464127
vt 0.497147 0.464127
vt 0.497147 0.464127
vt 0.497147 0.464127
vt 0.497147 0.464127
vt 0.497147 0.464127
vt 0.497147 0.464127
vt 0.497147 0.464127
vt 0.497147 0.464127
vt 0.497147 0.464127
vt 0.497147 0.464127
vt 0.497147 0.464127
vt 0.497147 0.464127
vt 0.497147 0.464127
vt 0.497147 0.464127
vt 0.497147 0.464127
vt 0.497147 0.464127
vt 0.497147 0.464127
vt 0.497147 0.464127
vt 0.497147 0.464127
vt 0.497147 0.464127
vt 0.559002 0.448759
vt 0.559793 0.448764
vt 0.559793 0.448805
vt 0.559002 0.448805
vt 0.558278 0.448807
vt 0.558157 0.448807
vt 0.558157 0.448761
vt 0.558278 0.448761
vt 0.605123 0.448860
vt 0.605141 0.448952
vt 0.566730 0.472469
vt 0.566730 0.472460
vt 0.566116 0.472460
vt 0.566116 0.472469
vt 0.558156 0.447678
vt 0.558156 0.447678
vt 0.558156 0.447678
vt 0.558156 0.447678
vt 0.558156 0.447678
vt 0.558156 0.447678
vt 0.559425 0.448632
vt 0.558515 0.448632
vt 0.558470 0.448638
vt 0.559471 0.448638
vt 0.566116 0.472787
vt 0.566730 0.472787
vt 0.566116 0.472778
vt 0.566730 0.472778
vt 0.558156 0.447678
vt 0.558156 0.447678
vt 0.558156 0.447678
vt 0.558156 0.447678
vt 0.558471 0.448574
vt 0.559471 0.448574
vt 0.559471 0.448574
vt 0.558471 0.448574
vt 0.558515 0.448632
vt 0.559425 0.448632
vt 0.559471 0.448638
vt 0.558470 0.448638
vt 0.558516 0.448579
vt 0.558471 0.448574
vt 0.558516 0.448579
vt 0.559426 0.448579
vt 0.559426 0.448579
vt 0.559471 0.448574
vt 0.558471 0.448574
vt 0.558470 0.448638
vt 0.559471 0.448638
vt 0.559471 0.448574
vt 0.559471 0.448638
vt 0.558470 0.448638
vt 0.558156 0.447678
vt 0.558156 0.447678
vt 0.558156 0.447678
vt 0.558156 0.447678
vt 0.604298 0.448559
vt 0.605992 0.448559
vt 0.605992 0.448689
vt 0.604298 0.448689
vt 0.604298 0.448689
vt 0.605992 0.448689
vt 0.605992 0.448559
vt 0.604298 0.448559
vt 0.605901 0.448691
vt 0.604296 0.448691
vt 0.604296 0.448814
vt 0.605901 0.448814
vt 0.605901 0.448814
vt 0.604296 0.448814
vt 0.604296 0.448691
vt 0.605901 0.448691
vt 0.566210 0.473068
vt 0.566210 0.473068
vt 0.566210 0.473068
vt 0.566210 0.473068
vt 0.604296 0.447678
vt 0.604296 0.447678
vt 0.604296 0.447678
vt 0.604296 0.447678
vt 0.604298 0.448559
vt 0.605992 0.448559
vt 0.605992 0.448689
vt 0.604298 0.448689
vt 0.604298 0.448689
vt 0.605992 0.448689
vt 0.605992 0.448559
vt 0.604298 0.448559
vt 0.605902 0.448565
vt 0.604297 0.448565
vt 0.604297 0.448689
vt 0.605902 0.448689
vt 0.605902 0.448689
vt 0.604297 0.448689
vt 0.604297 0.448565
vt 0.605902 0.448565
vt 0.566210 0.473068
vt 0.566210 0.473068
vt 0.566210 0.473068
vt 0.566210 0.473068
vt 0.604296 0.447678
vt 0.604296 0.447678
vt 0.604296 0.447678
vt 0.604296 0.447678
vt 0.567037 0.472723
vt 0.567037 0.472723
vt 0.567046 0.472726
vt 0.565940 0.473413
vt 0.567038 0.472706
vt 0.567038 0.472705
vt 0.567024 0.472705
vt 0.567024 0.472726
vn 1.0000 -0.0000 0.0000
vn -1.0000 0.0000 -0.0000
vn 0.0000 1.0000 0.0000
vn 0.6052 -0.7960 0.0000
vn 0.5774 -0.8006 -0.1601
vn 0.0000 -1.0000 0.0000
vn 0.0000 0.0000 -1.0000
vn 0.0000 -0.0000 1.0000
vn -0.0139 -0.8320 -0.5546
vn -0.6052 -0.7960 0.0000
vn -0.6049 -0.7963 0.0000
vn 0.0000 0.8322 -0.5545
vn 0.0000 -0.5547 -0.8321
vn -0.5773 -0.8006 -0.1601
vn 0.0139 -0.8320 -0.5546
vn 0.6049 -0.7963 0.0000
vn -0.0000 0.8319 0.5549
vn 0.0000 0.8332 -0.5530
vn 0.0000 -0.5889 -0.8082
vn 0.0000 -0.8321 -0.5547
vn 0.0000 -0.8312 0.5560
vn 0.8244 -0.4991 -0.2671
vn -0.8244 -0.4991 -0.2671
vn 0.0000 -0.8320 -0.5547
vn 0.0000 0.8321 0.5547
vn 0.0000 0.8321 -0.5547
vn 0.0000 -0.8321 0.5547
vn 0.0000 -0.2739 0.9617
vn -0.9972 0.0204 -0.0722
vn 0.0000 0.2740 -0.9617
vn -0.8567 0.4983 0.1335
vn 0.0000 -0.9659 -0.2588
vn 0.0000 0.9659 0.2588
vn 0.0000 0.2713 -0.9625
vn 0.8567 0.4982 0.1335
vn 0.9972 -0.0204 0.0722
vn -0.9972 -0.0204 0.0722
vn -0.8568 -0.4981 -0.1335
vn 0.9972 0.0204 -0.0722
vn 0.8568 -0.4982 -0.1335
vn 0.0000 -0.2713 0.9625
s 1
f 1/1/1 2/2/1 3/3/1 4/4/1 5/5/1 6/6/1
f 7/7/2 8/8/2 9/9/2 10/10/2 11/11/2 12/12/2 13/13/2 14/14/2
f 15/15/3 16/16/3 17/17/3 18/18/3 19/19/3
f 20/20/2 21/21/2 22/22/2 23/23/2 24/24/2 25/25/2
f 26/26/4 27/27/5 28/28/1 29/29/1 30/30/1 31/31/1 32/32/1 33/33/1
f 34/34/3 35/35/3 36/36/3 37/37/3 38/38/3 39/39/3
f 40/40/6 41/41/6 42/42/6 43/43/6
f 15/15/1 44/44/1 45/45/1 46/46/1 47/47/1 48/48/1 16/16/1
f 49/49/7 50/50/7 51/51/7 52/52/7 53/53/7 54/54/7
f 55/55/8 56/56/8 57/57/8 58/58/8
f 59/59/1 60/60/1 58/61/1 57/62/1
f 61/63/2 62/64/2 56/65/2 55/66/2
f 62/64/6 59/59/6 57/62/6 56/65/6
f 60/60/3 61/63/3 55/66/3 58/61/3
f 63/67/7 64/68/7 65/69/7 66/70/7
f 40/71/7 67/72/7 68/73/7 41/74/7
f 50/50/3 49/49/3 65/75/3 64/76/3
f 52/52/3 51/51/3 68/77/3 67/78/3
f 69/79/9 70/80/9 71/81/10 72/82/11 73/83/9
f 29/84/12 28/85/12 74/86/12 75/87/12
f 69/88/6 46/89/6 33/90/6 32/91/6 76/92/6 70/93/6
f 74/86/13 28/85/13 27/94/5 77/95/14
f 76/92/8 32/91/8 31/96/8 78/97/8
f 46/98/15 45/99/15 79/100/16 26/101/4 33/102/15
f 30/103/3 80/104/3 78/97/3 31/96/3
f 75/87/17 80/104/17 30/103/17 29/84/17
f 81/105/3 39/39/3 38/38/3 82/106/3 36/36/3 35/35/3
f 70/107/2 76/108/2 78/109/2 80/110/2 75/111/2 74/112/2 77/113/14 71/114/10
f 83/115/18 84/116/18 85/117/18 86/118/18
f 84/116/17 87/119/17 88/120/17 85/117/17
f 89/121/19 83/115/19 86/118/19 90/122/19
f 87/119/3 91/123/3 92/124/3 88/120/3
f 93/125/6 94/126/6 95/127/6 96/128/6
f 94/126/20 97/129/20 98/130/20 95/127/20
f 97/129/21 89/121/21 90/122/21 98/130/21
f 91/123/8 93/125/8 96/128/8 92/124/8
f 8/131/18 7/132/18 99/133/18 100/134/18
f 7/132/17 14/135/17 101/136/17 99/133/17
f 9/137/19 8/131/19 100/134/19 102/138/19
f 14/135/3 13/139/3 103/140/3 101/136/3
f 12/141/6 11/142/6 104/143/6 105/144/6
f 11/142/20 10/145/20 106/146/20 104/143/20
f 10/145/21 9/137/21 102/138/21 106/146/21
f 13/139/8 12/141/8 105/144/8 103/140/8
f 44/44/7 15/15/7 19/19/7 107/147/7
f 84/148/2 83/149/2 89/150/2 97/151/2 94/152/2 93/153/2 91/154/2 87/155/2
f 106/156/1 102/157/1 100/158/1 99/159/1 101/160/1 103/161/1 105/162/1 104/163/1
f 108/164/1 17/17/1 16/16/1 48/48/1 109/165/1 110/166/22 79/167/16 45/45/1 44/44/1
f 18/168/1 111/169/1 107/170/1 19/171/1
f 108/164/6 44/44/6 107/147/6 111/172/6
f 17/17/8 108/164/8 111/172/8 18/18/8
f 112/173/2 113/174/2 114/175/2 115/176/2
f 63/177/6 66/178/6 116/179/6 117/180/6
f 118/181/7 119/182/7 113/183/7 112/184/7
f 120/185/8 121/186/8 115/187/8 114/188/8
f 122/189/7 123/190/7 124/191/7 125/192/7
f 123/190/2 122/189/2 126/193/2 118/181/2 121/186/2 120/185/2 119/182/2 73/194/2 72/195/11 127/196/23 128/197/2 129/198/2 130/199/2
f 131/200/2 38/201/2 37/202/2 132/203/2
f 132/203/7 37/202/7 36/36/7 133/204/7
f 133/204/1 36/36/1 82/205/1 134/206/1
f 134/206/8 82/205/8 38/207/8 131/208/8
f 132/209/6 133/210/6 134/211/6 131/212/6
f 35/213/8 34/214/8 135/215/8 136/216/8
f 137/217/2 138/218/2 125/219/2 124/220/2
f 119/182/2 118/181/2 126/193/2 139/221/2 69/222/2 73/194/2
f 136/216/3 135/215/3 140/223/3 141/224/3
f 81/225/2 35/213/2 136/216/2 141/224/2
f 34/214/1 39/226/1 140/223/1 135/215/1
f 39/226/7 81/225/7 141/224/7 140/223/7
f 119/182/6 120/185/6 114/188/6 113/183/6
f 24/24/7 23/23/7 2/2/7 1/1/7
f 121/186/3 118/181/3 112/184/3 115/187/3
f 5/5/8 4/4/8 21/21/8 20/20/8
f 25/25/24 6/6/24 5/5/24 20/20/24
f 3/3/25 22/22/25 21/21/25 4/4/25
f 2/2/26 23/23/26 22/22/26 3/3/26
f 24/24/27 1/1/27 6/6/27 25/25/27
f 142/227/2 143/228/2 144/229/2 145/230/2
f 145/230/7 144/229/7 146/231/7 147/232/7
f 147/232/1 146/231/1 148/233/1 149/234/1
f 149/234/8 148/233/8 143/228/8 142/227/8
f 145/230/6 147/232/6 149/234/6 142/227/6
f 146/231/3 144/229/3 143/228/3 148/233/3
f 150/235/2 151/236/2 152/237/2 153/238/2
f 153/238/7 152/237/7 154/239/7 155/240/7
f 155/240/1 154/239/1 156/241/1 157/242/1
f 157/242/8 156/241/8 151/236/8 150/235/8
f 153/238/6 155/240/6 157/242/6 150/235/6
f 154/239/3 152/237/3 151/236/3 156/241/3
f 158/243/2 159/244/2 160/245/2 161/246/2
f 161/246/7 160/245/7 162/247/7 163/248/7
f 163/248/1 162/247/1 164/249/1 165/250/1
f 165/250/8 164/249/8 159/244/8 158/243/8
f 161/246/6 163/248/6 165/250/6 158/243/6
f 162/247/3 160/245/3 159/244/3 164/249/3
f 166/251/2 167/252/2 168/253/2 169/254/2
f 169/254/7 168/253/7 170/255/7 171/256/7
f 171/256/1 170/255/1 172/257/1 173/258/1
f 173/258/8 172/257/8 167/252/8 166/251/8
f 169/254/6 171/256/6 173/258/6 166/251/6
f 170/255/3 168/253/3 167/252/3 172/257/3
f 98/259/1 90/260/1 86/261/1 85/262/1 88/263/1 92/264/1 96/265/1 95/266/1
f 130/199/8 129/198/8 138/267/8 137/268/8
f 130/199/6 137/268/6 124/191/6 123/190/6
f 40/40/2 43/43/2 52/52/2 67/78/2
f 41/41/1 68/77/1 51/51/1 42/42/1
f 66/178/1 65/75/1 49/49/1 116/179/1
f 63/177/2 117/180/2 50/50/2 64/76/2
f 54/54/7 128/197/7 127/196/23 110/166/22 109/165/7 53/53/7 52/52/7 43/43/7 42/42/7 51/51/7 50/50/7 117/180/7 116/179/7 49/49/7
f 174/269/28 175/270/28 176/271/28 177/272/28
f 178/273/29 179/274/29 180/275/29 181/276/29
f 182/277/30 183/278/30 179/274/30 178/273/30
f 179/279/31 175/280/31 184/281/31 180/282/31
f 177/272/32 182/283/32 178/284/32 174/269/32
f 183/285/33 176/271/33 175/270/33 179/286/33
f 185/287/34 186/288/34 187/289/34 188/290/34
f 189/291/32 181/292/32 190/293/32 191/294/32
f 176/295/35 183/296/35 185/297/35 192/298/35
f 177/299/36 176/295/36 192/298/36 193/300/36
f 175/280/37 174/301/37 189/291/37 184/281/37
f 174/301/38 178/302/38 181/292/38 189/291/38
f 183/278/39 182/277/39 186/288/39 185/287/39
f 182/303/40 177/299/40 193/300/40 186/304/40
f 194/305/2 195/306/2 188/307/2 187/308/2
f 190/293/1 196/309/1 197/310/1 191/294/1
f 186/288/32 193/311/32 194/312/32 187/289/32
f 184/281/41 189/291/41 191/294/41 197/310/41
f 180/282/33 184/281/33 197/310/33 196/309/33
f 181/276/34 180/275/34 196/313/34 190/314/34
f 192/298/33 185/297/33 188/307/33 195/306/33
f 193/300/41 192/298/41 195/306/41 194/305/41
f 60/60/8 59/59/8 69/222/8 139/221/8 47/47/8 46/46/8 62/64/8 61/63/8
f 198/315/1 199/316/1 200/317/1 201/318/1
f 69/222/8 59/59/8 62/64/8 46/46/8
f 202/319/2 203/320/2 204/321/2 205/322/2
f 205/323/7 204/324/7 199/325/7 198/326/7
f 201/327/8 200/328/8 203/329/8 202/330/8
f 205/331/6 198/332/6 201/333/6 202/334/6
f 199/335/3 204/336/3 203/337/3 200/338/3
f 206/339/1 207/340/1 208/341/1 209/342/1
f 210/343/2 211/344/2 212/345/2 213/346/2
f 213/347/7 212/348/7 207/349/7 206/350/7
f 209/351/8 208/352/8 211/353/8 210/354/8
f 213/355/6 206/356/6 209/357/6 210/358/6
f 207/359/3 212/360/3 211/361/3 208/362/3
f 72/363/11 71/364/10 77/365/14 27/366/5 26/367/4 79/368/16 110/369/22 127/370/23
