# Blender v2.79 (sub 0) OBJ File: 'lowPolyTrees.blend'
# www.blender.org
g forest_hut3
v 0.540000 3.080000 -1.500000
v 0.540000 3.110000 -1.500000
v 0.540000 3.310000 -1.199999
v 0.540000 3.110000 -0.899999
v 0.540000 3.080000 -0.899999
v 0.540000 3.280000 -1.200000
v -2.340000 3.065363 0.000001
v -2.339999 1.963448 -1.660339
v -2.339999 1.893480 -1.609351
v -2.340000 2.970000 0.000001
v -2.340002 1.970000 1.500001
v -2.340002 1.700348 3.005494
v -2.340002 1.795310 3.005494
v -2.340002 2.064961 1.500001
v 2.200000 1.422377 0.241756
v 2.200000 1.422377 0.000000
v 2.200000 1.422377 -0.241755
v 2.170000 1.422377 -0.241755
v 2.170000 1.422377 0.241756
v 0.060000 3.080000 -0.899999
v 0.060000 3.110000 -0.899999
v 0.060000 3.310000 -1.199999
v 0.060000 3.110000 -1.500000
v 0.060000 3.080000 -1.500000
v 0.060000 3.280000 -1.200000
v 2.300000 3.000000 0.000001
v 2.300001 1.938983 -1.591525
v 2.300001 1.963944 -1.608166
v 2.300000 3.035363 0.000001
v 2.299999 2.034961 1.500001
v 2.299998 1.765310 2.955493
v 2.299998 1.730348 2.955493
v 2.299999 2.000000 1.500001
v 0.163613 3.026654 -1.347152
v 0.433695 3.026654 -1.347152
v 0.562654 3.026654 -1.460279
v 0.034654 3.026654 -1.460279
v 0.034654 3.026654 -0.932280
v 0.163613 3.026654 -1.045407
v 1.345035 1.612457 -1.460000
v 0.548345 1.612457 -1.460000
v 0.548345 1.612457 -1.500000
v 1.345035 1.612457 -1.500000
v 2.200000 1.949746 0.241756
v 2.200000 2.130000 1.300001
v 2.199999 2.000000 1.500001
v 2.200000 -0.000000 1.500000
v 2.200000 0.000000 0.000000
v -1.345033 0.587543 -1.500000
v -0.548344 0.587543 -1.500000
v 0.548345 0.587543 -1.500000
v 1.345034 0.587543 -1.500000
v 2.033334 0.000000 -1.500000
v -2.033333 0.000000 -1.500000
v 1.348293 0.587543 1.460000
v 1.348292 1.612457 1.460000
v 0.551604 1.612457 1.460000
v 0.551604 0.587543 1.460000
v 0.551604 1.612457 1.500000
v 0.551604 0.587543 1.500000
v 1.348293 0.587543 1.500000
v 1.348292 1.612457 1.500000
v -0.548344 1.612457 -1.460000
v -0.548344 0.587543 -1.460000
v -1.345033 0.587543 -1.460000
v -1.345033 1.612457 -1.460000
v 1.345034 0.587543 -1.460000
v 0.548345 0.587543 -1.460000
v -2.200001 2.000000 1.500000
v -2.300001 2.000000 1.499999
v -2.300000 3.000000 0.000000
v -2.200001 3.000000 0.000000
v -2.200001 2.130000 1.300000
v -2.300000 1.963944 -1.608166
v -2.300000 3.035363 -0.000001
v -2.300001 1.730348 2.955492
v -2.300000 1.938983 -1.591526
v -2.300001 1.765310 2.955492
v 2.200000 3.000000 0.000001
v -2.300001 2.034961 1.499999
v 0.433695 3.026654 -1.045407
v 0.562654 3.026654 -0.932280
v 2.300001 1.963448 -1.660339
v 2.300000 3.065363 0.000001
v 2.340000 3.065363 0.000001
v 2.340001 1.963448 -1.660339
v 2.299999 2.064961 1.500001
v 2.339999 2.064961 1.500001
v 2.300001 1.893480 -1.609351
v 2.340001 1.893480 -1.609351
v 2.299998 1.795310 3.005494
v 2.339998 1.795310 3.005494
v 2.299998 1.700348 3.005494
v 2.299999 1.970000 1.500001
v 2.339999 1.970000 1.500001
v 2.339998 1.700348 3.005494
v 2.300000 2.970000 0.000001
v 2.340000 2.970000 0.000001
v -2.300000 3.065363 0.000001
v -2.299999 1.963448 -1.660339
v -2.300002 2.064961 1.500001
v -2.299999 1.893480 -1.609351
v -2.300002 1.795310 3.005494
v -2.300002 1.970000 1.500001
v -2.300002 1.700348 3.005494
v -2.300000 2.970000 0.000001
v 2.170000 1.949746 0.241756
v 2.200000 1.949746 -0.241755
v 2.200000 0.000000 -1.500000
v 2.200001 2.000000 -1.499999
v 2.170000 1.949746 -0.241755
v -2.170000 1.416728 0.241755
v -2.170000 1.944097 0.241755
v -2.170000 1.944097 -0.241756
v -2.170000 1.416728 -0.241756
v -1.345033 1.612457 -1.500000
v -0.548344 1.612457 -1.500000
v -2.200000 1.416728 0.241755
v -2.200000 1.944097 0.241755
v -2.200000 1.944097 -0.241756
v -2.200000 1.416728 -0.241756
v 0.034654 1.998654 -0.932280
v 0.034654 1.998654 -1.460280
v 0.562654 1.998654 -1.460280
v 0.562654 1.998654 -0.932280
v 0.163613 2.406654 -1.347153
v 0.433695 2.406654 -1.347153
v -2.806337 0.002385 1.505499
v -2.806337 0.094068 1.505499
v -0.051423 0.094068 1.505499
v -0.051423 0.002385 1.505499
v 0.163613 2.406654 -1.045407
v 0.433695 2.406654 -1.045407
v 0.478654 3.012654 -0.976279
v 0.478654 3.152654 -0.976279
v 0.478654 3.152654 -1.016280
v 0.478654 3.012654 -1.016280
v 0.518654 3.152654 -1.016280
v 0.518654 3.012654 -1.016280
v 0.518654 3.152654 -0.976279
v 0.518654 3.012654 -0.976279
v 0.088654 3.012654 -0.976279
v 0.088654 3.152654 -0.976279
v 0.088654 3.152654 -1.016280
v 0.088654 3.012654 -1.016280
v 0.128654 3.152654 -1.016280
v 0.128654 3.012654 -1.016280
v 0.128654 3.152654 -0.976279
v 0.128654 3.012654 -0.976279
v 0.478654 3.012654 -1.386279
v 0.478654 3.152654 -1.386279
v 0.478654 3.152654 -1.426280
v 0.478654 3.012654 -1.426280
v 0.518654 3.152654 -1.426280
v 0.518654 3.012654 -1.426280
v 0.518654 3.152654 -1.386279
v 0.518654 3.012654 -1.386279
v 0.088654 3.012654 -1.386279
v 0.088654 3.152654 -1.386279
v 0.088654 3.152654 -1.426280
v 0.088654 3.012654 -1.426280
v 0.128654 3.152654 -1.426280
v 0.128654 3.012654 -1.426280
v 0.128654 3.152654 -1.386279
v 0.128654 3.012654 -1.386279
v -2.199999 0.000000 -1.500000
v -2.200000 2.000000 -1.500000
v 2.300000 -0.000001 3.200000
v 2.300000 0.199999 3.200000
v -2.300000 0.199999 3.200000
v -2.300000 -0.000001 3.200000
v -2.300000 0.200000 1.200000
v -2.300000 -0.000000 1.200000
v 2.300000 0.200000 1.200000
v 2.300000 -0.000000 1.200000
v -2.078407 -0.000000 2.800000
v -2.078407 1.760781 2.800000
v -2.078407 1.760781 2.900000
v -2.078407 -0.000000 2.900000
v 0.008824 0.083217 2.881855
v 0.008824 0.879489 2.881855
v 0.008824 0.879489 2.811625
v 0.008824 0.083217 2.811625
v -2.178407 -0.000000 2.900000
v -2.178407 1.760781 2.900000
v -2.178407 1.760781 2.800000
v -2.178407 -0.000000 2.800000
v 2.184953 -0.000000 2.800000
v 2.184953 1.760781 2.800000
v 2.184953 1.760781 2.900000
v 2.184953 -0.000000 2.900000
v 2.084953 -0.000000 2.900000
v 2.084953 1.760781 2.900000
v 2.084953 1.760781 2.800000
v 2.084953 -0.000000 2.800000
v 0.050000 -0.000000 2.800000
v 0.050000 1.760000 2.800000
v 0.050000 1.760000 2.900000
v 0.050000 -0.000000 2.900000
v -0.050000 -0.000000 2.900000
v -0.050000 1.760000 2.900000
v -0.050000 1.760000 2.800000
v -0.050000 -0.000000 2.800000
v -0.540000 0.150000 1.500000
v -0.540000 1.610000 1.500000
v -0.540000 1.610000 1.400000
v -0.540000 0.150000 1.400000
v -1.340000 1.610000 1.400000
v -1.340000 0.150000 1.400000
v -1.340000 1.610000 1.500000
v -1.340000 0.150000 1.500000
v 2.118983 0.879489 2.811625
v 2.118983 0.083217 2.811625
v 2.118983 0.879489 2.881855
v 2.118983 0.083217 2.881855
v -2.200000 -0.000000 1.500000
v 2.172589 0.083217 2.818374
v 2.172589 0.879489 2.818374
v 2.102359 0.879489 2.818374
v 2.102359 0.083217 2.818374
v 2.102359 0.879489 1.490633
v 2.102359 0.083217 1.490633
v 2.172589 0.879489 1.490633
v 2.172589 0.083217 1.490633
v -0.051423 0.094067 3.702419
v -0.051423 0.002384 3.702419
v -2.806337 0.094067 3.702419
v -2.806337 0.002384 3.702419
vt 0.495760 0.473434
vt 0.495760 0.473434
vt 0.495760 0.473434
vt 0.495760 0.473434
vt 0.495760 0.473434
vt 0.495760 0.473434
vt 0.550943 0.456130
vt 0.551733 0.456130
vt 0.551733 0.456088
vt 0.550943 0.456084
vt 0.550219 0.456085
vt 0.550098 0.456085
vt 0.550098 0.456131
vt 0.550219 0.456131
vt 0.604485 0.448305
vt 0.604493 0.448283
vt 0.604481 0.448329
vt 0.495760 0.473434
vt 0.495760 0.473434
vt 0.495760 0.473434
vt 0.495760 0.473434
vt 0.495760 0.473434
vt 0.495760 0.473434
vt 0.604670 0.448356
vt 0.604936 0.448254
vt 0.604915 0.448282
vt 0.604677 0.448358
vt 0.604521 0.448442
vt 0.604487 0.448470
vt 0.604519 0.448474
vt 0.604493 0.448456
vt 0.496795 0.371859
vt 0.496867 0.371859
vt 0.496901 0.371889
vt 0.496761 0.371889
vt 0.496761 0.371749
vt 0.496795 0.371779
vt 0.604713 0.449186
vt 0.604623 0.449168
vt 0.604597 0.449163
vt 0.604729 0.449217
vt 0.604478 0.448331
vt 0.604533 0.448342
vt 0.604512 0.448445
vt 0.604494 0.448459
vt 0.604325 0.448419
vt 0.604349 0.448277
vt 0.604419 0.449185
vt 0.604515 0.449219
vt 0.604640 0.449219
vt 0.604773 0.449177
vt 0.604887 0.449133
vt 0.604296 0.449133
vt 0.543913 0.233025
vt 0.543992 0.233038
vt 0.543986 0.233095
vt 0.543909 0.233086
vt 0.604445 0.448573
vt 0.604365 0.448565
vt 0.604366 0.448564
vt 0.604443 0.448572
vt 0.604368 0.448499
vt 0.604451 0.448516
vt 0.604450 0.448515
vt 0.604371 0.448502
vt 0.544066 0.233704
vt 0.544045 0.233744
vt 0.543982 0.233718
vt 0.544028 0.233709
vt 0.544255 0.233709
vt 0.544289 0.233719
vt 0.544198 0.233749
vt 0.544165 0.233690
vt 0.604440 0.449195
vt 0.604502 0.449221
vt 0.604656 0.449226
vt 0.604747 0.449196
vt 0.582565 0.481115
vt 0.582563 0.481129
vt 0.582350 0.481098
vt 0.580751 0.479120
vt 0.580989 0.479044
vt 0.581008 0.479568
vt 0.580788 0.479575
vt 0.550640 0.459542
vt 0.550664 0.459225
vt 0.550663 0.459222
vt 0.550690 0.459240
vt 0.550677 0.459539
vt 0.550664 0.459553
vt 0.581010 0.479016
vt 0.581010 0.479569
vt 0.580581 0.479534
vt 0.580594 0.479236
vt 0.580561 0.479232
vt 0.580554 0.479537
vt 0.582365 0.480743
vt 0.582523 0.480654
vt 0.582345 0.480754
vt 0.580595 0.479204
vt 0.580598 0.479564
vt 0.496867 0.371779
vt 0.496901 0.371749
vt 0.604494 0.448787
vt 0.604507 0.448773
vt 0.604480 0.448776
vt 0.604523 0.448802
vt 0.604713 0.448814
vt 0.604934 0.448806
vt 0.604936 0.448808
vt 0.604712 0.448818
vt 0.550723 0.455945
vt 0.550688 0.455928
vt 0.550688 0.455927
vt 0.550724 0.455944
vt 0.550646 0.455936
vt 0.550645 0.455935
vt 0.550722 0.455947
vt 0.550723 0.455948
vt 0.550642 0.455941
vt 0.550641 0.455941
vt 0.550641 0.455944
vt 0.550646 0.455947
vt 0.550646 0.455948
vt 0.550641 0.455945
vt 0.550688 0.455931
vt 0.550687 0.455932
vt 0.550723 0.455966
vt 0.550688 0.455949
vt 0.550688 0.455948
vt 0.550724 0.455965
vt 0.550646 0.455957
vt 0.550645 0.455956
vt 0.550722 0.455968
vt 0.550723 0.455969
vt 0.550642 0.455962
vt 0.550641 0.455962
vt 0.550641 0.455965
vt 0.550646 0.455968
vt 0.550646 0.455969
vt 0.550641 0.455966
vt 0.550688 0.455952
vt 0.550687 0.455953
vt 0.604532 0.448340
vt 0.550943 0.456130
vt 0.551733 0.456130
vt 0.551733 0.456088
vt 0.550943 0.456084
vt 0.550219 0.456085
vt 0.550098 0.456085
vt 0.550098 0.456131
vt 0.550219 0.456131
vt 0.550943 0.456084
vt 0.551733 0.456088
vt 0.551733 0.456130
vt 0.550943 0.456130
vt 0.550219 0.456131
vt 0.550098 0.456131
vt 0.550098 0.456085
vt 0.550219 0.456085
vt 0.604546 0.448293
vt 0.604492 0.448281
vt 0.604377 0.448126
vt 0.604581 0.448165
vt 0.604651 0.448347
vt 0.544036 0.232805
vt 0.544086 0.232817
vt 0.544074 0.232863
vt 0.544023 0.232852
vt 0.604544 0.448294
vt 0.543973 0.233405
vt 0.544012 0.233408
vt 0.544010 0.233443
vt 0.543972 0.233441
vt 0.604523 0.449182
vt 0.604486 0.449186
vt 0.604486 0.449204
vt 0.604531 0.449176
vt 0.604429 0.448880
vt 0.604471 0.448884
vt 0.604470 0.448885
vt 0.604430 0.448882
vt 0.604469 0.448921
vt 0.604429 0.448919
vt 0.604429 0.448918
vt 0.604468 0.448920
vt 0.497069 0.371684
vt 0.497069 0.371901
vt 0.496975 0.371901
vt 0.496975 0.371684
vt 0.496911 0.371684
vt 0.496817 0.371901
vt 0.496817 0.371684
vt 0.496753 0.371901
vt 0.496753 0.371684
vt 0.495429 0.371024
vt 0.495429 0.371024
vt 0.495429 0.371024
vt 0.495429 0.371024
vt 0.495429 0.371024
vt 0.495429 0.371024
vt 0.495429 0.371024
vt 0.495429 0.371024
vt 0.557421 0.449143
vt 0.557421 0.449143
vt 0.557421 0.449143
vt 0.557421 0.449143
vt 0.495429 0.371024
vt 0.495429 0.371024
vt 0.495429 0.371024
vt 0.495429 0.371024
vt 0.495760 0.473434
vt 0.495760 0.473434
vt 0.495760 0.473434
vt 0.495760 0.473434
vt 0.495760 0.473434
vt 0.495760 0.473434
vt 0.495760 0.473434
vt 0.495760 0.473434
vt 0.495760 0.473434
vt 0.495760 0.473434
vt 0.495760 0.473434
vt 0.495760 0.473434
vt 0.495760 0.473434
vt 0.495760 0.473434
vt 0.495760 0.473434
vt 0.495760 0.473434
vt 0.495760 0.473434
vt 0.495760 0.473434
vt 0.495760 0.473434
vt 0.495760 0.473434
vt 0.495760 0.473434
vt 0.495760 0.473434
vt 0.495760 0.473434
vt 0.495760 0.473434
vt 0.495760 0.473434
vt 0.495760 0.473434
vt 0.495760 0.473434
vt 0.495760 0.473434
vt 0.495760 0.473434
vt 0.495760 0.473434
vt 0.495760 0.473434
vt 0.495760 0.473434
vt 0.550943 0.456084
vt 0.551733 0.456088
vt 0.551733 0.456130
vt 0.550943 0.456130
vt 0.550219 0.456131
vt 0.550098 0.456131
vt 0.550098 0.456085
vt 0.550219 0.456085
vt 0.604464 0.447678
vt 0.604667 0.447717
vt 0.557985 0.450018
vt 0.557972 0.450018
vt 0.557972 0.449708
vt 0.557985 0.449708
vt 0.557972 0.450018
vt 0.558003 0.450018
vt 0.557421 0.449143
vt 0.557421 0.449143
vt 0.557421 0.449143
vt 0.557421 0.449143
vt 0.557421 0.449143
vt 0.557421 0.449143
vt 0.558003 0.450018
vt 0.557972 0.450018
vt 0.557972 0.449701
vt 0.558003 0.449701
vt 0.558665 0.450017
vt 0.557943 0.450017
vt 0.557943 0.449704
vt 0.558665 0.449704
vt 0.604298 0.448559
vt 0.605992 0.448559
vt 0.605992 0.448689
vt 0.604298 0.448689
vt 0.604296 0.447678
vt 0.604296 0.447678
vt 0.604296 0.447678
vt 0.604296 0.447678
vt 0.604298 0.448689
vt 0.605992 0.448689
vt 0.605992 0.448559
vt 0.604298 0.448559
vt 0.605901 0.448691
vt 0.604296 0.448691
vt 0.604296 0.448814
vt 0.605901 0.448814
vt 0.605901 0.448814
vt 0.604296 0.448814
vt 0.604296 0.448691
vt 0.605901 0.448691
vt 0.604296 0.447678
vt 0.604296 0.447678
vt 0.604296 0.447678
vt 0.604296 0.447678
vt 0.604296 0.447678
vt 0.604296 0.447678
vt 0.604296 0.447678
vt 0.604296 0.447678
vt 0.604298 0.448559
vt 0.605992 0.448559
vt 0.605992 0.448689
vt 0.604298 0.448689
vt 0.604298 0.448689
vt 0.605992 0.448689
vt 0.605992 0.448559
vt 0.604298 0.448559
vt 0.605902 0.448565
vt 0.604297 0.448565
vt 0.604297 0.448689
vt 0.605902 0.448689
vt 0.605902 0.448689
vt 0.604297 0.448689
vt 0.604297 0.448565
vt 0.605902 0.448565
vt 0.604296 0.447678
vt 0.604296 0.447678
vt 0.604296 0.447678
vt 0.604296 0.447678
vt 0.604296 0.447678
vt 0.604296 0.447678
vt 0.604296 0.447678
vt 0.604296 0.447678
vt 0.604298 0.448559
vt 0.605992 0.448559
vt 0.605992 0.448689
vt 0.604298 0.448689
vt 0.604298 0.448689
vt 0.605992 0.448689
vt 0.605992 0.448559
vt 0.604298 0.448559
vt 0.605902 0.448565
vt 0.604297 0.448565
vt 0.604297 0.448689
vt 0.605902 0.448689
vt 0.605902 0.448689
vt 0.604297 0.448689
vt 0.604297 0.448565
vt 0.605902 0.448565
vt 0.604296 0.447678
vt 0.604296 0.447678
vt 0.604296 0.447678
vt 0.604296 0.447678
vt 0.604296 0.447678
vt 0.604296 0.447678
vt 0.604296 0.447678
vt 0.604296 0.447678
vt 0.604327 0.448649
vt 0.604440 0.448654
vt 0.604436 0.448656
vt 0.604331 0.448653
vt 0.535677 0.463213
vt 0.535572 0.463213
vt 0.535573 0.463156
vt 0.535677 0.463159
vt 0.604439 0.448712
vt 0.604326 0.448714
vt 0.604330 0.448710
vt 0.604435 0.448710
vt 0.604886 0.448816
vt 0.604886 0.448568
vt 0.605544 0.448568
vt 0.605544 0.448816
vt 0.604470 0.448776
vt 0.604296 0.447678
vt 0.604296 0.447678
vt 0.604296 0.447678
vt 0.604296 0.447678
vt 0.604312 0.448783
vt 0.605544 0.448816
vt 0.605544 0.448568
vt 0.604886 0.448568
vt 0.604886 0.448816
vt 0.604296 0.447678
vt 0.604296 0.447678
vt 0.604296 0.447678
vt 0.604296 0.447678
vt 0.604882 0.448815
vt 0.604882 0.448557
vt 0.605314 0.448557
vt 0.605314 0.448815
vt 0.604296 0.447678
vt 0.604296 0.447678
vt 0.604296 0.447678
vt 0.604296 0.447678
vt 0.605314 0.448815
vt 0.605314 0.448557
vt 0.604882 0.448557
vt 0.604882 0.448815
vt 0.558003 0.450018
vt 0.557972 0.450018
vt 0.557972 0.449701
vt 0.558003 0.449701
vt 0.557985 0.450018
vt 0.557972 0.450018
vt 0.557972 0.449708
vt 0.557985 0.449708
vt 0.557972 0.450018
vt 0.558003 0.450018
vt 0.604433 0.448876
vt 0.557421 0.449143
vt 0.557421 0.449143
vt 0.558665 0.450017
vt 0.557943 0.450017
vt 0.557943 0.449704
vt 0.558665 0.449704
vt 0.582772 0.479844
vt 0.582772 0.479843
vt 0.582778 0.479843
vt 0.582171 0.480609
vt 0.582771 0.479832
vt 0.582771 0.479831
vt 0.582769 0.479827
vt 0.582766 0.479849
vt 0.604318 0.449022
vt 0.604497 0.448800
vt 0.604555 0.448914
vt 0.604459 0.449026
vt 0.582323 0.481074
vt 0.582347 0.481085
vt 0.582347 0.480757
vt 0.582504 0.480645
vn 1.0000 0.0000 0.0000
vn -1.0000 0.0000 -0.0000
vn 0.0000 1.0000 0.0000
vn 0.6016 -0.7988 -0.0007
vn 0.5774 -0.8006 -0.1601
vn 0.0000 -1.0000 0.0000
vn 0.0000 0.0000 -1.0000
vn 0.0000 -0.0000 1.0000
vn -0.6016 -0.7988 -0.0007
vn -0.6009 -0.7993 -0.0007
vn -0.7140 -0.5831 -0.3875
vn 0.0000 0.8322 -0.5545
vn 0.0000 -0.9833 -0.1822
vn 0.0000 -0.5547 -0.8321
vn -0.5773 -0.8006 -0.1601
vn 0.0237 -0.8326 -0.5534
vn 0.0070 -0.8368 -0.5474
vn -0.0000 0.9833 0.1822
vn -0.0000 0.8319 0.5549
vn 0.0000 0.8332 -0.5530
vn 0.0000 -0.5889 -0.8082
vn 0.0000 0.9843 0.1763
vn 0.0000 -0.9843 -0.1763
vn 0.0000 -0.8321 -0.5547
vn 0.0000 -0.8312 0.5560
vn 0.8244 -0.4991 -0.2671
vn 0.6009 -0.7993 -0.0007
vn 0.5774 -0.5774 0.5774
vn 0.7071 -0.0000 0.7071
vn 0.7071 -0.7071 0.0000
vn 0.0000 0.8321 0.5547
vn 0.0000 0.8321 -0.5547
vn 0.0000 -0.8321 0.5547
vn -0.7071 0.0000 -0.7071
vn -0.8244 -0.4991 -0.2671
vn 0.0000 -0.8384 -0.5450
vn -0.0070 -0.8368 -0.5474
s 1
f 1/1/1 2/2/1 3/3/1 4/4/1 5/5/1 6/6/1
f 7/7/2 8/8/2 9/9/2 10/10/2 11/11/2 12/12/2 13/13/2 14/14/2
f 16/15/3 18/16/3 19/17/3
f 20/18/2 21/19/2 22/20/2 23/21/2 24/22/2 25/23/2
f 26/24/4 27/25/5 28/26/1 29/27/1 30/28/1 31/29/1 32/30/1 33/31/1
f 34/32/3 35/33/3 36/34/3 37/35/3 38/36/3 39/37/3
f 40/38/6 41/39/6 42/40/6 43/41/6
f 15/42/1 44/43/1 45/44/1 46/45/1 47/46/1 48/47/1 16/15/1
f 49/48/7 50/49/7 51/50/7 52/51/7 53/52/7 54/53/7
f 55/54/8 56/55/8 57/56/8 58/57/8
f 59/58/1 60/59/1 58/60/1 57/61/1
f 61/62/2 62/63/2 56/64/2 55/65/2
f 62/63/6 59/58/6 57/61/6 56/64/6
f 60/59/3 61/62/3 55/65/3 58/60/3
f 63/66/7 64/67/7 65/68/7 66/69/7
f 40/70/7 67/71/7 68/72/7 41/73/7
f 50/49/3 49/48/3 65/74/3 64/75/3
f 52/51/3 51/50/3 68/76/3 67/77/3
f 71/78/9 72/79/10 73/80/11
f 29/81/12 28/82/12 74/83/12 75/84/12
f 69/85/13 46/86/13 33/87/13 32/88/13 76/89/13 70/90/13
f 74/83/14 28/82/14 27/91/5 77/92/15
f 76/93/8 32/94/8 31/95/8 78/96/8
f 45/97/16 26/98/4 33/99/17
f 30/100/18 80/101/18 78/96/18 31/95/18
f 75/84/19 80/101/19 30/100/19 29/81/19
f 81/102/3 39/37/3 38/36/3 82/103/3 36/34/3 35/33/3
f 70/104/2 76/105/2 78/106/2 80/107/2 75/108/2 74/109/2 77/110/15 71/111/9
f 83/112/20 84/113/20 85/114/20 86/115/20
f 84/113/19 87/116/19 88/117/19 85/114/19
f 89/118/21 83/112/21 86/115/21 90/119/21
f 87/116/22 91/120/22 92/121/22 88/117/22
f 93/122/23 94/123/23 95/124/23 96/125/23
f 94/123/24 97/126/24 98/127/24 95/124/24
f 97/126/25 89/118/25 90/119/25 98/127/25
f 91/120/8 93/122/8 96/125/8 92/121/8
f 8/128/20 7/129/20 99/130/20 100/131/20
f 7/129/19 14/132/19 101/133/19 99/130/19
f 9/134/21 8/128/21 100/131/21 102/135/21
f 14/132/22 13/136/22 103/137/22 101/133/22
f 12/138/23 11/139/23 104/140/23 105/141/23
f 11/139/24 10/142/24 106/143/24 104/140/24
f 10/142/25 9/134/25 102/135/25 106/143/25
f 13/136/8 12/138/8 105/141/8 103/137/8
f 44/43/7 15/42/7 19/17/7 107/144/7
f 84/145/2 83/146/2 89/147/2 97/148/2 94/149/2 93/150/2 91/151/2 87/152/2
f 106/153/1 102/154/1 100/155/1 99/156/1 101/157/1 103/158/1 105/159/1 104/160/1
f 108/161/1 17/162/1 16/15/1 48/47/1 109/163/1 110/164/26 79/165/27 45/44/1 44/43/1
f 18/166/1 111/167/1 107/168/1 19/169/1
f 108/161/6 44/43/6 107/144/6 111/170/6
f 17/162/8 108/161/8 111/170/8 18/16/8
f 112/171/2 113/172/2 114/173/2 115/174/2
f 63/175/6 66/176/6 116/177/6 117/178/6
f 118/179/7 119/180/7 113/181/7 112/182/7
f 120/183/28 121/184/29 115/185/8 114/186/8
f 122/187/2 38/188/2 37/189/2 123/190/2
f 123/190/7 37/189/7 36/34/7 124/191/7
f 124/191/1 36/34/1 82/192/1 125/193/1
f 125/193/8 82/192/8 38/194/8 122/195/8
f 123/196/6 124/197/6 125/198/6 122/199/6
f 35/200/8 34/201/8 126/202/8 127/203/8
f 128/204/7 129/205/7 130/206/7 131/207/7
f 127/203/3 126/202/3 132/208/3 133/209/3
f 81/210/2 35/200/2 127/203/2 133/209/2
f 34/201/1 39/211/1 132/208/1 126/202/1
f 39/211/7 81/210/7 133/209/7 132/208/7
f 119/180/30 120/183/28 114/186/6 113/181/6
f 24/22/7 23/21/7 2/2/7 1/1/7
f 121/184/3 118/179/3 112/182/3 115/185/3
f 5/5/8 4/4/8 21/19/8 20/18/8
f 25/23/24 6/6/24 5/5/24 20/18/24
f 3/3/31 22/20/31 21/19/31 4/4/31
f 2/2/32 23/21/32 22/20/32 3/3/32
f 24/22/33 1/1/33 6/6/33 25/23/33
f 134/212/2 135/213/2 136/214/2 137/215/2
f 137/215/7 136/214/7 138/216/7 139/217/7
f 139/217/1 138/216/1 140/218/1 141/219/1
f 141/219/8 140/218/8 135/213/8 134/212/8
f 137/215/6 139/217/6 141/219/6 134/212/6
f 138/216/3 136/214/3 135/213/3 140/218/3
f 142/220/2 143/221/2 144/222/2 145/223/2
f 145/223/7 144/222/7 146/224/7 147/225/7
f 147/225/1 146/224/1 148/226/1 149/227/1
f 149/227/8 148/226/8 143/221/8 142/220/8
f 145/223/6 147/225/6 149/227/6 142/220/6
f 146/224/3 144/222/3 143/221/3 148/226/3
f 150/228/2 151/229/2 152/230/2 153/231/2
f 153/231/7 152/230/7 154/232/7 155/233/7
f 155/233/1 154/232/1 156/234/1 157/235/1
f 157/235/8 156/234/8 151/229/8 150/228/8
f 153/231/6 155/233/6 157/235/6 150/228/6
f 154/232/3 152/230/3 151/229/3 156/234/3
f 158/236/2 159/237/2 160/238/2 161/239/2
f 161/239/7 160/238/7 162/240/7 163/241/7
f 163/241/1 162/240/1 164/242/1 165/243/1
f 165/243/8 164/242/8 159/237/8 158/236/8
f 161/239/6 163/241/6 165/243/6 158/236/6
f 162/240/3 160/238/3 159/237/3 164/242/3
f 98/244/1 90/245/1 86/246/1 85/247/1 88/248/1 92/249/1 96/250/1 95/251/1
f 40/38/2 43/41/2 52/51/2 67/77/2
f 41/39/1 68/76/1 51/50/1 42/40/1
f 66/176/1 65/74/1 49/48/1 116/177/1
f 63/175/2 117/178/2 50/49/2 64/75/2
f 54/53/7 166/252/34 167/253/35 110/164/26 109/163/7 53/52/7 52/51/7 43/41/7 42/40/7 51/50/7 50/49/7 117/178/7 116/177/7 49/48/7
f 168/254/8 169/255/8 170/256/8 171/257/8
f 171/257/2 170/256/2 172/258/2 173/259/2
f 173/260/7 172/261/7 174/262/7 175/263/7
f 173/260/6 175/263/6 168/264/6 171/265/6
f 175/266/1 174/267/1 169/268/1 168/269/1
f 174/270/3 172/271/3 170/272/3 169/273/3
f 176/274/1 177/275/1 178/276/1 179/277/1
f 180/278/2 181/279/2 182/280/2 183/281/2
f 184/282/2 185/283/2 186/284/2 187/285/2
f 187/286/7 186/287/7 177/288/7 176/289/7
f 179/290/8 178/291/8 185/292/8 184/293/8
f 187/294/6 176/295/6 179/296/6 184/297/6
f 177/298/3 186/299/3 185/300/3 178/301/3
f 188/302/1 189/303/1 190/304/1 191/305/1
f 192/306/2 193/307/2 194/308/2 195/309/2
f 195/310/7 194/311/7 189/312/7 188/313/7
f 191/314/8 190/315/8 193/316/8 192/317/8
f 195/318/6 188/319/6 191/320/6 192/321/6
f 189/322/3 194/323/3 193/324/3 190/325/3
f 196/326/1 197/327/1 198/328/1 199/329/1
f 200/330/2 201/331/2 202/332/2 203/333/2
f 203/334/7 202/335/7 197/336/7 196/337/7
f 199/338/8 198/339/8 201/340/8 200/341/8
f 203/342/6 196/343/6 199/344/6 200/345/6
f 197/346/3 202/347/3 201/348/3 198/349/3
f 204/350/2 205/351/2 206/352/2 207/353/2
f 208/354/8 209/355/8 207/356/8 206/357/8
f 210/358/1 211/359/1 209/360/1 208/361/1
f 210/358/6 208/361/6 206/352/6 205/351/6
f 183/362/7 182/363/7 212/364/7 213/365/7
f 69/366/8 210/358/8 205/351/8 59/58/8 62/63/8 46/45/8
f 213/367/1 212/368/1 214/369/1 215/370/1
f 47/46/8 46/45/8 62/63/8 61/62/8 60/59/8 59/58/8 205/351/8 204/350/8 211/359/8 210/358/8 69/366/8 216/371/8
f 215/372/8 214/373/8 181/374/8 180/375/8
f 212/368/3 182/280/3 181/279/3 214/369/3
f 183/281/6 213/367/6 215/370/6 180/278/6
f 217/376/8 218/377/8 219/378/8 220/379/8
f 220/380/2 219/381/2 221/382/2 222/383/2
f 222/384/7 221/385/7 223/386/7 224/387/7
f 224/388/1 223/389/1 218/390/1 217/391/1
f 221/385/3 219/378/3 218/377/3 223/386/3
f 220/379/6 222/384/6 224/387/6 217/376/6
f 131/392/1 130/393/1 225/394/1 226/395/1
f 226/396/8 225/397/8 227/398/8 228/399/8
f 228/399/2 227/398/2 129/400/2 128/401/2
f 118/179/1 121/184/29 120/402/28 119/180/30
f 128/204/6 131/207/6 226/403/6 228/404/6
f 130/405/3 129/406/3 227/407/3 225/408/3
f 72/409/10 71/410/9 77/411/15 27/412/5 26/413/4 79/414/27 110/415/26 167/416/35
f 166/417/34 216/371/2 69/366/2 73/418/11 72/419/10 167/420/35
f 19/17/3 15/42/3 16/15/3
f 16/15/3 17/162/3 18/16/3
f 73/80/11 69/421/36 70/422/37
f 70/422/37 71/78/9 73/80/11
f 33/99/17 46/423/36 45/97/16
f 45/97/16 79/424/27 26/98/4
l 121 166
