# Blender v2.79 (sub 0) OBJ File: 'lowPolyTrees.blend'
# www.blender.org
g forest_hut2
v 0.540000 3.079999 -1.281350
v 0.540000 3.109999 -1.281350
v 0.540000 3.309999 -0.981350
v 0.540000 3.109999 -0.681350
v 0.540000 3.079999 -0.681350
v 0.540000 3.279999 -0.981350
v -2.340000 3.065362 0.218651
v -2.339999 1.963448 -1.441689
v -2.339999 1.893480 -1.390701
v -2.340000 2.969999 0.218651
v -2.340002 1.969999 1.718651
v -2.340002 1.970000 1.968651
v -2.340002 2.064961 1.968651
v -2.340002 2.064960 1.718651
v 2.200000 1.422376 0.460406
v 2.200000 1.422376 0.218650
v 2.200000 1.422376 -0.023105
v 2.170000 1.422376 -0.023105
v 2.170000 1.422376 0.460406
v 0.060000 3.079999 -0.681350
v 0.060000 3.109999 -0.681350
v 0.060000 3.309999 -0.981350
v 0.060000 3.109999 -1.281350
v 0.060000 3.079999 -1.281350
v 0.060000 3.279999 -0.981350
v 2.300000 2.999999 0.218651
v 2.300001 1.938983 -1.372875
v 2.300001 1.963944 -1.389516
v 2.300000 3.035362 0.218651
v 2.299999 2.034960 1.718651
v 2.299998 2.034961 1.918651
v 2.299998 1.999999 1.918651
v 2.299999 1.999999 1.718651
v 0.548343 1.612456 1.718650
v 0.548344 0.587542 1.718650
v 0.548344 0.587542 1.678650
v 0.548343 1.612456 1.678650
v 0.163613 3.026654 -1.128503
v 0.433695 3.026654 -1.128503
v 0.562654 3.026654 -1.241630
v 0.034654 3.026654 -1.241630
v 0.034654 3.026653 -0.713630
v 0.163613 3.026654 -0.826757
v 1.345035 1.612457 -1.241350
v 0.548345 1.612457 -1.241350
v 0.548345 1.612457 -1.281350
v 1.345035 1.612457 -1.281350
v 2.200000 1.949745 0.460406
v 2.200000 2.129999 1.518651
v 2.199999 1.999999 1.718651
v 2.200000 -0.000001 1.718649
v 2.200000 -0.000001 0.218649
v -1.345033 0.587543 -1.281350
v -0.548344 0.587543 -1.281350
v 0.548345 0.587543 -1.281350
v 1.345034 0.587543 -1.281350
v 2.033334 -0.000000 -1.281351
v -2.033333 -0.000000 -1.281351
v 1.345033 0.587542 1.718650
v -0.548345 0.587542 1.718650
v -1.345034 0.587542 1.718650
v -2.033334 -0.000001 1.718649
v 2.033333 -0.000001 1.718649
v 1.345032 1.612456 1.718650
v 1.345032 1.612456 1.678650
v 1.345033 0.587542 1.678650
v -2.200001 1.999999 1.718650
v -2.200000 -0.000001 1.718649
v -1.345035 1.612456 1.718650
v -0.548346 1.612456 1.718650
v -0.548345 0.587542 1.678650
v -0.548346 1.612456 1.678650
v -1.345035 1.612456 1.678650
v -1.345034 0.587542 1.678650
v -0.548344 1.612457 -1.241350
v -0.548344 0.587543 -1.241351
v -1.345033 0.587543 -1.241351
v -1.345033 1.612457 -1.241350
v 1.345034 0.587543 -1.241351
v 0.548345 0.587543 -1.241351
v -2.300001 1.999999 1.718649
v -2.300000 2.999999 0.218650
v -2.200001 2.999999 0.218650
v -2.200001 2.129999 1.518650
v -2.300000 1.963944 -1.389516
v -2.300000 3.035362 0.218649
v -2.300001 1.999999 1.918649
v -2.300000 1.938983 -1.372876
v -2.300001 2.034961 1.918649
v 2.200000 2.999999 0.218651
v -2.300001 2.034960 1.718649
v 0.433695 3.026654 -0.826757
v 0.562654 3.026653 -0.713630
v 2.300001 1.963448 -1.441689
v 2.300000 3.065362 0.218651
v 2.340000 3.065362 0.218651
v 2.340001 1.963448 -1.441689
v 2.299999 2.064960 1.718651
v 2.339999 2.064960 1.718651
v 2.300001 1.893480 -1.390701
v 2.340001 1.893480 -1.390701
v 2.299998 2.064961 1.968651
v 2.339998 2.064961 1.968651
v 2.299998 1.970000 1.968651
v 2.299999 1.969999 1.718651
v 2.339999 1.969999 1.718651
v 2.339998 1.970000 1.968651
v 2.300000 2.969999 0.218651
v 2.340000 2.969999 0.218651
v -2.300000 3.065362 0.218651
v -2.299999 1.963448 -1.441689
v -2.300002 2.064960 1.718651
v -2.299999 1.893480 -1.390701
v -2.300002 2.064961 1.968651
v -2.300002 1.969999 1.718651
v -2.300002 1.970000 1.968651
v -2.300000 2.969999 0.218651
v 2.170000 1.949745 0.460406
v 2.200000 1.949745 -0.023105
v 2.200000 -0.000000 -1.281351
v 2.200001 2.000000 -1.281349
v 2.170000 1.949745 -0.023105
v -2.170000 2.156049 0.460405
v -2.170000 2.683418 0.460405
v -2.170000 2.683418 -0.023106
v -2.170000 2.156049 -0.023106
v -1.345033 1.612457 -1.281350
v -0.548344 1.612457 -1.281350
v -2.200000 2.156049 0.460405
v -2.200000 2.683418 0.460405
v -2.200000 2.683418 -0.023106
v -2.200000 2.156049 -0.023106
v -2.200000 -0.000001 0.618649
v -2.200000 1.459999 0.618650
v -2.100000 1.459999 0.618650
v -2.100000 -0.000001 0.618649
v -2.200000 -0.000001 1.518649
v -2.200000 2.000000 -1.281350
v -2.199999 -0.000000 -1.281351
v -2.200000 -0.000001 -0.181351
v -2.200000 1.459999 -0.181350
v 0.034654 1.998654 -0.713630
v 0.034654 1.998654 -1.241630
v 0.562654 1.998654 -1.241630
v 0.562654 1.998654 -0.713630
v 0.163613 2.406653 -1.128503
v 0.433695 2.406653 -1.128503
v -2.100000 1.459999 -0.181350
v -2.100000 -0.000001 -0.181351
v 0.163613 2.406653 -0.826757
v 0.433695 2.406653 -0.826757
v 0.478654 3.012654 -0.757630
v 0.478654 3.152653 -0.757630
v 0.478654 3.152653 -0.797630
v 0.478654 3.012654 -0.797630
v 0.518654 3.152653 -0.797630
v 0.518654 3.012654 -0.797630
v 0.518654 3.152653 -0.757630
v 0.518654 3.012654 -0.757630
v 0.088654 3.012654 -0.757630
v 0.088654 3.152653 -0.757630
v 0.088654 3.152653 -0.797630
v 0.088654 3.012654 -0.797630
v 0.128654 3.152653 -0.797630
v 0.128654 3.012654 -0.797630
v 0.128654 3.152653 -0.757630
v 0.128654 3.012654 -0.757630
v 0.478654 3.012654 -1.167630
v 0.478654 3.152653 -1.167630
v 0.478654 3.152653 -1.207630
v 0.478654 3.012654 -1.207630
v 0.518654 3.152653 -1.207630
v 0.518654 3.012654 -1.207630
v 0.518654 3.152653 -1.167630
v 0.518654 3.012654 -1.167630
v 0.088654 3.012654 -1.167630
v 0.088654 3.152653 -1.167630
v 0.088654 3.152653 -1.207630
v 0.088654 3.012654 -1.207630
v 0.128654 3.152653 -1.207630
v 0.128654 3.012654 -1.207630
v 0.128654 3.152653 -1.167630
v 0.128654 3.012654 -1.167630
v -2.863476 1.284711 0.918650
v -2.883655 1.326267 0.918650
v -2.883655 1.326267 -0.481350
v -2.863476 1.284711 -0.481350
v -2.138430 1.622805 0.918650
v -2.158608 1.664362 0.918650
v -2.124469 1.685798 0.921660
v -2.100065 1.635178 0.921660
v -2.138430 1.622805 -0.481350
v -2.158608 1.664363 -0.481350
v -2.922020 1.313894 0.921660
v -2.124469 1.685799 -0.484360
v -2.100065 1.635180 -0.484360
v -2.100065 1.635180 -0.514262
v -2.124469 1.685799 -0.514262
v -2.897615 1.263275 0.921660
v -2.100065 1.635178 0.951562
v -2.897615 1.263275 0.951561
v -2.922020 1.313895 -0.484360
v -2.897615 1.263276 -0.484360
v -2.897615 1.263276 -0.514262
v -2.922020 1.313895 -0.514262
v -2.124469 1.685798 0.951562
v -2.922020 1.313894 0.951561
v -2.071997 0.804986 0.909057
v -2.684866 1.380110 0.909058
v -2.684866 1.380111 0.829818
v -2.071997 0.804986 0.829818
v -2.630644 1.437892 0.829818
v -2.017775 0.862767 0.829818
v -2.630644 1.437892 0.909058
v -2.017775 0.862767 0.909057
v -2.071997 0.804986 -0.392519
v -2.684866 1.380111 -0.392519
v -2.684866 1.380112 -0.471758
v -2.071997 0.804986 -0.471758
v -2.630644 1.437893 -0.471758
v -2.017775 0.862767 -0.471758
v -2.630644 1.437893 -0.392519
v -2.017775 0.862767 -0.392519
vt 0.497548 0.465467
vt 0.497548 0.465467
vt 0.497548 0.465467
vt 0.497548 0.465467
vt 0.497548 0.465467
vt 0.497548 0.465467
vt 0.550845 0.449955
vt 0.550848 0.449955
vt 0.550848 0.449955
vt 0.550845 0.449955
vt 0.550842 0.449955
vt 0.550841 0.449955
vt 0.550841 0.449955
vt 0.550842 0.449955
vt 0.605198 0.447872
vt 0.605183 0.447866
vt 0.605169 0.447859
vt 0.605171 0.447858
vt 0.605197 0.447869
vt 0.497548 0.465467
vt 0.497548 0.465467
vt 0.497548 0.465467
vt 0.497548 0.465467
vt 0.497548 0.465467
vt 0.497548 0.465467
vt 0.605428 0.447727
vt 0.605729 0.447678
vt 0.605718 0.447686
vt 0.605430 0.447733
vt 0.605286 0.447947
vt 0.605282 0.447960
vt 0.605280 0.447960
vt 0.605282 0.447947
vt 0.604557 0.449077
vt 0.604641 0.449041
vt 0.604655 0.449027
vt 0.604590 0.449080
vt 0.496692 0.373951
vt 0.496692 0.373951
vt 0.496692 0.373951
vt 0.496692 0.373951
vt 0.496692 0.373951
vt 0.496692 0.373951
vt 0.605353 0.449264
vt 0.605262 0.449246
vt 0.605237 0.449241
vt 0.605369 0.449295
vt 0.605233 0.447836
vt 0.605282 0.447925
vt 0.605272 0.447945
vt 0.605212 0.447967
vt 0.605155 0.447951
vt 0.605059 0.449263
vt 0.605155 0.449296
vt 0.605280 0.449297
vt 0.605413 0.449255
vt 0.605527 0.449211
vt 0.604936 0.449211
vt 0.604775 0.449078
vt 0.604518 0.449032
vt 0.604411 0.449088
vt 0.604296 0.449133
vt 0.604919 0.449133
vt 0.604726 0.449065
vt 0.604703 0.449091
vt 0.604750 0.449062
vt 0.605275 0.448099
vt 0.605207 0.448044
vt 0.604505 0.449053
vt 0.604515 0.449066
vt 0.557825 0.215061
vt 0.557842 0.215090
vt 0.557827 0.215097
vt 0.557762 0.215103
vt 0.558077 0.215090
vt 0.558030 0.215119
vt 0.557917 0.215108
vt 0.557981 0.215055
vt 0.604435 0.449075
vt 0.604500 0.449069
vt 0.604515 0.449062
vt 0.604498 0.449033
vt 0.558489 0.215287
vt 0.558469 0.215327
vt 0.558406 0.215301
vt 0.558452 0.215292
vt 0.558679 0.215292
vt 0.558713 0.215302
vt 0.558622 0.215332
vt 0.558589 0.215274
vt 0.605080 0.449273
vt 0.605142 0.449299
vt 0.605296 0.449304
vt 0.605386 0.449274
vt 0.605286 0.448096
vt 0.605428 0.448332
vt 0.605412 0.448341
vt 0.605287 0.448123
vt 0.574363 0.471725
vt 0.574651 0.471678
vt 0.574646 0.472415
vt 0.574364 0.472319
vt 0.574208 0.472092
vt 0.574204 0.471938
vt 0.574215 0.471939
vt 0.574212 0.471953
vt 0.574213 0.472075
vt 0.574219 0.472089
vt 0.574662 0.471671
vt 0.574662 0.472426
vt 0.574215 0.471953
vt 0.574216 0.472074
vt 0.574215 0.471918
vt 0.574346 0.471711
vt 0.574360 0.471720
vt 0.574219 0.471940
vt 0.574223 0.472088
vt 0.496692 0.373951
vt 0.496692 0.373951
vt 0.605281 0.448082
vt 0.605283 0.448082
vt 0.605290 0.448095
vt 0.605431 0.448327
vt 0.605713 0.448422
vt 0.605729 0.448433
vt 0.550844 0.449954
vt 0.550844 0.449954
vt 0.550844 0.449954
vt 0.550844 0.449954
vt 0.605289 0.448416
vt 0.605288 0.448416
vt 0.605288 0.448416
vt 0.605289 0.448416
vt 0.550844 0.449954
vt 0.550844 0.449954
vt 0.550844 0.449954
vt 0.550844 0.449954
vt 0.550844 0.449954
vt 0.550844 0.449954
vt 0.550844 0.449954
vt 0.550844 0.449954
vt 0.550844 0.449954
vt 0.550844 0.449954
vt 0.550844 0.449954
vt 0.550844 0.449954
vt 0.550844 0.449954
vt 0.550844 0.449954
vt 0.550844 0.449954
vt 0.550844 0.449954
vt 0.550844 0.449954
vt 0.550844 0.449954
vt 0.550844 0.449954
vt 0.550844 0.449954
vt 0.605227 0.447838
vt 0.605176 0.447812
vt 0.605100 0.447938
vt 0.604976 0.447718
vt 0.605413 0.447718
vt 0.558497 0.213886
vt 0.558505 0.213844
vt 0.558554 0.213866
vt 0.558523 0.213897
vt 0.605179 0.447816
vt 0.558593 0.214253
vt 0.558662 0.214289
vt 0.558623 0.214356
vt 0.558560 0.214307
vt 0.605163 0.449259
vt 0.605126 0.449264
vt 0.605125 0.449282
vt 0.605171 0.449254
vt 0.605264 0.448220
vt 0.605342 0.448258
vt 0.605335 0.448261
vt 0.605266 0.448225
vt 0.605300 0.448336
vt 0.605227 0.448281
vt 0.605233 0.448279
vt 0.605297 0.448328
vt 0.605173 0.448072
vt 0.605214 0.448155
vt 0.605204 0.448150
vt 0.605168 0.448071
vt 0.605199 0.448050
vt 0.604936 0.448450
vt 0.605068 0.448110
vt 0.605127 0.448083
vt 0.605151 0.448196
vt 0.496693 0.373950
vt 0.496692 0.373950
vt 0.496692 0.373950
vt 0.496692 0.373950
vt 0.496686 0.373948
vt 0.496686 0.373948
vt 0.496686 0.373948
vt 0.496686 0.373948
vt 0.496686 0.373948
vt 0.496686 0.373948
vt 0.496686 0.373948
vt 0.496686 0.373948
vt 0.543943 0.449722
vt 0.543924 0.449624
vt 0.543956 0.449609
vt 0.543992 0.449688
vt 0.496686 0.373948
vt 0.496686 0.373948
vt 0.496686 0.373948
vt 0.496686 0.373948
vt 0.497548 0.465467
vt 0.497548 0.465467
vt 0.497548 0.465467
vt 0.497548 0.465467
vt 0.497548 0.465467
vt 0.497548 0.465467
vt 0.497548 0.465467
vt 0.497548 0.465467
vt 0.497548 0.465467
vt 0.497548 0.465467
vt 0.497548 0.465467
vt 0.497548 0.465467
vt 0.497548 0.465467
vt 0.497548 0.465467
vt 0.497548 0.465467
vt 0.497548 0.465467
vt 0.497548 0.465467
vt 0.497548 0.465467
vt 0.497548 0.465467
vt 0.497548 0.465467
vt 0.497548 0.465467
vt 0.497548 0.465467
vt 0.497548 0.465467
vt 0.497548 0.465467
vt 0.497548 0.465467
vt 0.497548 0.465467
vt 0.497548 0.465467
vt 0.497548 0.465467
vt 0.497548 0.465467
vt 0.497548 0.465467
vt 0.497548 0.465467
vt 0.497548 0.465467
vt 0.605136 0.448086
vt 0.605155 0.448185
vt 0.574222 0.472406
vt 0.574222 0.472406
vt 0.574220 0.472406
vt 0.574220 0.472406
vt 0.605286 0.448412
vt 0.605286 0.448412
vt 0.605286 0.448412
vt 0.605286 0.448412
vt 0.605286 0.448412
vt 0.605286 0.448412
vt 0.550846 0.449954
vt 0.550843 0.449954
vt 0.550843 0.449954
vt 0.550847 0.449954
vt 0.574220 0.472407
vt 0.574222 0.472407
vt 0.574220 0.472407
vt 0.574222 0.472407
vt 0.605286 0.448412
vt 0.605286 0.448412
vt 0.605286 0.448412
vt 0.605286 0.448412
vt 0.605287 0.448416
vt 0.605291 0.448416
vt 0.605287 0.448416
vt 0.550843 0.449954
vt 0.550846 0.449954
vt 0.550847 0.449954
vt 0.550843 0.449954
vt 0.550843 0.449954
vt 0.550843 0.449954
vt 0.550843 0.449954
vt 0.550843 0.449954
vt 0.550846 0.449954
vt 0.550847 0.449954
vt 0.550846 0.449954
vt 0.550847 0.449954
vt 0.550843 0.449954
vt 0.550843 0.449954
vt 0.550847 0.449954
vt 0.550847 0.449954
vt 0.550847 0.449954
vt 0.550847 0.449954
vt 0.550843 0.449954
vt 0.550843 0.449954
vt 0.605286 0.448412
vt 0.605286 0.448412
vt 0.605286 0.448412
vt 0.550847 0.449954
vt 0.550843 0.449954
vt 0.550843 0.449954
vt 0.550847 0.449954
vt 0.550843 0.449954
vt 0.550847 0.449954
vt 0.550843 0.449954
vt 0.550847 0.449954
vt 0.605292 0.448416
vt 0.605292 0.448416
vt 0.605292 0.448416
vt 0.605292 0.448416
vt 0.605288 0.448416
vt 0.605288 0.448416
vt 0.605288 0.448416
vt 0.605288 0.448416
vt 0.550847 0.449954
vt 0.550843 0.449954
vt 0.550843 0.449954
vt 0.550847 0.449954
vt 0.550843 0.449954
vt 0.550847 0.449954
vt 0.605292 0.448416
vt 0.605288 0.448416
vt 0.605288 0.448416
vt 0.605292 0.448416
vt 0.550847 0.449954
vt 0.550843 0.449954
vt 0.605292 0.448416
vt 0.605292 0.448416
vt 0.605288 0.448416
vt 0.605288 0.448416
vt 0.575000 0.472338
vt 0.572530 0.474274
vt 0.572533 0.474215
vt 0.572495 0.474223
vt 0.572493 0.474224
vt 0.574975 0.472281
vt 0.572469 0.474277
vt 0.574999 0.472338
vn 1.0000 0.0000 0.0000
vn -1.0000 0.0000 -0.0000
vn -0.0000 1.0000 0.0000
vn 0.6052 -0.7960 0.0000
vn 0.5774 -0.8006 -0.1601
vn 0.0000 -1.0000 0.0000
vn 0.0000 0.0000 -1.0000
vn -0.0000 -0.0000 1.0000
vn -0.0139 -0.8320 -0.5546
vn -0.6052 -0.7960 0.0000
vn -0.6049 -0.7963 0.0000
vn 0.0000 0.8322 -0.5545
vn 0.0000 -0.5547 -0.8321
vn -0.5773 -0.8006 -0.1601
vn 0.0139 -0.8320 -0.5546
vn 0.6049 -0.7963 0.0000
vn -0.0000 0.8319 0.5549
vn 0.0000 0.8332 -0.5530
vn 0.0000 -0.5889 -0.8082
vn 0.0000 -0.8321 -0.5547
vn 0.0000 -0.8312 0.5560
vn 0.8244 -0.4991 -0.2671
vn -0.8244 -0.4991 -0.2671
vn 0.0000 -0.8320 -0.5547
vn 0.0000 0.8320 0.5547
vn 0.0000 0.8321 -0.5547
vn 0.0000 -0.8321 0.5547
vn -0.8996 -0.4368 -0.0000
vn 0.0676 0.0327 -0.9972
vn 0.8996 0.4368 0.0000
vn -0.2180 0.4674 -0.8567
vn 0.4226 -0.9063 -0.0000
vn -0.4226 0.9063 0.0000
vn 0.9008 0.4343 0.0000
vn -0.2180 0.4675 0.8567
vn -0.0676 -0.0327 0.9972
vn -0.0676 -0.0327 -0.9972
vn 0.2180 -0.4674 -0.8567
vn 0.0676 0.0327 0.9972
vn 0.2180 -0.4675 0.8567
vn -0.9008 -0.4343 0.0000
vn -0.6843 -0.7292 -0.0000
vn 0.6843 0.7292 0.0000
vn 0.7292 -0.6843 0.0000
vn -0.7292 0.6843 0.0000
s 1
f 1/1/1 2/2/1 3/3/1 4/4/1 5/5/1 6/6/1
f 7/7/2 8/8/2 9/9/2 10/10/2 11/11/2 12/12/2 13/13/2 14/14/2
f 15/15/3 16/16/3 17/17/3 18/18/3 19/19/3
f 20/20/2 21/21/2 22/22/2 23/23/2 24/24/2 25/25/2
f 26/26/4 27/27/5 28/28/1 29/29/1 30/30/1 31/31/1 32/32/1 33/33/1
f 34/34/1 35/35/1 36/36/1 37/37/1
f 38/38/3 39/39/3 40/40/3 41/41/3 42/42/3 43/43/3
f 44/44/6 45/45/6 46/46/6 47/47/6
f 15/15/1 48/48/1 49/49/1 50/50/1 51/51/1 52/52/1 16/16/1
f 53/53/7 54/54/7 55/55/7 56/56/7 57/57/7 58/58/7
f 59/59/8 35/35/8 60/60/8 61/61/8 62/62/8 63/63/8
f 59/59/2 64/64/2 65/65/2 66/66/2
f 64/64/8 59/59/8 63/63/8 51/51/8 50/50/8 67/67/8 68/68/8 62/62/8 61/61/8 69/69/8 70/70/8 60/60/8 35/35/8 34/34/8
f 71/71/8 72/72/8 73/73/8 74/74/8
f 66/75/8 65/76/8 37/77/8 36/78/8
f 64/64/6 34/34/6 37/37/6 65/65/6
f 35/35/3 59/59/3 66/66/3 36/36/3
f 69/69/1 61/61/1 74/79/1 73/80/1
f 60/60/2 70/70/2 72/81/2 71/82/2
f 70/70/6 69/69/6 73/80/6 72/81/6
f 61/61/3 60/60/3 71/82/3 74/79/3
f 75/83/7 76/84/7 77/85/7 78/86/7
f 44/87/7 79/88/7 80/89/7 45/90/7
f 54/54/3 53/53/3 77/91/3 76/92/3
f 56/56/3 55/55/3 80/93/3 79/94/3
f 67/67/9 81/95/9 82/96/10 83/97/11 84/98/9
f 29/99/12 28/100/12 85/101/12 86/102/12
f 67/103/6 50/104/6 33/105/6 32/106/6 87/107/6 81/108/6
f 85/101/13 28/100/13 27/109/5 88/110/14
f 87/107/8 32/106/8 31/111/8 89/112/8
f 50/104/15 49/113/15 90/114/16 26/115/4 33/105/15
f 30/116/3 91/117/3 89/112/3 31/111/3
f 86/102/17 91/117/17 30/116/17 29/99/17
f 92/118/3 43/43/3 42/42/3 93/119/3 40/40/3 39/39/3
f 81/95/2 87/120/2 89/121/2 91/122/2 86/123/2 85/124/2 88/125/14 82/96/10
f 94/126/18 95/127/18 96/128/18 97/129/18
f 95/130/17 98/131/17 99/132/17 96/133/17
f 100/134/19 94/126/19 97/129/19 101/135/19
f 98/136/3 102/137/3 103/138/3 99/139/3
f 104/140/6 105/141/6 106/142/6 107/143/6
f 105/141/20 108/144/20 109/145/20 106/142/20
f 108/144/21 100/134/21 101/135/21 109/145/21
f 102/137/8 104/140/8 107/143/8 103/138/8
f 8/8/18 7/7/18 110/146/18 111/147/18
f 7/7/17 14/14/17 112/148/17 110/146/17
f 9/9/19 8/8/19 111/147/19 113/149/19
f 14/14/3 13/13/3 114/150/3 112/148/3
f 12/12/6 11/11/6 115/151/6 116/152/6
f 11/11/20 10/10/20 117/153/20 115/151/20
f 10/10/21 9/9/21 113/149/21 117/153/21
f 13/13/8 12/12/8 116/152/8 114/150/8
f 48/48/7 15/15/7 19/19/7 118/154/7
f 95/127/2 94/126/2 100/134/2 108/144/2 105/141/2 104/140/2 102/137/2 98/136/2
f 117/153/1 113/149/1 111/147/1 110/146/1 112/148/1 114/150/1 116/152/1 115/151/1
f 119/155/1 17/17/1 16/16/1 52/52/1 120/156/1 121/157/22 90/158/16 49/49/1 48/48/1
f 18/159/1 122/160/1 118/161/1 19/162/1
f 119/155/6 48/48/6 118/154/6 122/163/6
f 17/17/8 119/155/8 122/163/8 18/18/8
f 123/164/2 124/165/2 125/166/2 126/167/2
f 75/168/6 78/169/6 127/170/6 128/171/6
f 129/172/7 130/173/7 124/174/7 123/175/7
f 131/176/8 132/177/8 126/178/8 125/179/8
f 133/180/7 134/181/7 135/182/7 136/183/7
f 134/181/2 133/180/2 137/184/2 129/172/2 132/177/2 131/176/2 130/173/2 84/98/2 83/97/11 138/185/23 139/186/2 140/187/2 141/188/2
f 142/189/2 42/42/2 41/41/2 143/190/2
f 143/190/7 41/41/7 40/40/7 144/191/7
f 144/191/1 40/40/1 93/119/1 145/192/1
f 145/192/8 93/119/8 42/42/8 142/189/8
f 143/193/6 144/194/6 145/195/6 142/196/6
f 39/197/8 38/198/8 146/199/8 147/200/8
f 148/201/2 149/202/2 136/203/2 135/204/2
f 130/173/2 129/172/2 137/184/2 68/68/2 67/67/2 84/98/2
f 147/200/3 146/199/3 150/205/3 151/206/3
f 92/207/2 39/197/2 147/200/2 151/206/2
f 38/198/1 43/208/1 150/205/1 146/199/1
f 43/208/7 92/207/7 151/206/7 150/205/7
f 130/173/6 131/176/6 125/179/6 124/174/6
f 24/24/7 23/23/7 2/2/7 1/1/7
f 132/177/3 129/172/3 123/175/3 126/178/3
f 5/5/8 4/4/8 21/21/8 20/20/8
f 25/25/24 6/6/24 5/5/24 20/20/24
f 3/3/25 22/22/25 21/21/25 4/4/25
f 2/2/26 23/23/26 22/22/26 3/3/26
f 24/24/27 1/1/27 6/6/27 25/25/27
f 152/209/2 153/210/2 154/211/2 155/212/2
f 155/212/7 154/211/7 156/213/7 157/214/7
f 157/214/1 156/213/1 158/215/1 159/216/1
f 159/216/8 158/215/8 153/210/8 152/209/8
f 155/212/6 157/214/6 159/216/6 152/209/6
f 156/213/3 154/211/3 153/210/3 158/215/3
f 160/217/2 161/218/2 162/219/2 163/220/2
f 163/220/7 162/219/7 164/221/7 165/222/7
f 165/222/1 164/221/1 166/223/1 167/224/1
f 167/224/8 166/223/8 161/218/8 160/217/8
f 163/220/6 165/222/6 167/224/6 160/217/6
f 164/221/3 162/219/3 161/218/3 166/223/3
f 168/225/2 169/226/2 170/227/2 171/228/2
f 171/228/7 170/227/7 172/229/7 173/230/7
f 173/230/1 172/229/1 174/231/1 175/232/1
f 175/232/8 174/231/8 169/226/8 168/225/8
f 171/228/6 173/230/6 175/232/6 168/225/6
f 172/229/3 170/227/3 169/226/3 174/231/3
f 176/233/2 177/234/2 178/235/2 179/236/2
f 179/236/7 178/235/7 180/237/7 181/238/7
f 181/238/1 180/237/1 182/239/1 183/240/1
f 183/240/8 182/239/8 177/234/8 176/233/8
f 179/236/6 181/238/6 183/240/6 176/233/6
f 180/237/3 178/235/3 177/234/3 182/239/3
f 109/145/1 101/135/1 97/129/1 96/128/1 99/139/1 103/138/1 107/143/1 106/142/1
f 141/188/8 140/187/8 149/241/8 148/242/8
f 141/188/6 148/242/6 135/182/6 134/181/6
f 44/44/2 47/47/2 56/56/2 79/94/2
f 45/45/1 80/93/1 55/55/1 46/46/1
f 78/169/1 77/91/1 53/53/1 127/170/1
f 75/168/2 128/171/2 54/54/2 76/92/2
f 58/58/7 139/186/7 138/185/23 121/157/22 120/156/7 57/57/7 56/56/7 47/47/7 46/46/7 55/55/7 54/54/7 128/171/7 127/170/7 53/53/7
f 184/243/28 185/244/28 186/245/28 187/246/28
f 188/247/29 189/248/29 190/249/29 191/250/29
f 192/251/30 193/252/30 189/248/30 188/247/30
f 189/253/31 185/254/31 194/255/31 190/256/31
f 187/246/32 192/257/32 188/258/32 184/243/32
f 193/259/33 186/245/33 185/244/33 189/260/33
f 195/261/34 196/262/34 197/263/34 198/264/34
f 199/265/32 191/250/32 200/266/32 201/267/32
f 186/268/35 193/269/35 195/270/35 202/271/35
f 187/272/36 186/268/36 202/271/36 203/273/36
f 185/254/37 184/274/37 199/275/37 194/255/37
f 184/274/38 188/276/38 191/277/38 199/275/38
f 193/252/39 192/251/39 196/262/39 195/261/39
f 192/278/40 187/272/40 203/273/40 196/279/40
f 204/280/7 205/281/7 198/282/7 197/283/7
f 200/284/8 206/285/8 207/286/8 201/287/8
f 196/262/32 203/288/32 204/289/32 197/263/32
f 194/255/41 199/275/41 201/287/41 207/286/41
f 190/256/33 194/255/33 207/286/33 206/285/33
f 191/250/34 190/249/34 206/290/34 200/266/34
f 202/271/33 195/270/33 198/282/33 205/281/33
f 203/273/41 202/271/41 205/281/41 204/280/41
f 208/291/42 209/292/42 210/293/42 211/294/42
f 211/294/7 210/293/7 212/295/7 213/296/7
f 213/296/43 212/295/43 214/297/43 215/298/43
f 215/298/8 214/297/8 209/292/8 208/291/8
f 211/299/44 213/300/44 215/301/44 208/302/44
f 212/303/45 210/304/45 209/305/45 214/306/45
f 216/307/42 217/308/42 218/309/42 219/310/42
f 219/310/7 218/309/7 220/311/7 221/312/7
f 221/313/43 220/314/43 222/315/43 223/316/43
f 223/317/8 222/318/8 217/308/8 216/307/8
f 219/319/44 221/313/44 223/316/44 216/320/44
f 220/314/45 218/321/45 217/322/45 222/315/45
f 90/323/16 121/324/22 138/325/23 83/326/11 82/327/10 88/328/14 27/329/5 26/330/4
