# Blender v2.79 (sub 0) OBJ File: 'lowPolyTrees.blend'
# www.blender.org
g lookout_ladder
v -1.700000 0.900001 -6.464630
v -0.400000 0.900001 -6.464630
v -0.400000 1.100001 -6.464630
v -1.700000 1.100001 -6.464630
v -0.400000 1.100001 -6.664630
v -1.700000 1.100001 -6.664630
v -0.400000 0.900001 -6.664630
v -1.700000 0.900001 -6.664630
v -0.400000 0.000001 -6.764630
v -0.400000 12.203013 -2.987819
v -0.400000 12.203013 -3.187819
v -0.400000 0.000001 -6.964630
v -0.100000 12.203013 -3.187819
v -0.100000 0.000001 -6.964630
v -0.100000 12.203013 -2.987819
v -0.100000 0.000001 -6.764630
v -2.000000 0.000001 -6.764630
v -2.000000 12.203013 -2.987819
v -2.000000 12.203013 -3.187819
v -2.000000 0.000001 -6.964630
v -1.700000 12.203013 -3.187819
v -1.700000 0.000001 -6.964630
v -1.700000 12.203013 -2.987819
v -1.700000 0.000001 -6.764630
v -1.700000 1.900001 -6.158034
v -0.400000 1.900001 -6.158034
v -0.400000 2.100001 -6.158034
v -1.700000 2.100001 -6.158034
v -0.400000 2.100001 -6.358035
v -1.700000 2.100001 -6.358035
v -0.400000 1.900001 -6.358035
v -1.700000 1.900001 -6.358035
v -1.700000 2.900001 -5.836262
v -0.400000 2.900001 -5.836262
v -0.400000 3.100001 -5.836262
v -1.700000 3.100001 -5.836262
v -0.400000 3.100001 -6.036262
v -1.700000 3.100001 -6.036263
v -0.400000 2.900001 -6.036262
v -1.700000 2.900001 -6.036263
v -1.700000 3.900001 -5.540375
v -0.400000 3.900001 -5.540375
v -0.400000 4.100000 -5.540375
v -1.700000 4.100000 -5.540375
v -0.400000 4.100000 -5.740375
v -1.700000 4.100000 -5.740376
v -0.400000 3.900001 -5.740375
v -1.700000 3.900001 -5.740376
v -1.700000 4.900001 -5.244843
v -0.400000 4.900001 -5.244843
v -0.400000 5.100000 -5.244843
v -1.700000 5.100000 -5.244843
v -0.400000 5.100000 -5.444842
v -1.700000 5.100000 -5.444843
v -0.400000 4.900001 -5.444842
v -1.700000 4.900001 -5.444843
v -1.700000 5.900001 -4.922715
v -0.400000 5.900001 -4.922715
v -0.400000 6.100000 -4.922715
v -1.700000 6.100000 -4.922715
v -0.400000 6.100000 -5.122715
v -1.700000 6.100000 -5.122716
v -0.400000 5.900001 -5.122715
v -1.700000 5.900001 -5.122716
v -1.700000 6.900001 -4.602138
v -0.400000 6.900001 -4.602138
v -0.400000 7.100000 -4.602138
v -1.700000 7.100000 -4.602138
v -0.400000 7.100000 -4.802137
v -1.700000 7.100000 -4.802138
v -0.400000 6.900001 -4.802137
v -1.700000 6.900001 -4.802138
v -1.700000 7.900001 -4.291914
v -0.400000 7.900001 -4.291914
v -0.400000 8.100000 -4.291914
v -1.700000 8.100000 -4.291914
v -0.400000 8.100000 -4.491914
v -1.700000 8.100000 -4.491915
v -0.400000 7.900001 -4.491914
v -1.700000 7.900001 -4.491915
v -1.700000 8.900002 -3.986455
v -0.400000 8.900002 -3.986455
v -0.400000 9.100000 -3.986455
v -1.700000 9.100000 -3.986455
v -0.400000 9.100000 -4.186455
v -1.700000 9.100000 -4.186456
v -0.400000 8.900002 -4.186455
v -1.700000 8.900002 -4.186456
v -1.700000 9.900001 -3.675818
v -0.400000 9.900001 -3.675818
v -0.400000 10.099999 -3.675818
v -1.700000 10.099999 -3.675818
v -0.400000 10.099999 -3.875818
v -1.700000 10.099999 -3.875819
v -0.400000 9.900001 -3.875818
v -1.700000 9.900001 -3.875819
v -1.700000 10.900002 -3.370358
v -0.400000 10.900002 -3.370358
v -0.400000 11.100001 -3.370358
v -1.700000 11.100001 -3.370358
v -0.400000 11.100001 -3.570358
v -1.700000 11.100001 -3.570359
v -0.400000 10.900002 -3.570358
v -1.700000 10.900002 -3.570359
v -1.700000 11.900002 -3.064899
v -0.400000 11.900002 -3.064899
v -0.400000 12.100001 -3.064899
v -1.700000 12.100001 -3.064899
v -0.400000 12.100001 -3.264899
v -1.700000 12.100001 -3.264899
v -0.400000 11.900002 -3.264899
v -1.700000 11.900002 -3.264899
vt 0.590490 0.433453
vt 0.592062 0.433453
vt 0.592062 0.433368
vt 0.590490 0.433368
vt 0.592066 0.433126
vt 0.590605 0.433126
vt 0.590605 0.433195
vt 0.592066 0.433195
vt 0.590490 0.433368
vt 0.592062 0.433368
vt 0.592062 0.433453
vt 0.590490 0.433453
vt 0.592066 0.433195
vt 0.590605 0.433195
vt 0.590605 0.433126
vt 0.592066 0.433126
vt 0.590821 0.433203
vt 0.591739 0.433203
vt 0.591739 0.433153
vt 0.590821 0.433153
vt 0.592108 0.433119
vt 0.590496 0.433119
vt 0.590496 0.433205
vt 0.592108 0.433205
vt 0.590821 0.433153
vt 0.591739 0.433153
vt 0.591739 0.433203
vt 0.590821 0.433203
vt 0.592108 0.433205
vt 0.590496 0.433205
vt 0.590496 0.433119
vt 0.592108 0.433119
vt 0.590821 0.433203
vt 0.591739 0.433203
vt 0.591739 0.433153
vt 0.590821 0.433153
vt 0.592062 0.433104
vt 0.590518 0.433104
vt 0.590518 0.433187
vt 0.592062 0.433187
vt 0.590821 0.433153
vt 0.591739 0.433153
vt 0.591739 0.433203
vt 0.590821 0.433203
vt 0.592062 0.433187
vt 0.590518 0.433187
vt 0.590518 0.433104
vt 0.592062 0.433104
vt 0.590490 0.433453
vt 0.592062 0.433453
vt 0.592062 0.433368
vt 0.590490 0.433368
vt 0.592066 0.433126
vt 0.590605 0.433126
vt 0.590605 0.433195
vt 0.592066 0.433195
vt 0.590490 0.433368
vt 0.592062 0.433368
vt 0.592062 0.433453
vt 0.590490 0.433453
vt 0.592066 0.433195
vt 0.590605 0.433195
vt 0.590605 0.433126
vt 0.592066 0.433126
vt 0.590490 0.433453
vt 0.592062 0.433453
vt 0.592062 0.433368
vt 0.590490 0.433368
vt 0.592066 0.433126
vt 0.590605 0.433126
vt 0.590605 0.433195
vt 0.592066 0.433195
vt 0.590490 0.433368
vt 0.592062 0.433368
vt 0.592062 0.433453
vt 0.590490 0.433453
vt 0.592066 0.433195
vt 0.590605 0.433195
vt 0.590605 0.433126
vt 0.592066 0.433126
vt 0.590490 0.433453
vt 0.592062 0.433453
vt 0.592062 0.433368
vt 0.590490 0.433368
vt 0.592066 0.433126
vt 0.590605 0.433126
vt 0.590605 0.433195
vt 0.592066 0.433195
vt 0.590490 0.433368
vt 0.592062 0.433368
vt 0.592062 0.433453
vt 0.590490 0.433453
vt 0.592066 0.433195
vt 0.590605 0.433195
vt 0.590605 0.433126
vt 0.592066 0.433126
vt 0.590490 0.433453
vt 0.592062 0.433453
vt 0.592062 0.433368
vt 0.590490 0.433368
vt 0.592066 0.433126
vt 0.590605 0.433126
vt 0.590605 0.433195
vt 0.592066 0.433195
vt 0.590490 0.433368
vt 0.592062 0.433368
vt 0.592062 0.433453
vt 0.590490 0.433453
vt 0.592066 0.433195
vt 0.590605 0.433195
vt 0.590605 0.433126
vt 0.592066 0.433126
vt 0.590490 0.433453
vt 0.592062 0.433453
vt 0.592062 0.433368
vt 0.590490 0.433368
vt 0.592066 0.433126
vt 0.590605 0.433126
vt 0.590605 0.433195
vt 0.592066 0.433195
vt 0.590490 0.433368
vt 0.592062 0.433368
vt 0.592062 0.433453
vt 0.590490 0.433453
vt 0.592066 0.433195
vt 0.590605 0.433195
vt 0.590605 0.433126
vt 0.592066 0.433126
vt 0.590478 0.432275
vt 0.590478 0.432275
vt 0.590478 0.432275
vt 0.590478 0.432275
vt 0.590478 0.432275
vt 0.590478 0.432275
vt 0.590478 0.432275
vt 0.590478 0.432275
vt 0.590478 0.432275
vt 0.590478 0.432275
vt 0.590478 0.432275
vt 0.590478 0.432275
vt 0.590478 0.432275
vt 0.590478 0.432275
vt 0.590478 0.432275
vt 0.590478 0.432275
vt 0.590478 0.432275
vt 0.590478 0.432275
vt 0.590478 0.432275
vt 0.590478 0.432275
vt 0.590478 0.432275
vt 0.590478 0.432275
vt 0.590478 0.432275
vt 0.590478 0.432275
vt 0.590478 0.432275
vt 0.590478 0.432275
vt 0.590478 0.432275
vt 0.590478 0.432275
vt 0.590478 0.432275
vt 0.590478 0.432275
vt 0.590478 0.432275
vt 0.590478 0.432275
vt 0.590478 0.432275
vt 0.590478 0.432275
vt 0.590478 0.432275
vt 0.590478 0.432275
vt 0.590478 0.432275
vt 0.590478 0.432275
vt 0.590478 0.432275
vt 0.590478 0.432275
vt 0.590478 0.432275
vt 0.590478 0.432275
vt 0.590478 0.432275
vt 0.590478 0.432275
vt 0.590478 0.432275
vt 0.590478 0.432275
vt 0.590478 0.432275
vt 0.590478 0.432275
vt 0.590478 0.432275
vt 0.590478 0.432275
vt 0.590478 0.432275
vt 0.590478 0.432275
vt 0.590478 0.432275
vt 0.590478 0.432275
vt 0.590478 0.432275
vt 0.590478 0.432275
vt 0.590478 0.432275
vt 0.590478 0.432275
vt 0.590478 0.432275
vt 0.590478 0.432275
vt 0.590478 0.432275
vt 0.590478 0.432275
vt 0.590478 0.432275
vt 0.590478 0.432275
vt 0.590490 0.433453
vt 0.592062 0.433453
vt 0.592062 0.433368
vt 0.590490 0.433368
vt 0.592066 0.433126
vt 0.590605 0.433126
vt 0.590605 0.433195
vt 0.592066 0.433195
vt 0.590490 0.433368
vt 0.592062 0.433368
vt 0.592062 0.433453
vt 0.590490 0.433453
vt 0.592066 0.433195
vt 0.590605 0.433195
vt 0.590605 0.433126
vt 0.592066 0.433126
vt 0.590478 0.432275
vt 0.590478 0.432275
vt 0.590478 0.432275
vt 0.590478 0.432275
vt 0.590478 0.432275
vt 0.590478 0.432275
vt 0.590478 0.432275
vt 0.590478 0.432275
vt 0.590490 0.433453
vt 0.592062 0.433453
vt 0.592062 0.433368
vt 0.590490 0.433368
vt 0.592066 0.433126
vt 0.590605 0.433126
vt 0.590605 0.433195
vt 0.592066 0.433195
vt 0.590490 0.433368
vt 0.592062 0.433368
vt 0.592062 0.433453
vt 0.590490 0.433453
vt 0.592066 0.433195
vt 0.590605 0.433195
vt 0.590605 0.433126
vt 0.592066 0.433126
vt 0.590478 0.432275
vt 0.590478 0.432275
vt 0.590478 0.432275
vt 0.590478 0.432275
vt 0.590478 0.432275
vt 0.590478 0.432275
vt 0.590478 0.432275
vt 0.590478 0.432275
vt 0.590490 0.433453
vt 0.592062 0.433453
vt 0.592062 0.433368
vt 0.590490 0.433368
vt 0.592066 0.433126
vt 0.590605 0.433126
vt 0.590605 0.433195
vt 0.592066 0.433195
vt 0.590490 0.433368
vt 0.592062 0.433368
vt 0.592062 0.433453
vt 0.590490 0.433453
vt 0.592066 0.433195
vt 0.590605 0.433195
vt 0.590605 0.433126
vt 0.592066 0.433126
vt 0.590478 0.432275
vt 0.590478 0.432275
vt 0.590478 0.432275
vt 0.590478 0.432275
vt 0.590478 0.432275
vt 0.590478 0.432275
vt 0.590478 0.432275
vt 0.590478 0.432275
vt 0.590490 0.433453
vt 0.592062 0.433453
vt 0.592062 0.433368
vt 0.590490 0.433368
vt 0.592066 0.433126
vt 0.590605 0.433126
vt 0.590605 0.433195
vt 0.592066 0.433195
vt 0.590490 0.433368
vt 0.592062 0.433368
vt 0.592062 0.433453
vt 0.590490 0.433453
vt 0.592066 0.433195
vt 0.590605 0.433195
vt 0.590605 0.433126
vt 0.592066 0.433126
vt 0.590478 0.432275
vt 0.590478 0.432275
vt 0.590478 0.432275
vt 0.590478 0.432275
vt 0.590478 0.432275
vt 0.590478 0.432275
vt 0.590478 0.432275
vt 0.590478 0.432275
vt 0.590490 0.433453
vt 0.592062 0.433453
vt 0.592062 0.433368
vt 0.590490 0.433368
vt 0.592066 0.433126
vt 0.590605 0.433126
vt 0.590605 0.433195
vt 0.592066 0.433195
vt 0.590490 0.433368
vt 0.592062 0.433368
vt 0.592062 0.433453
vt 0.590490 0.433453
vt 0.592066 0.433195
vt 0.590605 0.433195
vt 0.590605 0.433126
vt 0.592066 0.433126
vt 0.590478 0.432275
vt 0.590478 0.432275
vt 0.590478 0.432275
vt 0.590478 0.432275
vt 0.590478 0.432275
vt 0.590478 0.432275
vt 0.590478 0.432275
vt 0.590478 0.432275
vt 0.590490 0.433453
vt 0.592062 0.433453
vt 0.592062 0.433368
vt 0.590490 0.433368
vt 0.592066 0.433126
vt 0.590605 0.433126
vt 0.590605 0.433195
vt 0.592066 0.433195
vt 0.590490 0.433368
vt 0.592062 0.433368
vt 0.592062 0.433453
vt 0.590490 0.433453
vt 0.592066 0.433195
vt 0.590605 0.433195
vt 0.590605 0.433126
vt 0.592066 0.433126
vt 0.590478 0.432275
vt 0.590478 0.432275
vt 0.590478 0.432275
vt 0.590478 0.432275
vt 0.590478 0.432275
vt 0.590478 0.432275
vt 0.590478 0.432275
vt 0.590478 0.432275
vn 0.0000 0.0000 1.0000
vn 0.0000 1.0000 0.0000
vn 0.0000 0.0000 -1.0000
vn 0.0000 -1.0000 0.0000
vn -1.0000 0.0000 0.0000
vn 0.0000 0.2957 -0.9553
vn 1.0000 -0.0000 0.0000
vn 0.0000 -0.2957 0.9553
s 1
f 1/1/1 2/2/1 3/3/1 4/4/1
f 4/5/2 3/6/2 5/7/2 6/8/2
f 6/9/3 5/10/3 7/11/3 8/12/3
f 8/13/4 7/14/4 2/15/4 1/16/4
f 9/17/5 10/18/5 11/19/5 12/20/5
f 12/21/6 11/22/6 13/23/6 14/24/6
f 14/25/7 13/26/7 15/27/7 16/28/7
f 16/29/8 15/30/8 10/31/8 9/32/8
f 17/33/5 18/34/5 19/35/5 20/36/5
f 20/37/6 19/38/6 21/39/6 22/40/6
f 22/41/7 21/42/7 23/43/7 24/44/7
f 24/45/8 23/46/8 18/47/8 17/48/8
f 25/49/1 26/50/1 27/51/1 28/52/1
f 28/53/2 27/54/2 29/55/2 30/56/2
f 30/57/3 29/58/3 31/59/3 32/60/3
f 32/61/4 31/62/4 26/63/4 25/64/4
f 33/65/1 34/66/1 35/67/1 36/68/1
f 36/69/2 35/70/2 37/71/2 38/72/2
f 38/73/3 37/74/3 39/75/3 40/76/3
f 40/77/4 39/78/4 34/79/4 33/80/4
f 41/81/1 42/82/1 43/83/1 44/84/1
f 44/85/2 43/86/2 45/87/2 46/88/2
f 46/89/3 45/90/3 47/91/3 48/92/3
f 48/93/4 47/94/4 42/95/4 41/96/4
f 49/97/1 50/98/1 51/99/1 52/100/1
f 52/101/2 51/102/2 53/103/2 54/104/2
f 54/105/3 53/106/3 55/107/3 56/108/3
f 56/109/4 55/110/4 50/111/4 49/112/4
f 57/113/1 58/114/1 59/115/1 60/116/1
f 60/117/2 59/118/2 61/119/2 62/120/2
f 62/121/3 61/122/3 63/123/3 64/124/3
f 64/125/4 63/126/4 58/127/4 57/128/4
f 4/129/5 6/130/5 8/131/5 1/132/5
f 5/133/7 3/134/7 2/135/7 7/136/7
f 12/137/4 14/138/4 16/139/4 9/140/4
f 13/141/2 11/142/2 10/143/2 15/144/2
f 20/145/4 22/146/4 24/147/4 17/148/4
f 21/149/2 19/150/2 18/151/2 23/152/2
f 28/153/5 30/154/5 32/155/5 25/156/5
f 29/157/7 27/158/7 26/159/7 31/160/7
f 36/161/5 38/162/5 40/163/5 33/164/5
f 37/165/7 35/166/7 34/167/7 39/168/7
f 44/169/5 46/170/5 48/171/5 41/172/5
f 45/173/7 43/174/7 42/175/7 47/176/7
f 52/177/5 54/178/5 56/179/5 49/180/5
f 53/181/7 51/182/7 50/183/7 55/184/7
f 60/185/5 62/186/5 64/187/5 57/188/5
f 61/189/7 59/190/7 58/191/7 63/192/7
f 65/193/1 66/194/1 67/195/1 68/196/1
f 68/197/2 67/198/2 69/199/2 70/200/2
f 70/201/3 69/202/3 71/203/3 72/204/3
f 72/205/4 71/206/4 66/207/4 65/208/4
f 68/209/5 70/210/5 72/211/5 65/212/5
f 69/213/7 67/214/7 66/215/7 71/216/7
f 73/217/1 74/218/1 75/219/1 76/220/1
f 76/221/2 75/222/2 77/223/2 78/224/2
f 78/225/3 77/226/3 79/227/3 80/228/3
f 80/229/4 79/230/4 74/231/4 73/232/4
f 76/233/5 78/234/5 80/235/5 73/236/5
f 77/237/7 75/238/7 74/239/7 79/240/7
f 81/241/1 82/242/1 83/243/1 84/244/1
f 84/245/2 83/246/2 85/247/2 86/248/2
f 86/249/3 85/250/3 87/251/3 88/252/3
f 88/253/4 87/254/4 82/255/4 81/256/4
f 84/257/5 86/258/5 88/259/5 81/260/5
f 85/261/7 83/262/7 82/263/7 87/264/7
f 89/265/1 90/266/1 91/267/1 92/268/1
f 92/269/2 91/270/2 93/271/2 94/272/2
f 94/273/3 93/274/3 95/275/3 96/276/3
f 96/277/4 95/278/4 90/279/4 89/280/4
f 92/281/5 94/282/5 96/283/5 89/284/5
f 93/285/7 91/286/7 90/287/7 95/288/7
f 97/289/1 98/290/1 99/291/1 100/292/1
f 100/293/2 99/294/2 101/295/2 102/296/2
f 102/297/3 101/298/3 103/299/3 104/300/3
f 104/301/4 103/302/4 98/303/4 97/304/4
f 100/305/5 102/306/5 104/307/5 97/308/5
f 101/309/7 99/310/7 98/311/7 103/312/7
f 105/313/1 106/314/1 107/315/1 108/316/1
f 108/317/2 107/318/2 109/319/2 110/320/2
f 110/321/3 109/322/3 111/323/3 112/324/3
f 112/325/4 111/326/4 106/327/4 105/328/4
f 108/329/5 110/330/5 112/331/5 105/332/5
f 109/333/7 107/334/7 106/335/7 111/336/7
