# Blender v2.79 (sub 0) OBJ File: 'lowPolyTrees.blend'
# www.blender.org
g Rock1
v 0.224894 -0.293059 -0.306947
v 1.646307 0.299395 0.895321
v -0.245231 0.237868 1.456872
v -1.626275 0.257575 -0.405134
v -0.540380 0.668604 -2.296292
v 1.511783 0.377499 -1.263214
v 0.665062 1.645478 1.343311
v -1.223009 2.017801 0.718717
v -1.176991 2.156665 -1.280970
v 0.737088 1.747321 -1.973791
v 1.985070 1.738527 -0.117717
v 0.108500 3.279984 -0.559317
v -0.117481 -0.155632 0.679744
v 1.050178 -0.150425 0.331614
v 0.683904 0.150862 1.215323
v 1.868374 0.072780 -0.198601
v 1.037079 -0.229393 -0.778638
v -0.752389 -0.128347 -0.257986
v -1.221040 0.227063 0.646754
v -0.193469 -0.134071 -1.176734
v -1.081494 0.214267 -1.329693
v 0.588547 0.057477 -1.907675
v 2.034618 0.948677 0.289740
v 2.096386 0.829741 -0.878723
v 0.327247 0.920624 1.796214
v 1.335007 0.915379 1.296998
v -1.644001 0.902824 0.311699
v -1.051428 0.984793 1.335769
v -1.066053 1.406110 -2.128215
v -1.576075 0.870345 -0.853640
v 1.343959 0.894521 -1.859847
v 0.024508 1.338210 -2.421189
v 1.609647 1.789101 0.657965
v -0.210626 1.975642 1.188364
v -1.465491 2.418908 -0.261892
v -0.394084 2.410644 -2.197501
v 1.551027 1.893984 -1.244037
v 0.313604 2.970983 0.425741
v 1.109764 2.961912 -0.495758
v -0.626490 2.546494 0.310575
v -0.623470 3.106051 -1.277433
v 0.413465 3.010181 -1.534637
vt 0.493376 0.290485
vt 0.498332 0.290485
vt 0.498332 0.295442
vt 0.493376 0.290485
vt 0.498332 0.295442
vt 0.498332 0.290485
vt 0.498332 0.295442
vt 0.498332 0.290485
vt 0.498332 0.295442
vt 0.498332 0.290485
vt 0.498332 0.295442
vt 0.498332 0.290485
vt 0.498332 0.295442
vt 0.493376 0.290485
vt 0.498332 0.290485
vt 0.498332 0.295442
vt 0.493376 0.290485
vt 0.498332 0.290485
vt 0.498332 0.295442
vt 0.493376 0.290485
vt 0.498332 0.290485
vt 0.498332 0.295442
vt 0.493376 0.290485
vt 0.498332 0.290485
vt 0.498332 0.295442
vt 0.498332 0.290485
vt 0.498332 0.295442
vt 0.498332 0.290485
vt 0.498332 0.295442
vt 0.498332 0.290485
vt 0.498332 0.295442
vt 0.498332 0.290485
vt 0.498332 0.295442
vt 0.498332 0.290485
vt 0.498332 0.295442
vt 0.493376 0.290485
vt 0.498332 0.290485
vt 0.498332 0.295442
vt 0.493376 0.290485
vt 0.498332 0.290485
vt 0.498332 0.295442
vt 0.493376 0.290485
vt 0.498332 0.290485
vt 0.498332 0.295442
vt 0.493376 0.290485
vt 0.498332 0.290485
vt 0.498332 0.295442
vt 0.493376 0.290485
vt 0.498332 0.290485
vt 0.498332 0.295442
vt 0.493376 0.290485
vt 0.498332 0.290485
vt 0.498332 0.295442
vt 0.493376 0.290485
vt 0.498332 0.290485
vt 0.493376 0.290485
vt 0.498332 0.290485
vt 0.493376 0.290485
vt 0.498332 0.290485
vt 0.493376 0.290485
vt 0.498332 0.290485
vt 0.493376 0.290485
vt 0.498332 0.290485
vt 0.493376 0.290485
vt 0.498332 0.290485
vt 0.493376 0.290485
vt 0.498332 0.290485
vt 0.493376 0.290485
vt 0.498332 0.290485
vt 0.493376 0.290485
vt 0.498332 0.290485
vt 0.493376 0.290485
vt 0.498332 0.295442
vt 0.498332 0.295442
vt 0.493376 0.290485
vt 0.493376 0.290485
vt 0.498332 0.295442
vt 0.498332 0.295442
vt 0.493376 0.290485
vt 0.493376 0.290485
vt 0.498332 0.295442
vt 0.498332 0.295442
vt 0.493376 0.290485
vt 0.493376 0.290485
vt 0.498332 0.295442
vt 0.498332 0.295442
vt 0.493376 0.290485
vt 0.493376 0.290485
vt 0.498332 0.295442
vt 0.498332 0.295442
vt 0.493376 0.290485
vt 0.498332 0.290485
vt 0.493376 0.290485
vt 0.498332 0.290485
vt 0.498332 0.290485
vt 0.493376 0.290485
vt 0.498332 0.290485
vt 0.498332 0.290485
vt 0.493376 0.290485
vt 0.498332 0.290485
vt 0.498332 0.290485
vt 0.493376 0.290485
vt 0.498332 0.290485
vt 0.498332 0.290485
vt 0.493376 0.290485
vt 0.498332 0.290485
vt 0.493376 0.290485
vt 0.498332 0.295442
vt 0.498332 0.295442
vt 0.493376 0.290485
vt 0.498332 0.295442
vt 0.498332 0.295442
vt 0.493376 0.290485
vt 0.498332 0.295442
vt 0.498332 0.295442
vt 0.493376 0.290485
vt 0.498332 0.290485
vt 0.493376 0.290485
vt 0.498332 0.290485
vt 0.498332 0.295442
vt 0.498332 0.295442
vn 0.0506 -0.9866 0.1550
vn 0.4093 -0.8733 0.2640
vn -0.1617 -0.9835 0.0809
vn -0.1701 -0.9806 -0.0974
vn -0.0214 -0.9852 -0.1698
vn 0.9158 -0.3137 0.2509
vn 0.1627 -0.5452 0.8224
vn -0.8660 -0.3821 0.3225
vn -0.7193 -0.3802 -0.5814
vn 0.6041 -0.5102 -0.6121
vn 0.8199 0.0421 0.5709
vn -0.3189 -0.1938 0.9278
vn -0.9975 0.0384 -0.0592
vn -0.2571 0.0368 -0.9657
vn 0.7037 -0.4269 -0.5679
vn 0.4136 0.5898 0.6936
vn -0.2509 0.7529 0.6085
vn -0.8085 0.4727 -0.3505
vn 0.3935 0.3903 -0.8324
vn 0.8226 0.5125 -0.2463
vn 0.3081 0.9373 -0.1629
vn 0.6854 0.5860 -0.4322
vn 0.5723 0.3963 -0.7179
vn 0.0250 0.9655 -0.2593
vn -0.0796 0.7856 -0.6136
vn -0.7409 0.4339 -0.5127
vn -0.4815 0.8269 0.2905
vn -0.3468 0.8848 0.3111
vn -0.4156 0.8012 0.4305
vn -0.4208 0.8369 0.3501
vn -0.3837 0.6804 0.6243
vn 0.0757 0.5810 0.8104
vn 0.2809 0.9309 0.2335
vn 0.5486 0.6934 0.4672
vn 0.7249 0.6147 0.3108
vn 0.8879 0.3543 -0.2933
vn 0.7838 0.1999 -0.5879
vn 0.5974 0.3273 -0.7321
vn 0.3627 0.3238 -0.8738
vn -0.2521 0.1023 -0.9623
vn -0.7349 0.4570 -0.5011
vn -0.9319 0.1856 -0.3116
vn -0.9937 0.0941 -0.0605
vn -0.9188 0.2297 0.3211
vn -0.3646 0.4321 0.8248
vn -0.2790 0.3686 0.8867
vn 0.0427 0.5150 0.8561
vn 0.4955 0.4059 0.7679
vn 0.8082 0.1604 0.5666
vn 0.8747 0.2644 0.4061
vn 0.4388 0.1950 -0.8772
vn 0.3141 -0.2309 -0.9209
vn 0.1567 -0.3073 -0.9386
vn -0.9363 0.1930 -0.2935
vn -0.8368 -0.2972 -0.4598
vn -0.8325 -0.2812 -0.4774
vn -0.8611 0.1476 0.4865
vn -0.8242 -0.2687 0.4984
vn -0.5541 -0.4888 0.6739
vn 0.4201 0.3319 0.8446
vn 0.3996 -0.4270 0.8112
vn 0.3442 -0.3846 0.8565
vn 0.9954 0.0851 0.0440
vn 0.9713 -0.2258 0.0743
vn 0.7109 -0.5763 -0.4031
vn 0.5375 -0.7413 -0.4019
vn 0.0053 -0.9687 -0.2482
vn -0.2704 -0.8201 -0.5042
vn -0.2337 -0.8230 -0.5177
vn -0.3290 -0.9241 -0.1944
vn -0.3725 -0.9110 -0.1768
vn -0.4193 -0.8977 0.1355
vn -0.3266 -0.9250 0.1942
vn -0.3123 -0.8672 0.3878
vn 0.5443 -0.7405 -0.3943
vn 0.3011 -0.9514 0.0641
vn 0.1178 -0.9906 0.0691
vn 0.0353 -0.8892 0.4561
vn 0.1120 -0.9254 0.3620
vn 0.2706 -0.8714 0.4092
s off
f 1/1/1 14/2/1 13/3/1
f 2/4/2 14/2/2 16/5/2
f 1/1/3 13/6/3 18/7/3
f 1/1/4 18/8/4 20/9/4
f 1/1/5 20/10/5 17/11/5
f 2/4/6 16/12/6 23/13/6
f 3/14/7 15/15/7 25/16/7
f 4/17/8 19/18/8 27/19/8
f 5/20/9 21/21/9 29/22/9
f 6/23/10 22/24/10 31/25/10
f 2/4/11 23/26/11 26/27/11
f 3/14/12 25/28/12 28/29/12
f 4/17/13 27/30/13 30/31/13
f 5/20/14 29/32/14 32/33/14
f 6/23/15 31/34/15 24/35/15
f 7/36/16 33/37/16 38/38/16
f 8/39/17 34/40/17 40/41/17
f 9/42/18 35/43/18 41/44/18
f 10/45/19 36/46/19 42/47/19
f 11/48/20 37/49/20 39/50/20
f 39/51/21 42/52/21 12/53/21
f 39/51/22 37/49/22 42/47/22
f 37/54/23 10/55/23 42/47/23
f 42/56/24 41/57/24 12/53/24
f 42/56/25 36/46/25 41/44/25
f 36/58/26 9/59/26 41/44/26
f 41/60/27 40/61/27 12/53/27
f 41/60/28 35/43/28 40/41/28
f 35/62/29 8/63/29 40/41/29
f 40/64/30 38/65/30 12/53/30
f 40/64/31 34/40/31 38/38/31
f 34/66/32 7/67/32 38/38/32
f 38/68/33 39/69/33 12/53/33
f 38/68/34 33/37/34 39/50/34
f 33/70/35 11/71/35 39/50/35
f 24/72/36 37/49/36 11/73/36
f 24/72/37 31/34/37 37/74/37
f 31/75/38 10/55/38 37/74/38
f 32/76/39 36/46/39 10/77/39
f 32/76/40 29/32/40 36/78/40
f 29/79/41 9/59/41 36/78/41
f 30/80/42 35/43/42 9/81/42
f 30/80/43 27/30/43 35/82/43
f 27/83/44 8/63/44 35/82/44
f 28/84/45 34/40/45 8/85/45
f 28/84/46 25/28/46 34/86/46
f 25/87/47 7/67/47 34/86/47
f 26/88/48 33/37/48 7/89/48
f 26/88/49 23/26/49 33/90/49
f 23/91/50 11/71/50 33/90/50
f 31/75/51 32/92/51 10/77/51
f 31/75/52 22/24/52 32/33/52
f 22/93/53 5/94/53 32/33/53
f 29/79/54 30/95/54 9/81/54
f 29/79/55 21/21/55 30/31/55
f 21/96/56 4/97/56 30/31/56
f 27/83/57 28/98/57 8/85/57
f 27/83/58 19/18/58 28/29/58
f 19/99/59 3/100/59 28/29/59
f 25/87/60 26/101/60 7/89/60
f 25/87/61 15/15/61 26/27/61
f 15/102/62 2/103/62 26/27/62
f 23/91/63 24/104/63 11/73/63
f 23/91/64 16/12/64 24/35/64
f 16/105/65 6/106/65 24/35/65
f 17/107/66 22/24/66 6/108/66
f 17/107/67 20/10/67 22/109/67
f 20/110/68 5/94/68 22/109/68
f 20/110/69 21/21/69 5/111/69
f 20/110/70 18/8/70 21/112/70
f 18/113/71 4/97/71 21/112/71
f 18/113/72 19/18/72 4/114/72
f 18/113/73 13/6/73 19/115/73
f 13/116/74 3/100/74 19/115/74
f 16/105/75 17/117/75 6/108/75
f 16/105/76 14/2/76 17/11/76
f 14/118/77 1/119/77 17/11/77
f 13/116/78 15/15/78 3/120/78
f 13/116/79 14/2/79 15/121/79
f 14/118/80 2/103/80 15/121/80
