# Blender v2.79 (sub 0) OBJ File: 'lowPolyTrees.blend'
# www.blender.org
g Tree3
v 0.000000 -1.000000 -1.361828
v -0.000000 3.723499 -1.062700
v 1.410183 -1.000000 -0.950187
v 0.920326 3.723499 -0.531350
v 1.179378 -1.000000 0.680914
v 0.920326 3.723499 0.531350
v -0.000000 -1.000000 1.169491
v -0.000000 3.723499 1.062701
v -1.179378 -1.000000 0.680914
v -0.920326 3.723499 0.531350
v -1.487118 -1.000000 -0.988654
v -0.920326 3.723499 -0.531350
v 0.000001 14.077454 -0.866743
v 0.750623 16.885908 -0.433371
v 0.750623 16.885908 0.433372
v 0.000001 14.077454 0.866743
v -0.582902 18.493061 0.479010
v -0.599738 18.470194 -0.387268
v 0.208966 17.895819 0.045781
v -0.686710 10.788166 -0.517706
v 0.124001 8.686251 -0.985770
v 0.124001 8.686251 0.886487
v -0.686710 10.788166 0.418423
v 0.934712 10.788166 -0.517706
v 0.934712 10.788166 0.418423
v -1.023364 22.321959 -1.547862
v -1.006528 22.344824 -0.681585
v -0.609403 23.237911 -1.146481
v 4.670528 24.008560 0.238539
v 4.670528 24.008560 -0.238538
v 4.038253 24.187967 0.000000
v -0.709766 13.556840 -0.487281
v -0.731070 16.115034 -0.459170
v 0.077683 11.633429 0.810184
v 0.039517 13.292793 0.804107
v 0.868300 12.987981 -0.487282
v 0.806937 15.020561 -0.459170
v 0.039517 13.292793 -0.835746
v 0.077683 11.633429 -0.872382
v -0.731070 16.115034 0.428798
v -0.709766 13.556839 0.423816
v 0.806937 15.020560 0.428799
v 0.868300 12.987980 0.423816
v 0.351482 16.092859 3.347597
v 0.426520 16.846182 2.927340
v 0.921994 17.495855 2.341327
v 0.837616 16.569216 2.850794
v 0.799215 20.258625 4.753931
v 0.843546 20.703671 4.505654
v 1.136259 21.087481 4.159451
v 1.086410 20.540045 4.460433
v -4.204668 18.172861 -0.442957
v -4.619666 17.572170 -0.669756
v -4.587773 17.642622 -0.916402
v -4.173628 18.241428 -0.683008
v 1.286845 14.751588 -2.015320
v 1.050249 15.430413 -1.890609
v 0.976572 14.793339 -2.149419
v 1.165866 14.238840 -2.256469
v 4.713454 19.869894 1.654334
v 4.522538 20.109642 1.518028
v 4.574024 20.078953 1.392772
v 4.766355 19.838362 1.525638
v 3.127857 16.148439 0.479362
v 3.529451 15.261357 0.710739
v 3.438381 15.333580 1.120245
v 3.039223 16.218729 0.877917
v -3.027395 15.079549 -0.287233
v -2.834949 16.189934 -0.558611
v -2.848812 16.159309 -0.184363
v -3.013152 15.111012 -0.671764
v -2.081709 13.194416 0.032452
v -1.949389 15.194118 0.116376
v -1.938379 15.218438 -0.556705
v -2.070396 13.219405 -0.659121
v 3.340864 20.157381 0.089183
v 2.753128 20.744976 0.445982
v 3.340864 20.157381 0.757779
vt 0.057828 0.441711
vt 0.057828 0.441711
vt 0.057828 0.441711
vt 0.057828 0.441711
vt 0.057828 0.441711
vt 0.057828 0.441711
vt 0.057828 0.441711
vt 0.057828 0.441711
vt 0.057828 0.441711
vt 0.057828 0.441711
vt 0.057828 0.441711
vt 0.057828 0.441711
vt 0.057828 0.441711
vt 0.057828 0.441711
vt 0.057828 0.441711
vt 0.057828 0.441711
vt 0.057828 0.441711
vt 0.057828 0.441711
vt 0.057828 0.441711
vt 0.057828 0.441711
vt 0.057828 0.441711
vt 0.057828 0.441711
vt 0.057828 0.441711
vt 0.057828 0.441711
vt 0.057828 0.441711
vt 0.057828 0.441711
vt 0.057828 0.441711
vt 0.057828 0.441711
vt 0.057828 0.441711
vt 0.057828 0.441711
vt 0.057828 0.441711
vt 0.057828 0.441711
vt 0.057828 0.441711
vt 0.057828 0.441711
vt 0.057828 0.441711
vt 0.057828 0.441711
vt 0.057828 0.441711
vt 0.057828 0.441711
vt 0.057828 0.441711
vt 0.057828 0.441711
vt 0.057828 0.441711
vt 0.057828 0.441711
vt 0.057828 0.441711
vt 0.057828 0.441711
vt 0.057828 0.441711
vt 0.057828 0.441711
vt 0.057828 0.441711
vt 0.057828 0.441711
vt 0.057828 0.441711
vt 0.057828 0.441711
vt 0.057828 0.441711
vt 0.057828 0.441711
vt 0.057828 0.441711
vt 0.057828 0.441711
vt 0.057828 0.441711
vt 0.057828 0.441711
vt 0.057828 0.441711
vt 0.057828 0.441711
vt 0.057828 0.441711
vt 0.057828 0.441711
vt 0.057828 0.441711
vt 0.057828 0.441711
vt 0.057828 0.441711
vt 0.057828 0.441711
vt 0.057828 0.441711
vt 0.057828 0.441711
vt 0.057828 0.441711
vt 0.057828 0.441711
vt 0.057828 0.441711
vt 0.057828 0.441711
vt 0.057828 0.441711
vt 0.057828 0.441711
vt 0.057828 0.441711
vt 0.057828 0.441711
vt 0.057828 0.441711
vt 0.057828 0.441711
vt 0.057828 0.441711
vt 0.057828 0.441711
vn 0.3736 0.0895 -0.9233
vn 0.9934 0.0763 0.0851
vn 0.4366 0.0364 0.8989
vn -0.4366 0.0364 0.8989
vn -0.4340 0.0244 -0.9006
vn -0.9903 0.0829 0.1115
vn -0.3501 0.0956 -0.9318
vn 0.0000 -1.0000 0.0000
vn 0.5570 0.1453 0.8177
vn -0.5375 -0.0116 0.8432
vn 0.9995 0.0302 0.0000
vn -0.9982 0.0587 0.0088
vn 0.4377 0.0141 -0.8990
vn 0.4813 -0.0048 0.8765
vn -0.2681 0.2165 0.9388
vn -0.2802 0.2240 0.9334
vn -0.3597 0.2355 -0.9029
vn 0.5540 0.1647 -0.8161
vn 0.5831 -0.1266 -0.8025
vn 0.4858 0.0154 0.8739
vn 0.4993 0.0008 -0.8664
vn -0.9995 0.0331 0.0000
vn 1.0000 -0.0020 0.0000
vn -0.4674 0.0351 0.8834
vn -0.4807 0.0209 -0.8766
vn -0.9124 0.4093 0.0069
vn 0.5345 0.2766 0.7987
vn -0.9945 -0.1027 0.0220
vn 0.2730 0.9620 0.0000
vn -0.4118 0.0511 -0.9098
vn 0.9452 -0.3264 0.0000
vn 0.4334 0.0219 0.9009
vn 0.9999 -0.0090 -0.0069
vn 0.4110 0.0345 -0.9110
vn -0.7706 -0.0379 -0.6362
vn 0.2775 0.0994 -0.9556
vn -1.0000 -0.0083 -0.0000
vn 0.4087 0.0025 -0.9127
vn -0.4608 0.0054 0.8875
vn -0.4543 -0.0062 0.8908
vn -0.4365 0.0173 -0.8995
vn -0.4194 0.0080 -0.9078
vn -0.8617 0.2692 -0.4302
vn -0.9956 0.0308 0.0882
vn 0.8080 -0.3270 0.4901
vn -0.8752 0.3173 -0.3651
vn 0.4249 0.4071 0.8085
vn 0.9968 -0.0745 0.0296
vn 0.8040 -0.2659 0.5318
vn -0.9945 0.1039 0.0087
vn -0.8306 0.5546 0.0510
vn 0.8176 0.5560 0.1495
vn -0.3176 -0.0733 0.9454
vn -0.8282 -0.5405 -0.1478
vn 0.4121 0.3037 -0.8590
vn 0.9560 0.0893 0.2794
vn 0.9075 -0.3995 -0.1298
vn -0.9201 0.3653 -0.1414
vn -0.8696 0.3867 -0.3072
vn 0.5299 0.0052 -0.8480
vn -0.8098 0.5804 -0.0860
vn 0.7998 0.6001 0.0148
vn -0.8919 -0.4499 -0.0448
vn -0.2714 -0.0118 0.9624
vn 0.1192 0.0249 -0.9926
vn 0.8594 -0.5041 0.0852
vn -0.2216 0.3245 -0.9196
vn -0.8664 -0.4992 -0.0137
vn 0.7840 -0.6208 0.0000
vn -0.3336 0.1701 0.9272
vn 0.7346 0.6641 0.1392
vn -0.2870 0.0302 0.9574
vn 0.1004 0.0594 -0.9932
vn -0.3485 -0.0217 0.9370
vn 0.9075 -0.2945 0.2995
vn 0.7280 0.6835 0.0531
vn -0.4874 0.0380 0.8724
s off
f 1/1/1 2/2/1 4/3/1 3/4/1
f 3/4/2 4/3/2 6/5/2 5/6/2
f 5/6/3 6/5/3 8/7/3 7/8/3
f 7/8/4 8/7/4 10/9/4 9/10/4
f 38/11/5 33/12/5 18/13/5 13/14/5
f 9/10/6 10/9/6 12/15/6 11/16/6
f 11/16/7 12/15/7 2/2/7 1/1/7
f 1/1/8 3/4/8 5/6/8 7/8/8 9/10/8 11/16/8
f 17/17/9 16/18/9 19/19/9
f 40/20/10 35/21/10 16/18/10 17/17/10
f 42/22/11 37/23/11 14/24/11 15/25/11
f 33/12/12 40/20/12 17/17/12 18/13/12
f 37/23/13 38/11/13 13/14/13 14/24/13
f 35/21/14 42/22/14 15/25/14 16/18/14
f 15/25/15 19/19/15 16/18/15
f 77/26/16 78/27/16 29/28/16 31/29/16
f 13/14/17 19/19/17 14/24/17
f 18/13/18 19/19/18 13/14/18
f 19/19/19 18/13/19 26/30/19 28/31/19
f 8/7/20 6/5/20 25/32/20 22/33/20
f 4/3/21 2/2/21 21/34/21 24/35/21
f 12/15/22 10/9/22 23/36/22 20/37/22
f 6/5/23 4/3/23 24/35/23 25/32/23
f 10/9/24 8/7/24 22/33/24 23/36/24
f 2/2/25 12/15/25 20/37/25 21/34/25
f 27/38/26 28/31/26 26/30/26
f 17/17/27 19/19/27 28/31/27 27/38/27
f 18/13/28 17/17/28 27/38/28 26/30/28
f 30/39/29 31/29/29 29/28/29
f 76/40/30 77/26/30 31/29/30 30/39/30
f 78/27/31 76/40/31 30/39/31 29/28/31
f 22/33/32 25/32/32 43/41/32 34/42/32
f 43/41/33 42/22/33 46/43/33 47/44/33
f 24/35/34 21/34/34 39/45/34 36/46/34
f 39/45/35 38/11/35 58/47/35 59/48/35
f 69/49/36 71/50/36 54/51/36 55/52/36
f 32/53/37 41/54/37 40/20/37 33/12/37
f 24/35/38 36/46/38 64/55/38 65/56/38
f 43/41/11 36/46/11 37/23/11 42/22/11
f 23/36/39 22/33/39 34/42/39 41/54/39
f 41/54/40 34/42/40 35/21/40 40/20/40
f 21/34/41 20/37/41 32/53/41 39/45/41
f 39/45/42 32/53/42 33/12/42 38/11/42
f 46/43/43 45/57/43 49/58/43 50/59/43
f 35/21/44 34/42/44 44/60/44 45/57/44
f 34/42/45 43/41/45 47/44/45 44/60/45
f 42/22/46 35/21/46 45/57/46 46/43/46
f 48/61/47 51/62/47 50/59/47 49/58/47
f 47/44/48 46/43/48 50/59/48 51/62/48
f 44/60/49 47/44/49 51/62/49 48/61/49
f 45/57/50 44/60/50 48/61/50 49/58/50
f 54/51/51 53/63/51 52/64/51 55/52/51
f 70/65/52 69/49/52 55/52/52 52/64/52
f 68/66/53 70/65/53 52/64/53 53/63/53
f 71/50/54 68/66/54 53/63/54 54/51/54
f 56/67/55 59/48/55 58/47/55 57/68/55
f 37/23/56 36/46/56 56/67/56 57/68/56
f 36/46/57 39/45/57 59/48/57 56/67/57
f 38/11/58 37/23/58 57/68/58 58/47/58
f 64/55/59 67/69/59 61/70/59 62/71/59
f 65/56/60 64/55/60 62/71/60 63/72/60
f 36/46/61 43/41/61 67/69/61 64/55/61
f 41/54/62 32/53/62 74/73/62 73/74/62
f 75/75/63 72/76/63 68/66/63 71/50/63
f 23/36/64 41/54/64 73/74/64 72/76/64
f 32/53/65 20/37/65 75/75/65 74/73/65
f 25/32/66 24/35/66 65/56/66 66/77/66
f 14/24/67 19/19/67 77/26/67 76/40/67
f 20/37/68 23/36/68 72/76/68 75/75/68
f 15/25/69 14/24/69 76/40/69 78/27/69
f 19/19/70 15/25/70 78/27/70 77/26/70
f 60/78/71 63/72/71 62/71/71 61/70/71
f 43/41/72 25/32/72 66/77/72 67/69/72
f 74/73/73 75/75/73 71/50/73 69/49/73
f 72/76/74 73/74/74 70/65/74 68/66/74
f 66/77/75 65/56/75 63/72/75 60/78/75
f 73/74/76 74/73/76 69/49/76 70/65/76
f 67/69/77 66/77/77 60/78/77 61/70/77
