# Blender v2.79 (sub 0) OBJ File: 'lowPolyTrees.blend'
# www.blender.org
g treestump
v 0.912294 1.600000 -1.378207
v -0.100000 1.600000 -1.600000
v -0.812293 1.600000 -1.478208
v -1.331370 1.600000 -1.231371
v -1.678207 1.600000 -0.912294
v -1.800000 1.600000 -0.200000
v -1.598758 1.600000 0.612294
v -1.231370 1.600000 1.120899
v -0.644518 1.600000 1.649364
v 0.000000 1.600000 1.600000
v 0.812294 1.600000 1.578207
v 1.531371 1.600000 1.131371
v 1.678207 1.600000 0.412294
v 1.800000 1.600000 0.000000
v 1.478207 1.600000 -0.512294
v 1.354789 1.600000 -0.771832
v 1.231371 1.600000 -1.031371
v 0.100000 -0.200000 -2.100000
v 1.118440 -0.200000 -1.517311
v 1.497056 -0.200000 -0.997056
v 1.717311 -0.200000 -0.418440
v 1.607184 -0.200000 -0.707748
v 1.900000 -0.200000 -0.000000
v 2.117311 -0.200000 0.618440
v 3.221520 0.014422 2.817021
v 3.200000 -0.200001 3.100000
v 4.800000 -0.200001 3.800000
v 4.825558 -0.139960 3.713162
v 1.497056 -0.200000 1.597056
v 0.718440 -0.200000 1.917311
v 0.100000 -0.200000 1.700000
v -0.518440 -0.200000 2.057583
v -2.792169 -0.200001 3.500000
v -2.792169 0.099999 3.400000
v -3.244213 -0.023306 4.225302
v -3.231605 -0.203306 4.266124
v -1.574456 -0.200000 1.197057
v -1.817311 -0.200000 0.218441
v -2.000000 -0.200000 -0.200000
v -4.322362 -0.200000 -1.454247
v -4.393600 -0.200000 -1.097600
v -5.200000 -0.200000 -1.400000
v -5.200000 -0.200000 -1.500000
v -1.717311 -0.200000 -1.318441
v -1.297056 -0.200000 -1.497057
v -0.918439 -0.200000 -2.017311
v 4.900000 -0.200001 3.600000
v 4.854925 -0.139960 3.569347
v 3.600000 -0.200000 2.500000
v 3.309622 0.014422 2.385575
v 2.468738 0.592008 1.012732
v 2.820021 -0.200572 1.177649
v 2.351269 0.592008 1.587994
v 2.323817 -0.200572 1.960542
v -2.892169 0.099999 3.300000
v -2.992169 -0.200001 3.300000
v -3.337207 -0.203306 4.180071
v -3.302898 -0.023306 4.172455
v -1.835054 0.680139 1.857598
v -1.546323 0.680139 2.117602
v -1.484292 -0.205461 2.318446
v -2.003853 -0.205461 1.895067
v -1.904058 0.400000 2.900000
v -2.104058 0.400000 2.700000
v -2.204058 -0.200000 2.700000
v -1.904058 -0.200000 3.000000
v -5.200000 -0.173666 -1.413178
v -5.200000 -0.173666 -1.455795
v -4.343201 0.103200 -1.097600
v -4.312508 0.103200 -1.277098
v -2.933425 -0.178000 -1.191671
v -2.911527 0.658000 -0.950229
v -2.979731 0.658000 -0.551344
v -3.091731 -0.178000 -0.551344
v -3.653718 -0.180800 -1.297447
v -3.654826 0.476800 -1.074252
v -3.695749 0.476800 -0.834921
v -3.777197 -0.180800 -0.774592
v 4.155413 -0.128128 -2.804292
v 4.148749 0.059433 -2.697613
v 4.585801 -0.018432 -3.507236
v 4.588740 -0.101169 -3.554294
v 2.407196 -0.164918 -1.611441
v 2.486867 -0.164918 -1.402142
v 4.246745 -0.128128 -2.564360
v 4.201079 -0.128128 -2.684326
v 4.608884 -0.101169 -3.501375
v 4.629028 -0.101169 -3.448455
v 2.566538 -0.164918 -1.192843
v 2.395570 0.162310 -1.425322
v 1.480986 0.805890 -0.739790
v 3.448935 -0.149592 -2.175559
v 3.514921 -0.149592 -2.002211
v 3.580907 -0.149592 -1.828863
v 3.439306 0.121429 -2.021410
v 3.600000 -0.200000 2.500000
vt 0.090689 0.457000
vt 0.090596 0.456939
vt 0.090514 0.456907
vt 0.090445 0.456894
vt 0.090388 0.456898
vt 0.090412 0.456931
vt 0.090500 0.456979
vt 0.090583 0.457026
vt 0.090664 0.457066
vt 0.090755 0.457107
vt 0.090858 0.457139
vt 0.090944 0.457160
vt 0.090921 0.457142
vt 0.090887 0.457120
vt 0.090838 0.457102
vt 0.090776 0.457068
vt 0.090741 0.457034
vt 0.058399 0.458173
vt 0.058429 0.458102
vt 0.058522 0.458163
vt 0.058487 0.458227
vt 0.058574 0.458196
vt 0.058565 0.458258
vt 0.058609 0.458231
vt 0.058672 0.458265
vt 0.058728 0.458274
vt 0.058645 0.458279
vt 0.058721 0.458283
vt 0.058821 0.458278
vt 0.058754 0.458304
vt 0.058917 0.458327
vt 0.059629 0.458746
vt 0.059764 0.458901
vt 0.062165 0.459818
vt 0.062204 0.459811
vt 0.058909 0.458345
vt 0.058777 0.458323
vt 0.058691 0.458301
vt 0.058760 0.458274
vt 0.058589 0.458270
vt 0.058631 0.458232
vt 0.058497 0.458229
vt 0.058553 0.458187
vt 0.058477 0.458164
vt 0.058478 0.458164
vt 0.058477 0.458164
vt 0.058477 0.458164
vt 0.058437 0.458113
vt 0.058417 0.458189
vt 0.058334 0.458142
vt 0.058326 0.458043
vt 0.058245 0.458093
vt 0.058179 0.458006
vt 0.057486 0.457684
vt 0.057460 0.457788
vt 0.055933 0.457068
vt 0.056081 0.457064
vt 0.058142 0.458020
vt 0.058221 0.458061
vt 0.058278 0.458057
vt 0.058227 0.458073
vt 0.058348 0.458070
vt 0.058311 0.458126
vt 0.062430 0.459853
vt 0.062209 0.459852
vt 0.059835 0.458565
vt 0.059464 0.458614
vt 0.058933 0.458328
vt 0.059056 0.458357
vt 0.058967 0.458417
vt 0.059120 0.458458
vt 0.058478 0.458164
vt 0.058477 0.458164
vt 0.058477 0.458164
vt 0.058477 0.458164
vt 0.058463 0.458164
vt 0.058482 0.458173
vt 0.058488 0.458166
vt 0.058470 0.458150
vt 0.058478 0.458166
vt 0.058477 0.458165
vt 0.058477 0.458164
vt 0.058479 0.458165
vt 0.056097 0.457098
vt 0.056132 0.457088
vt 0.057581 0.457830
vt 0.057611 0.457704
vt 0.057984 0.457949
vt 0.058044 0.457957
vt 0.058029 0.457990
vt 0.057977 0.457938
vt 0.057778 0.457853
vt 0.057871 0.457860
vt 0.057855 0.457926
vt 0.057782 0.457873
vt 0.056769 0.460130
vt 0.056707 0.460125
vt 0.057460 0.459889
vt 0.057500 0.459891
vt 0.056047 0.460333
vt 0.056055 0.460388
vt 0.056130 0.460332
vt 0.056121 0.460322
vt 0.056658 0.460093
vt 0.056714 0.460115
vt 0.057483 0.459875
vt 0.057471 0.459854
vt 0.056003 0.460293
vt 0.056109 0.460310
vt 0.056101 0.460331
vt 0.055933 0.460388
vt 0.056405 0.460241
vt 0.056383 0.460226
vt 0.056361 0.460211
vt 0.056372 0.460237
vn -0.0000 1.0000 0.0000
vn 0.3607 0.2023 -0.9105
vn 0.7735 0.1195 -0.6224
vn 0.9141 0.1143 -0.3890
vn 0.8770 0.0702 -0.4754
vn 0.9856 0.1424 -0.0913
vn -0.2400 0.7939 0.5586
vn 0.4484 0.1798 0.8755
vn -0.1344 0.1198 0.9837
vn 0.3031 0.1518 0.9408
vn 0.8545 0.1668 0.4919
vn -0.9195 0.1102 0.3773
vn -0.9517 0.0782 0.2969
vn 0.0000 -1.0000 -0.0000
vn -0.5377 0.1554 -0.8287
vn -0.6390 0.1799 -0.7478
vn -0.1129 0.2728 -0.9554
vn -0.0002 -1.0000 -0.0001
vn 0.0036 -1.0000 -0.0045
vn 0.0037 -1.0000 -0.0046
vn 0.8382 0.4448 0.3154
vn 0.0002 -1.0000 0.0001
vn 0.0861 0.9961 0.0176
vn 0.5979 0.3495 -0.7213
vn 0.6478 0.0892 -0.7566
vn 0.7328 0.6638 0.1496
vn 0.0001 -1.0000 0.0000
vn -0.0001 -1.0000 -0.0000
vn -0.2703 0.3020 0.9142
vn 0.8180 0.4091 -0.4044
vn 0.4560 0.8851 0.0931
vn -0.6761 0.4248 0.6020
vn -0.8966 0.2450 -0.3689
vn 0.0025 -1.0000 -0.0027
vn 0.0013 -1.0000 -0.0014
vn 0.0026 -1.0000 -0.0028
vn -0.6393 0.1403 0.7561
vn -0.0931 0.9910 0.0966
vn -0.4651 0.7189 0.5165
vn -0.0041 -1.0000 0.0048
vn -0.0039 -1.0000 0.0044
vn -0.8440 0.1389 -0.5181
vn 0.2525 0.2308 0.9397
vn -0.2067 0.9563 0.2067
vn -0.0000 -1.0000 0.0004
vn -0.0024 -1.0000 0.0027
vn -0.6164 0.1370 -0.7754
vn 0.4564 0.1930 0.8686
vn 0.8645 0.1342 0.4843
vn -0.9553 0.1667 -0.2443
vn -0.2249 0.9446 0.2390
vn -1.0000 0.0000 0.0000
vn -0.2919 0.9556 -0.0403
vn -0.3603 0.0922 0.9283
vn 0.0182 0.5571 -0.8302
vn -0.1249 0.2394 -0.9629
vn -0.3088 0.0366 0.9504
vn -0.6018 0.7920 -0.1029
vn -0.0186 -0.9998 -0.0047
vn 0.1121 0.2937 -0.9493
vn -0.3485 0.0828 0.9336
vn -0.2304 0.9723 -0.0394
vn 0.0038 -1.0000 0.0009
vn 0.1356 0.3800 -0.9150
vn -0.4473 0.1171 0.8867
vn -0.4733 0.8772 -0.0809
vn 0.0276 -0.9996 0.0061
vn -0.8438 0.2424 -0.4788
vn 0.0306 -0.9995 -0.0117
vn 0.0375 -0.9992 -0.0143
vn 0.7200 0.6106 0.3299
vn 0.6562 0.4516 0.6045
vn -0.4997 0.2640 -0.8250
vn 0.0122 -0.9999 -0.0046
vn 0.0130 -0.9999 -0.0047
vn 0.0174 -0.9998 -0.0066
vn 0.3919 0.6601 0.6409
vn 0.0217 -0.9997 -0.0081
vn -0.4340 0.4337 -0.7896
vn 0.0227 -0.9997 -0.0086
vn 0.5504 0.6552 0.5174
vn -0.6240 0.3695 -0.6886
s 1
f 1/1/1 2/2/1 3/3/1 4/4/1 5/5/1 6/6/1 7/7/1 8/8/1 9/9/1 10/10/1 11/11/1 12/12/1 13/13/1 14/14/1 15/15/1 16/16/1 17/17/1
f 18/18/2 2/19/2 1/20/2 19/21/2
f 19/21/3 1/20/3 17/22/3 20/23/3
f 20/23/4 17/22/4 16/24/4 15/25/4 21/26/4 22/27/4
f 21/26/5 15/25/5 14/28/5 23/29/5
f 23/29/6 14/28/6 13/30/6 24/31/6
f 25/32/7 26/33/7 27/34/7 28/35/7
f 29/36/8 12/37/8 11/38/8 30/39/8
f 30/39/9 11/38/9 10/40/9 31/41/9
f 31/41/10 10/40/10 9/42/10 32/43/10
f 33/44/11 34/45/11 35/46/11 36/47/11
f 37/48/12 8/49/12 7/50/12 38/51/12
f 38/51/13 7/50/13 6/52/13 39/53/13
f 40/54/14 41/55/14 42/56/14 43/57/14
f 44/58/15 5/59/15 4/60/15 45/61/15
f 45/61/16 4/60/16 3/62/16 46/63/16
f 46/63/17 3/62/17 2/19/17 18/18/17
f 18/18/14 19/21/14 20/23/14 22/27/14 21/26/14 23/29/14 24/31/18 29/36/18 30/39/14 31/41/14 32/43/19 37/48/20 38/51/14 39/53/14 44/58/14 45/61/14 46/63/14
f 47/64/21 48/65/21 28/35/21 27/34/21
f 26/33/22 49/66/22 47/64/14 27/34/14
f 50/67/23 25/32/23 28/35/23 48/65/23
f 49/66/24 50/67/24 48/65/24 47/64/24
f 24/31/25 13/30/25 51/68/25 52/69/25
f 13/30/26 12/37/26 53/70/26 51/68/26
f 29/36/18 24/31/18 52/69/27 54/71/28
f 12/37/29 29/36/29 54/71/29 53/70/29
f 52/69/30 51/68/30 50/67/30 49/66/30
f 51/68/31 53/70/31 25/32/31 50/67/31
f 54/71/28 52/69/27 49/66/22 26/33/22
f 53/70/32 54/71/32 26/33/32 25/32/32
f 55/72/33 56/73/33 57/74/33 58/75/33
f 56/73/34 33/44/35 36/47/36 57/74/36
f 36/47/37 35/46/37 58/75/37 57/74/37
f 34/45/38 55/72/38 58/75/38 35/46/38
f 9/42/39 8/49/39 59/76/39 60/77/39
f 37/48/20 32/43/19 61/78/40 62/79/41
f 8/49/42 37/48/42 62/79/42 59/76/42
f 32/43/43 9/42/43 60/77/43 61/78/43
f 63/80/44 64/81/44 55/72/44 34/45/44
f 65/82/45 66/83/46 33/44/35 56/73/34
f 64/81/47 65/82/47 56/73/47 55/72/47
f 66/83/48 63/80/48 34/45/48 33/44/48
f 61/78/49 60/77/49 63/80/49 66/83/49
f 59/76/50 62/79/50 65/82/50 64/81/50
f 62/79/41 61/78/40 66/83/46 65/82/45
f 60/77/51 59/76/51 64/81/51 63/80/51
f 42/56/52 67/84/52 68/85/52 43/57/52
f 69/86/53 70/87/53 68/85/53 67/84/53
f 41/55/54 69/86/54 67/84/54 42/56/54
f 70/87/55 40/54/55 43/57/55 68/85/55
f 5/59/56 44/58/56 71/88/56 72/89/56
f 39/53/57 6/52/57 73/90/57 74/91/57
f 6/52/58 5/59/58 72/89/58 73/90/58
f 44/58/59 39/53/59 74/91/59 71/88/59
f 72/89/60 71/88/60 75/92/60 76/93/60
f 74/91/61 73/90/61 77/94/61 78/95/61
f 73/90/62 72/89/62 76/93/62 77/94/62
f 71/88/63 74/91/63 78/95/63 75/92/63
f 76/93/64 75/92/64 40/54/64 70/87/64
f 78/95/65 77/94/65 69/86/65 41/55/65
f 77/94/66 76/93/66 70/87/66 69/86/66
f 75/92/67 78/95/67 41/55/67 40/54/67
f 79/96/68 80/97/68 81/98/68 82/99/68
f 22/100/69 20/101/69 83/102/69 84/103/69
f 85/104/70 86/105/70 87/106/70 88/107/70
f 85/104/71 88/107/71 81/98/71 80/97/71
f 86/105/70 79/96/70 82/99/70 87/106/70
f 21/108/72 89/109/72 90/110/72 91/111/72
f 21/108/69 22/100/69 84/103/69 89/109/69
f 20/101/73 91/111/73 90/110/73 83/102/73
f 84/103/74 83/102/74 92/112/75 93/113/76
f 89/109/77 94/114/77 95/115/77 90/110/77
f 89/109/74 84/103/74 93/113/76 94/114/78
f 83/102/79 90/110/79 95/115/79 92/112/79
f 93/113/76 92/112/75 79/96/80 86/105/80
f 94/114/81 85/104/81 80/97/81 95/115/81
f 94/114/78 93/113/76 86/105/80 85/104/80
f 92/112/82 95/115/82 80/97/82 79/96/82
l 91 16
l 37 7
l 49 96
l 87 81
