# Blender v2.79 (sub 0) OBJ File: 'lowPolyTrees.blend'
# www.blender.org
g Tree2
v 0.000000 -1.000000 -1.361828
v -0.000000 3.723499 -0.916560
v 1.179378 -1.000000 -0.680914
v 0.793764 3.723499 -0.458280
v 1.179378 -1.000000 0.680914
v 0.793764 3.723499 0.458280
v -0.000000 -1.000000 1.361828
v -0.000000 3.723499 0.916560
v -1.179378 -1.000000 0.680914
v -0.793764 3.723499 0.458280
v -1.179378 -1.000000 -0.680914
v -0.793764 3.723499 -0.458280
v 0.000001 14.077454 -0.866743
v 0.750623 16.885908 -0.433371
v 0.750623 16.885908 0.433372
v 0.000001 14.077454 0.866743
v -0.582902 18.493061 0.479010
v -0.599738 18.470194 -0.387268
v 0.208966 17.895819 0.045781
v -0.686710 10.788166 -0.517706
v 0.124001 8.686251 -0.985770
v 0.124001 8.686251 0.886487
v -0.686710 10.788166 0.418423
v 0.934712 10.788166 -0.517706
v 0.934712 10.788166 0.418423
v -1.615448 22.291521 -0.468394
v -1.598612 22.314386 0.397884
v -1.201487 23.207474 -0.067012
v 4.842671 23.959713 0.433372
v 4.842671 23.959713 -0.433371
v 3.693967 24.285658 0.000000
v -0.709766 13.556840 -0.487281
v -0.731070 16.115034 -0.459170
v 0.077683 11.633429 0.810184
v 0.039517 13.292793 0.804107
v 0.868300 12.987981 -0.487282
v 0.806937 15.020561 -0.459170
v 0.039517 13.292793 -0.835746
v 0.077683 11.633429 -0.872382
v -0.731070 16.115034 0.428798
v -0.709766 13.556839 0.423816
v 0.806937 15.020560 0.428799
v 0.868300 12.987980 0.423816
v 1.567831 17.757416 4.123364
v 1.642869 18.510738 3.703108
v 2.138342 19.160412 3.117095
v 2.053964 18.233772 3.626562
v 4.098440 23.251513 7.958070
v 4.142771 23.696558 7.709793
v 4.435484 24.080368 7.363591
v 4.385636 23.532932 7.664572
v -4.204668 18.172861 -0.442957
v -4.619666 17.572170 -0.669756
v -4.587773 17.642622 -0.916402
v -4.173628 18.241428 -0.683008
v 1.286845 14.751588 -2.015320
v 1.050249 15.430413 -1.890609
v 0.976572 14.793339 -2.149419
v 1.165866 14.238840 -2.256469
v 7.692575 19.947817 7.067579
v 0.005812 28.416418 -4.799555
v 0.005812 26.226919 -8.353810
v 0.005812 23.236000 -9.654757
v 0.005812 20.245079 -8.353809
v 0.005812 18.055569 -4.799556
v 0.005812 17.254158 0.055645
v 0.005810 29.217842 0.055645
v 3.482995 28.416418 -2.371955
v 6.028469 26.226919 -4.149083
v 6.960175 23.236000 -4.799556
v 6.028466 20.245079 -4.149082
v 3.482995 18.055569 -2.371956
v 10.035071 21.292110 7.739725
v 10.892487 23.128447 7.985748
v 3.482993 28.416418 2.483246
v 6.028466 26.226919 4.260373
v 6.960175 23.236000 4.910847
v 6.028466 20.245079 4.260373
v 3.482995 18.055569 2.483246
v 10.035071 24.964785 7.739726
v 7.692574 26.309071 7.067579
v 0.005812 28.416418 4.910845
v 0.005810 26.226919 8.465099
v 0.005810 23.236000 9.766049
v 0.005812 20.245079 8.465099
v 0.005812 18.055569 4.910846
v 7.692575 19.947817 5.231243
v 10.035071 21.292110 4.559098
v -3.471371 28.416418 2.483244
v -6.016846 26.226919 4.260371
v -6.948555 23.236000 4.910845
v -6.016846 20.245079 4.260371
v -3.471371 18.055569 2.483244
v 10.892487 23.128447 4.313075
v 10.035074 24.964785 4.559097
v -3.471369 28.416418 -2.371957
v -6.016844 26.226919 -4.149085
v -6.948554 23.236000 -4.799559
v -6.016845 20.245079 -4.149084
v -3.471371 18.055569 -2.371958
v 7.692575 26.309071 5.231244
v 4.492661 26.801121 6.149412
v 4.492661 19.455774 6.149411
v 4.492661 19.947817 4.313075
v 4.492661 21.292110 2.968784
v 4.492661 23.128447 2.476739
v 4.492661 24.964785 2.968783
v 4.492661 26.309071 4.313075
v 4.492661 26.309071 7.985747
v 4.492661 24.964785 9.330039
v 4.492661 23.128447 9.822085
v 4.492661 21.292110 9.330039
v 4.492661 19.947817 7.985747
v 1.292749 26.309071 7.067579
v -1.049750 24.964785 7.739725
v -1.907166 23.128447 7.985747
v -1.049750 21.292110 7.739725
v 1.292749 19.947817 7.067579
v 1.292751 26.309071 5.231243
v -1.049748 24.964785 4.559096
v -1.907164 23.128447 4.313074
v -1.049749 21.292110 4.559097
v 1.292749 19.947817 5.231243
v -4.872481 13.589314 1.869465
v -2.529985 15.628260 3.019458
v -1.672570 18.413509 3.440386
v -2.529985 21.198759 3.019460
v -4.872483 23.237696 1.869465
v -4.872481 13.589314 -1.272372
v -2.529985 15.628260 -2.422364
v -1.672570 18.413509 -2.843291
v -2.529983 21.198759 -2.422365
v -4.872481 23.237696 -1.272371
v -8.072396 23.984009 0.298548
v -8.072395 12.843012 0.298547
v -8.072395 13.589314 -2.843291
v -8.072395 15.628260 -5.143274
v -8.072395 18.413509 -5.985127
v -8.072395 21.198759 -5.143276
v -8.072395 23.237696 -2.843291
v -8.072395 23.237696 3.440384
v -8.072396 21.198759 5.740370
v -8.072396 18.413509 6.582225
v -8.072395 15.628260 5.740370
v -8.072395 13.589314 3.440384
v -11.272308 23.237696 1.869465
v -13.614807 21.198759 3.019458
v -14.472222 18.413509 3.440384
v -13.614807 15.628260 3.019458
v -11.272308 13.589314 1.869465
v -11.272306 23.237696 -1.272373
v -13.614805 21.198759 -2.422366
v -14.472221 18.413509 -2.843292
v -13.614806 15.628260 -2.422366
v -11.272308 13.589314 -1.272373
vt 0.042533 0.348700
vt 0.044494 0.348700
vt 0.044494 0.350662
vt 0.042533 0.350662
vt 0.042533 0.348700
vt 0.044494 0.348700
vt 0.044494 0.350662
vt 0.042533 0.350662
vt 0.042533 0.348700
vt 0.044494 0.348700
vt 0.044494 0.350662
vt 0.042533 0.348700
vt 0.044494 0.348700
vt 0.044494 0.350662
vt 0.042533 0.348700
vt 0.044494 0.348700
vt 0.044494 0.350662
vt 0.042533 0.350662
vt 0.042533 0.348700
vt 0.044494 0.348700
vt 0.042533 0.350662
vt 0.042533 0.348700
vt 0.044494 0.348700
vt 0.044494 0.350662
vt 0.042533 0.350662
vt 0.042533 0.348700
vt 0.044494 0.348700
vt 0.044494 0.350662
vt 0.042533 0.350662
vt 0.042533 0.348700
vt 0.044494 0.350662
vt 0.044494 0.348700
vt 0.044494 0.350662
vt 0.042533 0.348700
vt 0.044494 0.348700
vt 0.044494 0.350662
vt 0.042533 0.350662
vt 0.042533 0.348700
vt 0.044494 0.348700
vt 0.042533 0.350662
vt 0.042533 0.348700
vt 0.044494 0.348700
vt 0.044494 0.350662
vt 0.042533 0.350662
vt 0.042533 0.348700
vt 0.044494 0.350662
vt 0.044494 0.348700
vt 0.044494 0.350662
vt 0.042533 0.348700
vt 0.044494 0.348700
vt 0.044494 0.350662
vt 0.042533 0.350662
vt 0.042533 0.348700
vt 0.044494 0.348700
vt 0.042533 0.350662
vt 0.042533 0.348700
vt 0.044494 0.348700
vt 0.044494 0.350662
vt 0.042533 0.350662
vt 0.042533 0.348700
vt 0.044494 0.350662
vt 0.044494 0.348700
vt 0.044494 0.350662
vt 0.042533 0.348700
vt 0.044494 0.348700
vt 0.044494 0.350662
vt 0.042533 0.350662
vt 0.042533 0.348700
vt 0.044494 0.348700
vt 0.042533 0.350662
vt 0.042533 0.348700
vt 0.044494 0.348700
vt 0.044494 0.350662
vt 0.042533 0.350662
vt 0.042533 0.348700
vt 0.044494 0.348700
vt 0.044494 0.350662
vt 0.042533 0.350662
vt 0.044494 0.348700
vt 0.044494 0.350662
vt 0.042533 0.348700
vt 0.044494 0.348700
vt 0.044494 0.350662
vt 0.042533 0.350662
vt 0.042533 0.348700
vt 0.044494 0.348700
vt 0.044494 0.350662
vt 0.042533 0.350662
vt 0.042533 0.348700
vt 0.044494 0.348700
vt 0.044494 0.350662
vt 0.042533 0.350662
vt 0.042533 0.348700
vt 0.044494 0.348700
vt 0.044494 0.350662
vt 0.042533 0.350662
vt 0.042533 0.348700
vt 0.044494 0.348700
vt 0.044494 0.350662
vt 0.042533 0.348700
vt 0.044494 0.348700
vt 0.044494 0.350662
vt 0.042533 0.350662
vt 0.042533 0.348700
vt 0.044494 0.348700
vt 0.044494 0.350662
vt 0.042533 0.350662
vt 0.042533 0.348700
vt 0.044494 0.348700
vt 0.044494 0.350662
vt 0.042533 0.350662
vt 0.042533 0.348700
vt 0.044494 0.348700
vt 0.044494 0.350662
vt 0.042533 0.350662
vt 0.042533 0.348700
vt 0.042533 0.348700
vt 0.044494 0.348700
vt 0.044494 0.350662
vt 0.042533 0.350662
vt 0.042533 0.348700
vt 0.044494 0.348700
vt 0.044494 0.350662
vt 0.042533 0.350662
vt 0.042533 0.348700
vt 0.044494 0.348700
vt 0.044494 0.350662
vt 0.042533 0.348700
vt 0.044494 0.348700
vt 0.044494 0.350662
vt 0.042533 0.348700
vt 0.044494 0.348700
vt 0.044494 0.350662
vt 0.042533 0.350662
vt 0.042533 0.348700
vt 0.044494 0.348700
vt 0.042533 0.350662
vt 0.042533 0.348700
vt 0.044494 0.348700
vt 0.044494 0.350662
vt 0.042533 0.350662
vt 0.042533 0.348700
vt 0.044494 0.348700
vt 0.044494 0.350662
vt 0.042533 0.350662
vt 0.042533 0.348700
vt 0.044494 0.350662
vt 0.044494 0.348700
vt 0.044494 0.350662
vt 0.042533 0.348700
vt 0.044494 0.348700
vt 0.044494 0.350662
vt 0.042533 0.350662
vt 0.042533 0.348700
vt 0.044494 0.348700
vt 0.042533 0.350662
vt 0.042533 0.348700
vt 0.044494 0.348700
vt 0.044494 0.350662
vt 0.042533 0.350662
vt 0.042533 0.348700
vt 0.044494 0.350662
vt 0.044494 0.348700
vt 0.044494 0.350662
vt 0.042533 0.348700
vt 0.044494 0.348700
vt 0.044494 0.350662
vt 0.042533 0.350662
vt 0.042533 0.348700
vt 0.044494 0.348700
vt 0.042533 0.350662
vt 0.042533 0.348700
vt 0.044494 0.348700
vt 0.044494 0.350662
vt 0.042533 0.350662
vt 0.042533 0.348700
vt 0.044494 0.350662
vt 0.044494 0.348700
vt 0.044494 0.350662
vt 0.042533 0.348700
vt 0.044494 0.348700
vt 0.044494 0.350662
vt 0.042533 0.350662
vt 0.042533 0.348700
vt 0.044494 0.348700
vt 0.042533 0.350662
vt 0.042533 0.348700
vt 0.044494 0.348700
vt 0.044494 0.350662
vt 0.042533 0.350662
vt 0.042533 0.348700
vt 0.044494 0.348700
vt 0.044494 0.350662
vt 0.042533 0.350662
vt 0.044494 0.348700
vt 0.044494 0.350662
vt 0.042533 0.348700
vt 0.044494 0.348700
vt 0.044494 0.350662
vt 0.042533 0.350662
vt 0.042533 0.348700
vt 0.044494 0.348700
vt 0.044494 0.350662
vt 0.042533 0.350662
vt 0.042533 0.348700
vt 0.044494 0.348700
vt 0.044494 0.350662
vt 0.042533 0.350662
vt 0.042533 0.348700
vt 0.044494 0.348700
vt 0.044494 0.350662
vt 0.042533 0.350662
vt 0.042533 0.348700
vt 0.044494 0.348700
vt 0.044494 0.350662
vt 0.042533 0.348700
vt 0.044494 0.348700
vt 0.044494 0.350662
vt 0.042533 0.350662
vt 0.042533 0.348700
vt 0.044494 0.348700
vt 0.044494 0.350662
vt 0.042533 0.350662
vt 0.042533 0.348700
vt 0.044494 0.348700
vt 0.044494 0.350662
vt 0.042533 0.350662
vt 0.042533 0.348700
vt 0.044494 0.348700
vt 0.044494 0.350662
vt 0.042533 0.350662
vt 0.042533 0.348700
vt 0.042533 0.348700
vt 0.044494 0.348700
vt 0.044494 0.350662
vt 0.042533 0.350662
vt 0.042533 0.348700
vt 0.044494 0.348700
vt 0.044494 0.350662
vt 0.042533 0.350662
vt 0.042533 0.348700
vt 0.044494 0.348700
vt 0.044494 0.350662
vt 0.042533 0.348700
vt 0.044494 0.348700
vt 0.044494 0.350662
vt 0.042533 0.348700
vt 0.044494 0.348700
vt 0.044494 0.350662
vt 0.042533 0.350662
vt 0.042533 0.348700
vt 0.044494 0.348700
vt 0.042533 0.350662
vt 0.042533 0.348700
vt 0.044494 0.348700
vt 0.044494 0.350662
vt 0.042533 0.350662
vt 0.042533 0.348700
vt 0.044494 0.348700
vt 0.044494 0.350662
vt 0.042533 0.350662
vt 0.042533 0.348700
vt 0.044494 0.350662
vt 0.044494 0.348700
vt 0.044494 0.350662
vt 0.042533 0.348700
vt 0.044494 0.348700
vt 0.044494 0.350662
vt 0.042533 0.350662
vt 0.042533 0.348700
vt 0.044494 0.348700
vt 0.042533 0.350662
vt 0.042533 0.348700
vt 0.044494 0.348700
vt 0.044494 0.350662
vt 0.042533 0.350662
vt 0.042533 0.348700
vt 0.044494 0.350662
vt 0.044494 0.348700
vt 0.044494 0.350662
vt 0.042533 0.348700
vt 0.044494 0.348700
vt 0.044494 0.350662
vt 0.042533 0.350662
vt 0.042533 0.348700
vt 0.044494 0.348700
vt 0.042533 0.350662
vt 0.042533 0.348700
vt 0.044494 0.348700
vt 0.044494 0.350662
vt 0.042533 0.350662
vt 0.042533 0.348700
vt 0.044494 0.350662
vt 0.044494 0.348700
vt 0.044494 0.350662
vt 0.042533 0.348700
vt 0.044494 0.348700
vt 0.044494 0.350662
vt 0.042533 0.350662
vt 0.042533 0.348700
vt 0.044494 0.348700
vt 0.042533 0.350662
vt 0.042533 0.348700
vt 0.044494 0.348700
vt 0.044494 0.350662
vt 0.042533 0.350662
vt 0.042533 0.348700
vt 0.044494 0.348700
vt 0.044494 0.350662
vt 0.042533 0.350662
vt 0.044494 0.348700
vt 0.044494 0.350662
vt 0.042533 0.348700
vt 0.044494 0.348700
vt 0.044494 0.350662
vt 0.042533 0.350662
vt 0.042533 0.348700
vt 0.044494 0.348700
vt 0.044494 0.350662
vt 0.042533 0.350662
vt 0.042533 0.348700
vt 0.044494 0.348700
vt 0.044494 0.350662
vt 0.042533 0.350662
vt 0.042533 0.348700
vt 0.044494 0.348700
vt 0.044494 0.350662
vt 0.042533 0.350662
vt 0.042533 0.348700
vt 0.044494 0.348700
vt 0.044494 0.350662
vt 0.042533 0.348700
vt 0.044494 0.348700
vt 0.044494 0.350662
vt 0.042533 0.350662
vt 0.042533 0.348700
vt 0.044494 0.348700
vt 0.044494 0.350662
vt 0.042533 0.350662
vt 0.042533 0.348700
vt 0.044494 0.348700
vt 0.044494 0.350662
vt 0.042533 0.350662
vt 0.042533 0.348700
vt 0.044494 0.348700
vt 0.044494 0.350662
vt 0.042533 0.350662
vt 0.042533 0.348700
vt 0.057828 0.441711
vt 0.057828 0.441711
vt 0.057828 0.441711
vt 0.057828 0.441711
vt 0.057828 0.441711
vt 0.057828 0.441711
vt 0.057828 0.441711
vt 0.057828 0.441711
vt 0.057828 0.441711
vt 0.057828 0.441711
vt 0.057828 0.441711
vt 0.057828 0.441711
vt 0.057828 0.441711
vt 0.057828 0.441711
vt 0.057828 0.441711
vt 0.057828 0.441711
vt 0.057828 0.441711
vt 0.057828 0.441711
vt 0.057828 0.441711
vt 0.057828 0.441711
vt 0.057828 0.441711
vt 0.057828 0.441711
vt 0.057828 0.441711
vt 0.057828 0.441711
vt 0.057828 0.441711
vt 0.057828 0.441711
vt 0.057828 0.441711
vt 0.057828 0.441711
vt 0.057828 0.441711
vt 0.057828 0.441711
vt 0.057828 0.441711
vt 0.057828 0.441711
vt 0.057828 0.441711
vt 0.057828 0.441711
vt 0.057828 0.441711
vt 0.057828 0.441711
vt 0.057828 0.441711
vt 0.057828 0.441711
vt 0.057828 0.441711
vt 0.057828 0.441711
vt 0.057828 0.441711
vt 0.057828 0.441711
vt 0.057828 0.441711
vt 0.057828 0.441711
vt 0.057828 0.441711
vt 0.057828 0.441711
vt 0.057828 0.441711
vt 0.057828 0.441711
vt 0.057828 0.441711
vt 0.057828 0.441711
vt 0.057828 0.441711
vt 0.057828 0.441711
vt 0.057828 0.441711
vt 0.057828 0.441711
vt 0.057828 0.441711
vt 0.057828 0.441711
vt 0.057828 0.441711
vt 0.057828 0.441711
vt 0.057828 0.441711
vn 0.3438 -0.7995 -0.4925
vn 0.5392 0.3359 -0.7723
vn 0.1130 0.9803 -0.1618
vn 0.1130 -0.9803 -0.1618
vn 0.5392 -0.3359 -0.7723
vn 0.3438 0.7995 -0.4925
vn 0.6521 -0.7581 0.0000
vn 0.9547 0.2974 0.0000
vn 0.2246 0.9745 0.0000
vn 0.2246 -0.9745 0.0000
vn 0.9547 -0.2974 0.0000
vn 0.6521 0.7581 0.0000
vn 0.5392 0.3359 0.7723
vn 0.1130 0.9803 0.1618
vn 0.1130 -0.9803 0.1618
vn 0.5392 -0.3359 0.7723
vn 0.3438 0.7995 0.4925
vn 0.3438 -0.7995 0.4925
vn -0.1130 0.9803 0.1618
vn -0.1130 -0.9803 0.1618
vn -0.5392 -0.3359 0.7723
vn -0.3438 0.7995 0.4925
vn -0.3438 -0.7995 0.4925
vn -0.5392 0.3359 0.7723
vn -0.2246 -0.9745 0.0000
vn -0.9547 -0.2974 -0.0000
vn -0.6521 0.7581 0.0000
vn -0.6521 -0.7581 0.0000
vn -0.9547 0.2974 -0.0000
vn -0.2246 0.9745 0.0000
vn -0.1130 -0.9803 -0.1618
vn -0.5392 -0.3359 -0.7723
vn -0.3438 0.7995 -0.4925
vn -0.3438 -0.7995 -0.4925
vn -0.5392 0.3359 -0.7723
vn -0.1130 0.9803 -0.1618
vn 0.1988 -0.6930 -0.6930
vn 0.2671 0.2494 -0.9308
vn 0.0741 0.9633 -0.2581
vn 0.0741 -0.9633 -0.2581
vn 0.2671 -0.2494 -0.9308
vn 0.1988 0.6930 -0.6930
vn 0.4977 -0.8673 0.0000
vn 0.9061 0.4231 0.0000
vn 0.1520 0.9884 -0.0000
vn 0.1520 -0.9884 0.0000
vn 0.9061 -0.4231 0.0000
vn 0.4977 0.8673 0.0000
vn 0.2671 0.2494 0.9308
vn 0.0741 0.9633 0.2581
vn 0.0741 -0.9633 0.2581
vn 0.2671 -0.2494 0.9308
vn 0.1988 0.6930 0.6930
vn 0.1988 -0.6930 0.6930
vn -0.0741 0.9633 0.2581
vn -0.0741 -0.9633 0.2581
vn -0.2671 -0.2494 0.9308
vn -0.1988 0.6930 0.6930
vn -0.1988 -0.6930 0.6930
vn -0.2671 0.2494 0.9308
vn -0.1520 -0.9884 0.0000
vn -0.9061 -0.4231 0.0000
vn -0.4977 0.8673 -0.0000
vn -0.4977 -0.8673 0.0000
vn -0.9061 0.4231 -0.0000
vn -0.1520 0.9884 -0.0000
vn -0.0741 -0.9633 -0.2581
vn -0.2671 -0.2494 -0.9308
vn -0.1988 0.6930 -0.6930
vn -0.1988 -0.6930 -0.6930
vn -0.2671 0.2494 -0.9308
vn -0.0741 0.9633 -0.2581
vn 0.3097 -0.7115 -0.6308
vn 0.4253 0.2619 -0.8663
vn 0.1127 0.9667 -0.2296
vn 0.1127 -0.9667 -0.2296
vn 0.4253 -0.2619 -0.8663
vn 0.3097 0.7115 -0.6308
vn 0.6565 -0.7543 0.0000
vn 0.9557 0.2942 0.0000
vn 0.2271 0.9739 0.0000
vn 0.2271 -0.9739 0.0000
vn 0.9557 -0.2942 0.0000
vn 0.6565 0.7543 0.0000
vn 0.4253 0.2619 0.8663
vn 0.1127 0.9667 0.2296
vn 0.1127 -0.9667 0.2296
vn 0.4253 -0.2619 0.8663
vn 0.3097 0.7115 0.6308
vn 0.3097 -0.7115 0.6308
vn -0.1127 0.9667 0.2296
vn -0.1127 -0.9667 0.2296
vn -0.4253 -0.2619 0.8663
vn -0.3097 0.7115 0.6308
vn -0.3097 -0.7115 0.6308
vn -0.4253 0.2619 0.8663
vn -0.2271 -0.9739 0.0000
vn -0.9557 -0.2942 -0.0000
vn -0.6565 0.7543 -0.0000
vn -0.6565 -0.7543 0.0000
vn -0.9557 0.2942 -0.0000
vn -0.2271 0.9739 0.0000
vn -0.1127 -0.9667 -0.2296
vn -0.4253 -0.2619 -0.8663
vn -0.3097 0.7115 -0.6308
vn -0.3097 -0.7115 -0.6308
vn -0.4253 0.2619 -0.8663
vn -0.1127 0.9667 -0.2296
vn 0.4983 0.0814 -0.8632
vn 0.9967 0.0814 0.0000
vn 0.4983 0.0814 0.8632
vn -0.4983 0.0814 0.8632
vn -0.4340 0.0244 -0.9006
vn -0.9967 0.0814 0.0000
vn -0.4983 0.0814 -0.8632
vn 0.0000 -1.0000 -0.0000
vn 0.5570 0.1453 0.8177
vn -0.5375 -0.0116 0.8432
vn 0.9995 0.0302 0.0000
vn -0.9982 0.0587 0.0088
vn 0.4377 0.0141 -0.8990
vn 0.4813 -0.0048 0.8765
vn -0.2681 0.2165 0.9388
vn -0.3120 0.1787 0.9331
vn -0.3597 0.2355 -0.9029
vn 0.5540 0.1647 -0.8161
vn 0.5354 0.1245 -0.8354
vn 0.5060 -0.0061 0.8625
vn 0.5200 -0.0206 -0.8539
vn -0.9999 0.0152 0.0000
vn 0.9998 -0.0199 0.0000
vn -0.4857 0.0144 0.8740
vn -0.4997 0.0003 -0.8662
vn -0.9124 0.4093 0.0069
vn 0.5673 0.1678 0.8063
vn -0.9663 -0.2563 0.0255
vn 0.2730 0.9620 0.0000
vn -0.3451 0.1911 -0.9189
vn 0.8656 -0.5007 0.0000
vn 0.4334 0.0219 0.9009
vn 0.9490 -0.0602 -0.3096
vn 0.4110 0.0345 -0.9110
vn -0.7706 -0.0379 -0.6362
vn 0.1694 0.0574 -0.9839
vn -1.0000 -0.0083 -0.0000
vn -0.4608 0.0054 0.8875
vn -0.4543 -0.0062 0.8908
vn -0.4365 0.0173 -0.8995
vn -0.4194 0.0080 -0.9078
vn -0.8445 0.5165 -0.1415
vn -0.9397 0.0734 0.3340
vn 0.8368 -0.4069 0.3663
vn -0.8967 0.3975 -0.1948
vn 0.4249 0.4071 0.8085
vn 0.9419 -0.2235 -0.2506
vn 0.7974 -0.5463 0.2565
vn -0.9324 0.2424 0.2680
vn -0.8306 0.5546 0.0510
vn 0.7962 0.6023 0.0573
vn -0.2986 -0.0310 0.9539
vn -0.8634 -0.5017 -0.0532
vn 0.4121 0.3037 -0.8590
vn 0.9560 0.0893 0.2794
vn 0.9075 -0.3995 -0.1298
vn -0.9201 0.3653 -0.1414
s off
f 65/1/1 64/2/1 71/3/1 72/4/1
f 63/5/2 62/6/2 69/7/2 70/8/2
f 61/9/3 67/10/3 68/11/3
f 66/12/4 65/13/4 72/14/4
f 64/15/5 63/16/5 70/17/5 71/18/5
f 62/19/6 61/20/6 68/11/6 69/21/6
f 72/22/7 71/23/7 78/24/7 79/25/7
f 70/26/8 69/27/8 76/28/8 77/29/8
f 68/30/9 67/10/9 75/31/9
f 66/12/10 72/32/10 79/33/10
f 71/34/11 70/35/11 77/36/11 78/37/11
f 69/38/12 68/39/12 75/31/12 76/40/12
f 77/41/13 76/42/13 83/43/13 84/44/13
f 75/45/14 67/10/14 82/46/14
f 66/12/15 79/47/15 86/48/15
f 78/49/16 77/50/16 84/51/16 85/52/16
f 76/53/17 75/54/17 82/46/17 83/55/17
f 79/56/18 78/57/18 85/58/18 86/59/18
f 82/60/19 67/10/19 89/61/19
f 66/12/20 86/62/20 93/63/20
f 85/64/21 84/65/21 91/66/21 92/67/21
f 83/68/22 82/69/22 89/61/22 90/70/22
f 86/71/23 85/72/23 92/73/23 93/74/23
f 84/75/24 83/76/24 90/77/24 91/78/24
f 66/12/25 93/79/25 100/80/25
f 92/81/26 91/82/26 98/83/26 99/84/26
f 90/85/27 89/86/27 96/87/27 97/88/27
f 93/89/28 92/90/28 99/91/28 100/92/28
f 91/93/29 90/94/29 97/95/29 98/96/29
f 89/97/30 67/10/30 96/87/30
f 66/12/31 100/98/31 65/99/31
f 99/100/32 98/101/32 63/102/32 64/103/32
f 97/104/33 96/105/33 61/106/33 62/107/33
f 100/108/34 99/109/34 64/110/34 65/111/34
f 98/112/35 97/113/35 62/114/35 63/115/35
f 96/116/36 67/10/36 61/106/36
f 104/117/37 105/118/37 88/119/37 87/120/37
f 106/121/38 107/122/38 95/123/38 94/124/38
f 108/125/39 102/126/39 101/127/39
f 103/128/40 104/129/40 87/130/40
f 105/131/41 106/132/41 94/133/41 88/134/41
f 107/135/42 108/136/42 101/127/42 95/137/42
f 87/138/43 88/139/43 73/140/43 60/141/43
f 94/142/44 95/143/44 80/144/44 74/145/44
f 101/146/45 102/126/45 81/147/45
f 103/128/46 87/148/46 60/149/46
f 88/150/47 94/151/47 74/152/47 73/153/47
f 95/154/48 101/155/48 81/147/48 80/156/48
f 74/157/49 80/158/49 110/159/49 111/160/49
f 81/161/50 102/126/50 109/162/50
f 103/128/51 60/163/51 113/164/51
f 73/165/52 74/166/52 111/167/52 112/168/52
f 80/169/53 81/170/53 109/162/53 110/171/53
f 60/172/54 73/173/54 112/174/54 113/175/54
f 109/176/55 102/126/55 114/177/55
f 103/128/56 113/178/56 118/179/56
f 112/180/57 111/181/57 116/182/57 117/183/57
f 110/184/58 109/185/58 114/177/58 115/186/58
f 113/187/59 112/188/59 117/189/59 118/190/59
f 111/191/60 110/192/60 115/193/60 116/194/60
f 103/128/61 118/195/61 123/196/61
f 117/197/62 116/198/62 121/199/62 122/200/62
f 115/201/63 114/202/63 119/203/63 120/204/63
f 118/205/64 117/206/64 122/207/64 123/208/64
f 116/209/65 115/210/65 120/211/65 121/212/65
f 114/213/66 102/126/66 119/203/66
f 103/128/67 123/214/67 104/215/67
f 122/216/68 121/217/68 106/218/68 105/219/68
f 120/220/69 119/221/69 108/222/69 107/223/69
f 123/224/70 122/225/70 105/226/70 104/227/70
f 121/228/71 120/229/71 107/230/71 106/231/71
f 119/232/72 102/126/72 108/222/72
f 136/233/73 137/234/73 130/235/73 129/236/73
f 138/237/74 139/238/74 132/239/74 131/240/74
f 140/241/75 134/242/75 133/243/75
f 135/244/76 136/245/76 129/246/76
f 137/247/77 138/248/77 131/249/77 130/250/77
f 139/251/78 140/252/78 133/243/78 132/253/78
f 129/254/79 130/255/79 125/256/79 124/257/79
f 131/258/80 132/259/80 127/260/80 126/261/80
f 133/262/81 134/242/81 128/263/81
f 135/244/82 129/264/82 124/265/82
f 130/266/83 131/267/83 126/268/83 125/269/83
f 132/270/84 133/271/84 128/263/84 127/272/84
f 126/273/85 127/274/85 142/275/85 143/276/85
f 128/277/86 134/242/86 141/278/86
f 135/244/87 124/279/87 145/280/87
f 125/281/88 126/282/88 143/283/88 144/284/88
f 127/285/89 128/286/89 141/278/89 142/287/89
f 124/288/90 125/289/90 144/290/90 145/291/90
f 141/292/91 134/242/91 146/293/91
f 135/244/92 145/294/92 150/295/92
f 144/296/93 143/297/93 148/298/93 149/299/93
f 142/300/94 141/301/94 146/293/94 147/302/94
f 145/303/95 144/304/95 149/305/95 150/306/95
f 143/307/96 142/308/96 147/309/96 148/310/96
f 135/244/97 150/311/97 155/312/97
f 149/313/98 148/314/98 153/315/98 154/316/98
f 147/317/99 146/318/99 151/319/99 152/320/99
f 150/321/100 149/322/100 154/323/100 155/324/100
f 148/325/101 147/326/101 152/327/101 153/328/101
f 146/329/102 134/242/102 151/319/102
f 135/244/103 155/330/103 136/331/103
f 154/332/104 153/333/104 138/334/104 137/335/104
f 152/336/105 151/337/105 140/338/105 139/339/105
f 155/340/106 154/341/106 137/342/106 136/343/106
f 153/344/107 152/345/107 139/346/107 138/347/107
f 151/348/108 134/242/108 140/338/108
f 1/349/109 2/350/109 4/351/109 3/352/109
f 3/352/110 4/351/110 6/353/110 5/354/110
f 5/354/111 6/353/111 8/355/111 7/356/111
f 7/356/112 8/355/112 10/357/112 9/358/112
f 38/359/113 33/360/113 18/361/113 13/362/113
f 9/358/114 10/357/114 12/363/114 11/364/114
f 11/364/115 12/363/115 2/350/115 1/349/115
f 1/349/116 3/352/116 5/354/116 7/356/116 9/358/116 11/364/116
f 17/365/117 16/366/117 19/367/117
f 40/368/118 35/369/118 16/366/118 17/365/118
f 42/370/119 37/371/119 14/372/119 15/373/119
f 33/360/120 40/368/120 17/365/120 18/361/120
f 37/371/121 38/359/121 13/362/121 14/372/121
f 35/369/122 42/370/122 15/373/122 16/366/122
f 15/373/123 19/367/123 16/366/123
f 19/367/124 15/373/124 29/374/124 31/375/124
f 13/362/125 19/367/125 14/372/125
f 18/361/126 19/367/126 13/362/126
f 19/367/127 18/361/127 26/376/127 28/377/127
f 8/355/128 6/353/128 25/378/128 22/379/128
f 4/351/129 2/350/129 21/380/129 24/381/129
f 12/363/130 10/357/130 23/382/130 20/383/130
f 6/353/131 4/351/131 24/381/131 25/378/131
f 10/357/132 8/355/132 22/379/132 23/382/132
f 2/350/133 12/363/133 20/383/133 21/380/133
f 27/384/134 28/377/134 26/376/134
f 17/365/135 19/367/135 28/377/135 27/384/135
f 18/361/136 17/365/136 27/384/136 26/376/136
f 30/385/137 31/375/137 29/374/137
f 14/372/138 19/367/138 31/375/138 30/385/138
f 15/373/139 14/372/139 30/385/139 29/374/139
f 22/379/140 25/378/140 43/386/140 34/387/140
f 43/386/141 42/370/141 46/388/141 47/389/141
f 24/381/142 21/380/142 39/390/142 36/391/142
f 39/390/143 38/359/143 58/392/143 59/393/143
f 32/394/144 20/383/144 54/395/144 55/396/144
f 32/394/145 41/397/145 40/368/145 33/360/145
f 25/378/119 24/381/119 36/391/119 43/386/119
f 43/386/119 36/391/119 37/371/119 42/370/119
f 23/382/146 22/379/146 34/387/146 41/397/146
f 41/397/147 34/387/147 35/369/147 40/368/147
f 21/380/148 20/383/148 32/394/148 39/390/148
f 39/390/149 32/394/149 33/360/149 38/359/149
f 46/388/150 45/398/150 49/399/150 50/400/150
f 35/369/151 34/387/151 44/401/151 45/398/151
f 34/387/152 43/386/152 47/389/152 44/401/152
f 42/370/153 35/369/153 45/398/153 46/388/153
f 48/402/154 51/403/154 50/400/154 49/399/154
f 47/389/155 46/388/155 50/400/155 51/403/155
f 44/401/156 47/389/156 51/403/156 48/402/156
f 45/398/157 44/401/157 48/402/157 49/399/157
f 54/395/158 53/404/158 52/405/158 55/396/158
f 41/397/159 32/394/159 55/396/159 52/405/159
f 23/382/160 41/397/160 52/405/160 53/404/160
f 20/383/161 23/382/161 53/404/161 54/395/161
f 56/406/162 59/393/162 58/392/162 57/407/162
f 37/371/163 36/391/163 56/406/163 57/407/163
f 36/391/164 39/390/164 59/393/164 56/406/164
f 38/359/165 37/371/165 57/407/165 58/392/165
